999
dxfrw 0.6.3
  0
SECTION
  2
HEADER
  9
$ACADVER
  1
AC1021
  9
$DWGCODEPAGE
  3
ANSI_1252
  9
$INSBASE
 10
0
 20
0
 30
0
  9
$EXTMIN
 10
20.00000043094323
 20
6.8613989817456
 30
0
  9
$EXTMAX
 10
222.5807945925393
 20
183.6980969133434
 30
0
  9
$LIMMIN
 10
0
 20
0
  9
$LIMMAX
 10
12
 20
9
  9
$ORTHOMODE
 70
    0
  9
$REGENMODE
 70
    1
  9
$FILLMODE
 70
    1
  9
$QTEXTMODE
 70
    0
  9
$MIRRTEXT
 70
    1
  9
$LTSCALE
 40
1
  9
$ATTMODE
 70
    1
  9
$TEXTSIZE
 40
0.2
  9
$TRACEWID
 40
0.05
  9
$TEXTSTYLE
  7
Standard
  9
$CLAYER
  8
0
  9
$CELTYPE
  6
BYLAYER
  9
$CECOLOR
 62
   18
  9
$CELTSCALE
 40
1
  9
$DISPSILH
 70
    0
  9
$DIMSCALE
 40
1
  9
$DIMASZ
 40
2.5
  9
$DIMEXO
 40
0.625
  9
$DIMDLI
 40
0.38
  9
$DIMRND
 40
0
  9
$DIMDLE
 40
0
  9
$DIMEXE
 40
1.25
  9
$DIMTP
 40
0
  9
$DIMTM
 40
0
  9
$DIMTXT
 40
2.5
  9
$DIMCEN
 40
0.09
  9
$DIMTSZ
 40
0
  9
$DIMTOL
 70
    0
  9
$DIMLIM
 70
    0
  9
$DIMTIH
 70
    1
  9
$DIMTOH
 70
    1
  9
$DIMSE1
 70
    0
  9
$DIMSE2
 70
    0
  9
$DIMTAD
 70
    0
  9
$DIMZIN
 70
    8
  9
$DIMBLK
  1

  9
$DIMASO
 70
    1
  9
$DIMSHO
 70
    1
  9
$DIMPOST
  1

  9
$DIMAPOST
  1

  9
$DIMALT
 70
    0
  9
$DIMALTD
 70
    2
  9
$DIMALTF
 40
25.4
  9
$DIMLFAC
 40
1
  9
$DIMTOFL
 70
    0
  9
$DIMTVP
 40
0
  9
$DIMTIX
 70
    0
  9
$DIMSOXD
 70
    0
  9
$DIMSAH
 70
    0
  9
$DIMBLK1
  1

  9
$DIMBLK2
  1

  9
$DIMSTYLE
  2
Standard
  9
$DIMCLRD
 70
   18
  9
$DIMCLRE
 70
   18
  9
$DIMCLRT
 70
   18
  9
$DIMTFAC
 40
1
  9
$DIMGAP
 40
0.625
  9
$DIMJUST
 70
    0
  9
$DIMSD1
 70
    0
  9
$DIMSD2
 70
    0
  9
$DIMTOLJ
 70
    1
  9
$DIMTZIN
 70
    0
  9
$DIMALTZ
 70
    0
  9
$DIMALTTZ
 70
    0
  9
$DIMUPT
 70
    0
  9
$DIMDEC
 70
    2
  9
$DIMTDEC
 70
    4
  9
$DIMALTU
 70
    2
  9
$DIMALTTD
 70
    2
  9
$DIMTXSTY
  7
Standard
  9
$DIMAUNIT
 70
    0
  9
$DIMADEC
 70
    0
  9
$DIMALTRND
 40
0
  9
$DIMAZIN
 70
    2
  9
$DIMDSEP
 70
   46
  9
$DIMATFIT
 70
    3
  9
$DIMFRAC
 70
    0
  9
$DIMLDRBLK
  1

  9
$DIMLUNIT
 70
    2
  9
$DIMLWD
 70
   -2
  9
$DIMLWE
 70
   -2
  9
$DIMTMOVE
 70
    0
  9
$DIMFXL
 40
1
  9
$DIMFXLON
 70
    0
  9
$DIMJOGANG
 40
0.7854
  9
$DIMTFILL
 70
    0
  9
$DIMTFILLCLR
 70
    0
  9
$DIMARCSYM
 70
    0
  9
$DIMLTYPE
  6

  9
$DIMLTEX1
  6

  9
$DIMLTEX2
  6

  9
$LUNITS
 70
    2
  9
$LUPREC
 70
    4
  9
$SKETCHINC
 40
0.1
  9
$FILLETRAD
 40
0.5
  9
$AUNITS
 70
    0
  9
$AUPREC
 70
    0
  9
$MENU
  1
.
  9
$ELEVATION
 40
0
  9
$PELEVATION
 40
0
  9
$THICKNESS
 40
0
  9
$LIMCHECK
 70
    0
  9
$CHAMFERA
 40
0.5
  9
$CHAMFERB
 40
0.5
  9
$CHAMFERC
 40
1
  9
$CHAMFERD
 40
0
  9
$SKPOLY
 70
    0
  9
$USRTIMER
 70
    1
  9
$ANGBASE
 50
0
  9
$ANGDIR
 70
    0
  9
$PDMODE
 70
    0
  9
$PDSIZE
 40
0
  9
$PLINEWID
 40
0
  9
$SPLFRAME
 70
    0
  9
$SPLINETYPE
 70
    6
  9
$SPLINESEGS
 70
    8
  9
$HANDSEED
  5
20000
  9
$SURFTAB1
 70
    6
  9
$SURFTAB2
 70
    6
  9
$SURFTYPE
 70
    6
  9
$SURFU
 70
    6
  9
$SURFV
 70
    6
  9
$UCSBASE
  2

  9
$UCSNAME
  2

  9
$UCSORG
 10
0
 20
0
 30
0
  9
$UCSXDIR
 10
1
 20
0
 30
0
  9
$UCSYDIR
 10
0
 20
1
 30
0
  9
$UCSORTHOREF
  2

  9
$UCSORTHOVIEW
 70
    0
  9
$UCSORGTOP
 10
0
 20
0
 30
0
  9
$UCSORGBOTTOM
 10
0
 20
0
 30
0
  9
$UCSORGLEFT
 10
0
 20
0
 30
0
  9
$UCSORGRIGHT
 10
0
 20
0
 30
0
  9
$UCSORGFRONT
 10
0
 20
0
 30
0
  9
$UCSORGBACK
 10
0
 20
0
 30
0
  9
$PUCSBASE
  2

  9
$PUCSNAME
  2

  9
$PUCSORG
 10
0
 20
0
 30
0
  9
$PUCSXDIR
 10
1
 20
0
 30
0
  9
$PUCSYDIR
 10
0
 20
1
 30
0
  9
$PUCSORTHOREF
  2

  9
$PUCSORTHOVIEW
 70
    0
  9
$PUCSORGTOP
 10
0
 20
0
 30
0
  9
$PUCSORGBOTTOM
 10
0
 20
0
 30
0
  9
$PUCSORGLEFT
 10
0
 20
0
 30
0
  9
$PUCSORGRIGHT
 10
0
 20
0
 30
0
  9
$PUCSORGFRONT
 10
0
 20
0
 30
0
  9
$PUCSORGBACK
 10
0
 20
0
 30
0
  9
$USERI1
 70
    0
  9
$USERI2
 70
    0
  9
$USERI3
 70
    0
  9
$USERI4
 70
    0
  9
$USERI5
 70
    0
  9
$USERR1
 40
0
  9
$USERR2
 40
0
  9
$USERR3
 40
0
  9
$USERR4
 40
0
  9
$USERR5
 40
0
  9
$WORLDVIEW
 70
    1
  9
$SHADEDGE
 70
    3
  9
$SHADEDIF
 70
   70
  9
$TILEMODE
 70
    1
  9
$MAXACTVP
 70
   64
  9
$PINSBASE
 10
0
 20
0
 30
0
  9
$PLIMCHECK
 70
    0
  9
$PEXTMIN
 10
1e+20
 20
1e+20
 30
1e+20
  9
$PEXTMAX
 10
-1e+20
 20
-1e+20
 30
-1e+20
  9
$GRIDMODE
 70
    1
  9
$SNAPSTYLE
 70
    0
  9
$PLIMMIN
 10
0
 20
0
  9
$PLIMMAX
 10
12
 20
9
  9
$UNITMODE
 70
    0
  9
$VISRETAIN
 70
    1
  9
$PLINEGEN
 70
    0
  9
$PSLTSCALE
 70
    1
  9
$TREEDEPTH
 70
 3020
  9
$CMLSTYLE
  2
Standard
  9
$CMLJUST
 70
    0
  9
$CMLSCALE
 40
1
  9
$PROXYGRAPHICS
 70
    1
  9
$MEASUREMENT
 70
    1
  9
$CELWEIGHT
370
   -1
  9
$ENDCAPS
280
    0
  9
$JOINSTYLE
280
    0
  9
$LWDISPLAY
290
    0
  9
$INSUNITS
 70
    4
  9
$HYPERLINKBASE
  1

  9
$STYLESHEET
  1

  9
$XEDIT
290
    1
  9
$CEPSNTYPE
380
    0
  9
$PSTYLEMODE
290
    1
  9
$EXTNAMES
290
    1
  9
$PSVPSCALE
 40
1
  9
$OLESTARTUP
290
    0
  9
$SORTENTS
280
  127
  9
$INDEXCTL
280
    0
  9
$HIDETEXT
280
    1
  9
$XCLIPFRAME
290
    0
  9
$HALOGAP
280
    0
  9
$OBSCOLOR
 70
  257
  9
$OBSLTYPE
280
    0
  9
$INTERSECTIONDISPLAY
280
    0
  9
$INTERSECTIONCOLOR
 70
  257
  9
$DIMASSOC
280
    1
  9
$PROJECTNAME
  1

  9
$CAMERADISPLAY
290
    0
  9
$LENSLENGTH
 40
50
  9
$CAMERAHEIGHT
 40
0
  9
$STEPSPERSEC
 40
2
  9
$STEPSIZE
 40
50
  9
$3DDWFPREC
 40
2
  9
$PSOLWIDTH
 40
5
  9
$PSOLHEIGHT
 40
80
  9
$LOFTANG1
 40
1.570796326794897
  9
$LOFTANG2
 40
1.570796326794897
  9
$LOFTMAG1
 40
0
  9
$LOFTMAG2
 40
0
  9
$LOFTPARAM
 70
    7
  9
$LOFTNORMALS
280
    1
  9
$LATITUDE
 40
1
  9
$LONGITUDE
 40
1
  9
$NORTHDIRECTION
 40
0
  9
$TIMEZONE
 70
-8000
  9
$LIGHTGLYPHDISPLAY
280
    1
  9
$TILEMODELIGHTSYNCH
280
    1
  9
$SOLIDHIST
280
    1
  9
$SHOWHIST
280
    1
  9
$DWFFRAME
280
    2
  9
$DGNFRAME
280
    0
  9
$REALWORLDSCALE
290
    1
  9
$INTERFERECOLOR
 62
    1
  9
$CSHADOW
280
    0
  9
$SHADOWPLANELOCATION
 40
0
  0
ENDSEC
  0
SECTION
  2
CLASSES
  0
ENDSEC
  0
SECTION
  2
TABLES
  0
TABLE
  2
VPORT
  5
8
330
0
100
AcDbSymbolTable
 70
    1
  0
VPORT
  5
31
330
2
100
AcDbSymbolTableRecord
100
AcDbViewportTableRecord
  2
*ACTIVE
 70
    0
 10
0
 20
0
 11
1
 21
1
 12
122.1461796374982
 22
97.58289044635505
 13
0
 23
0
 14
10
 24
10
 15
10
 25
10
 16
0
 26
0
 36
1
 17
0
 27
0
 37
0
 40
149.9030906977947
 41
1.76801683324566
 42
50
 43
0
 44
0
 50
0
 51
0
 71
    0
 72
  100
 73
    1
 74
    3
 75
    0
 76
    1
 77
    0
 78
    0
281
    0
 65
    1
110
0
120
0
130
0
111
1
121
0
131
0
112
0
122
1
132
0
 79
    0
146
0
348
10020
 60
    7
 61
    5
292
1
282
    1
141
0
142
0
 63
  250
421
3358443
  0
ENDTAB
  0
TABLE
  2
LTYPE
  5
5
330
0
100
AcDbSymbolTable
 70
    4
  0
LTYPE
  5
14
330
5
100
AcDbSymbolTableRecord
100
AcDbLinetypeTableRecord
  2
ByBlock
 70
    0
  3

 72
   65
 73
    0
 40
0
  0
LTYPE
  5
15
330
5
100
AcDbSymbolTableRecord
100
AcDbLinetypeTableRecord
  2
ByLayer
 70
    0
  3

 72
   65
 73
    0
 40
0
  0
LTYPE
  5
16
330
5
100
AcDbSymbolTableRecord
100
AcDbLinetypeTableRecord
  2
Continuous
 70
    0
  3
Solid line
 72
   65
 73
    0
 40
0
  0
LTYPE
  5
32
330
5
100
AcDbSymbolTableRecord
100
AcDbLinetypeTableRecord
  2
DOT
 70
    0
  3
Dot . . . . . . . . . . . . . . . . . . . . . .
 72
   65
 73
    2
 40
6.35
 49
0
 74
    0
 49
-6.35
 74
    0
  0
LTYPE
  5
33
330
5
100
AcDbSymbolTableRecord
100
AcDbLinetypeTableRecord
  2
DOTTINY
 70
    0
  3
Dot (.15x) .....................................
 72
   65
 73
    2
 40
0.9525
 49
0
 74
    0
 49
-0.9525
 74
    0
  0
LTYPE
  5
34
330
5
100
AcDbSymbolTableRecord
100
AcDbLinetypeTableRecord
  2
DOT2
 70
    0
  3
Dot (.5x) .....................................
 72
   65
 73
    2
 40
3.175
 49
0
 74
    0
 49
-3.175
 74
    0
  0
LTYPE
  5
35
330
5
100
AcDbSymbolTableRecord
100
AcDbLinetypeTableRecord
  2
DOTX2
 70
    0
  3
Dot (2x) .  .  .  .  .  .  .  .  .  .  .  .  .
 72
   65
 73
    2
 40
12.7
 49
0
 74
    0
 49
-12.7
 74
    0
  0
LTYPE
  5
36
330
5
100
AcDbSymbolTableRecord
100
AcDbLinetypeTableRecord
  2
DASHED
 70
    0
  3
Dashed _ _ _ _ _ _ _ _ _ _ _ _ _ _ _ _ _
 72
   65
 73
    2
 40
19.05
 49
12.7
 74
    0
 49
-6.35
 74
    0
  0
LTYPE
  5
37
330
5
100
AcDbSymbolTableRecord
100
AcDbLinetypeTableRecord
  2
DASHEDTINY
 70
    0
  3
Dashed (.15x) _ _ _ _ _ _ _ _ _ _ _ _ _ _ _ _ _
 72
   65
 73
    2
 40
2.8575
 49
1.905
 74
    0
 49
-0.9525
 74
    0
  0
LTYPE
  5
38
330
5
100
AcDbSymbolTableRecord
100
AcDbLinetypeTableRecord
  2
DASHED2
 70
    0
  3
Dashed (.5x) _ _ _ _ _ _ _ _ _ _ _ _ _ _ _ _ _
 72
   65
 73
    2
 40
9.524999999999999
 49
6.35
 74
    0
 49
-3.175
 74
    0
  0
LTYPE
  5
39
330
5
100
AcDbSymbolTableRecord
100
AcDbLinetypeTableRecord
  2
DASHEDX2
 70
    0
  3
Dashed (2x) ____  ____  ____  ____  ____  ___
 72
   65
 73
    2
 40
38.09999999999999
 49
25.4
 74
    0
 49
-12.7
 74
    0
  0
LTYPE
  5
3A
330
5
100
AcDbSymbolTableRecord
100
AcDbLinetypeTableRecord
  2
DASHDOT
 70
    0
  3
Dash dot __ . __ . __ . __ . __ . __ . __ . __
 72
   65
 73
    4
 40
25.4
 49
12.7
 74
    0
 49
-6.35
 74
    0
 49
0
 74
    0
 49
-6.35
 74
    0
  0
LTYPE
  5
3B
330
5
100
AcDbSymbolTableRecord
100
AcDbLinetypeTableRecord
  2
DASHDOTTINY
 70
    0
  3
Dash dot (.15x) _._._._._._._._._._._._._._._.
 72
   65
 73
    4
 40
3.81
 49
1.905
 74
    0
 49
-0.9525
 74
    0
 49
0
 74
    0
 49
-0.9525
 74
    0
  0
LTYPE
  5
3C
330
5
100
AcDbSymbolTableRecord
100
AcDbLinetypeTableRecord
  2
DASHDOT2
 70
    0
  3
Dash dot (.5x) _._._._._._._._._._._._._._._.
 72
   65
 73
    4
 40
12.7
 49
6.35
 74
    0
 49
-3.175
 74
    0
 49
0
 74
    0
 49
-3.175
 74
    0
  0
LTYPE
  5
3D
330
5
100
AcDbSymbolTableRecord
100
AcDbLinetypeTableRecord
  2
DASHDOTX2
 70
    0
  3
Dash dot (2x) ____  .  ____  .  ____  .  ___
 72
   65
 73
    4
 40
50.8
 49
25.4
 74
    0
 49
-12.7
 74
    0
 49
0
 74
    0
 49
-12.7
 74
    0
  0
LTYPE
  5
3E
330
5
100
AcDbSymbolTableRecord
100
AcDbLinetypeTableRecord
  2
DIVIDE
 70
    0
  3
Divide ____ . . ____ . . ____ . . ____ . . ____
 72
   65
 73
    6
 40
31.75
 49
12.7
 74
    0
 49
-6.35
 74
    0
 49
0
 74
    0
 49
-6.35
 74
    0
 49
0
 74
    0
 49
-6.35
 74
    0
  0
LTYPE
  5
3F
330
5
100
AcDbSymbolTableRecord
100
AcDbLinetypeTableRecord
  2
DIVIDETINY
 70
    0
  3
Divide (.15x) __..__..__..__..__..__..__..__.._
 72
   65
 73
    6
 40
4.7625
 49
1.905
 74
    0
 49
-0.9525
 74
    0
 49
0
 74
    0
 49
-0.9525
 74
    0
 49
0
 74
    0
 49
-0.9525
 74
    0
  0
LTYPE
  5
40
330
5
100
AcDbSymbolTableRecord
100
AcDbLinetypeTableRecord
  2
DIVIDE2
 70
    0
  3
Divide (.5x) __..__..__..__..__..__..__..__.._
 72
   65
 73
    6
 40
15.875
 49
6.35
 74
    0
 49
-3.175
 74
    0
 49
0
 74
    0
 49
-3.175
 74
    0
 49
0
 74
    0
 49
-3.175
 74
    0
  0
LTYPE
  5
41
330
5
100
AcDbSymbolTableRecord
100
AcDbLinetypeTableRecord
  2
DIVIDEX2
 70
    0
  3
Divide (2x) ________  .  .  ________  .  .  _
 72
   65
 73
    6
 40
63.5
 49
25.4
 74
    0
 49
-12.7
 74
    0
 49
0
 74
    0
 49
-12.7
 74
    0
 49
0
 74
    0
 49
-12.7
 74
    0
  0
LTYPE
  5
42
330
5
100
AcDbSymbolTableRecord
100
AcDbLinetypeTableRecord
  2
BORDER
 70
    0
  3
Border __ __ . __ __ . __ __ . __ __ . __ __ .
 72
   65
 73
    6
 40
44.45
 49
12.7
 74
    0
 49
-6.35
 74
    0
 49
12.7
 74
    0
 49
-6.35
 74
    0
 49
0
 74
    0
 49
-6.35
 74
    0
  0
LTYPE
  5
43
330
5
100
AcDbSymbolTableRecord
100
AcDbLinetypeTableRecord
  2
BORDERTINY
 70
    0
  3
Border (.15x) __.__.__.__.__.__.__.__.__.__.__.
 72
   65
 73
    6
 40
6.6675
 49
1.905
 74
    0
 49
-0.9525
 74
    0
 49
1.905
 74
    0
 49
-0.9525
 74
    0
 49
0
 74
    0
 49
-0.9525
 74
    0
  0
LTYPE
  5
44
330
5
100
AcDbSymbolTableRecord
100
AcDbLinetypeTableRecord
  2
BORDER2
 70
    0
  3
Border (.5x) __.__.__.__.__.__.__.__.__.__.__.
 72
   65
 73
    6
 40
22.225
 49
6.35
 74
    0
 49
-3.175
 74
    0
 49
6.35
 74
    0
 49
-3.175
 74
    0
 49
0
 74
    0
 49
-3.175
 74
    0
  0
LTYPE
  5
45
330
5
100
AcDbSymbolTableRecord
100
AcDbLinetypeTableRecord
  2
BORDERX2
 70
    0
  3
Border (2x) ____  ____  .  ____  ____  .  ___
 72
   65
 73
    6
 40
88.89999999999999
 49
25.4
 74
    0
 49
-12.7
 74
    0
 49
25.4
 74
    0
 49
-12.7
 74
    0
 49
0
 74
    0
 49
-12.7
 74
    0
  0
LTYPE
  5
46
330
5
100
AcDbSymbolTableRecord
100
AcDbLinetypeTableRecord
  2
CENTER
 70
    0
  3
Center ____ _ ____ _ ____ _ ____ _ ____ _ ____
 72
   65
 73
    4
 40
50.8
 49
31.75
 74
    0
 49
-6.35
 74
    0
 49
6.35
 74
    0
 49
-6.35
 74
    0
  0
LTYPE
  5
47
330
5
100
AcDbSymbolTableRecord
100
AcDbLinetypeTableRecord
  2
CENTERTINY
 70
    0
  3
Center (.15x) ___ _ ___ _ ___ _ ___ _ ___ _ ___
 72
   65
 73
    4
 40
7.619999999999999
 49
4.7625
 74
    0
 49
-0.9525
 74
    0
 49
0.9525
 74
    0
 49
-0.9525
 74
    0
  0
LTYPE
  5
48
330
5
100
AcDbSymbolTableRecord
100
AcDbLinetypeTableRecord
  2
CENTER2
 70
    0
  3
Center (.5x) ___ _ ___ _ ___ _ ___ _ ___ _ ___
 72
   65
 73
    4
 40
28.575
 49
19.05
 74
    0
 49
-3.175
 74
    0
 49
3.175
 74
    0
 49
-3.175
 74
    0
  0
LTYPE
  5
49
330
5
100
AcDbSymbolTableRecord
100
AcDbLinetypeTableRecord
  2
CENTERX2
 70
    0
  3
Center (2x) ________  __  ________  __  _____
 72
   65
 73
    4
 40
101.6
 49
63.5
 74
    0
 49
-12.7
 74
    0
 49
12.7
 74
    0
 49
-12.7
 74
    0
  0
ENDTAB
  0
TABLE
  2
LAYER
  5
2
330
0
100
AcDbSymbolTable
 70
    1
  0
LAYER
  5
10
330
2
100
AcDbSymbolTableRecord
100
AcDbLayerTableRecord
  2
0
 70
    0
 62
  255
  6
CONTINUOUS
370
   25
390
F
  0
LAYER
  5
4A
330
2
100
AcDbSymbolTableRecord
100
AcDbLayerTableRecord
  2
BLACK
 70
    0
 62
    1
  6
CONTINUOUS
370
   -3
390
F
  0
LAYER
  5
4B
330
2
100
AcDbSymbolTableRecord
100
AcDbLayerTableRecord
  2
Layer 1
 70
    0
 62
  255
  6
CONTINUOUS
370
   -3
390
F
  0
LAYER
  5
4C
330
2
100
AcDbSymbolTableRecord
100
AcDbLayerTableRecord
  2
WHITE
 70
    0
 62
   16
  6
CONTINUOUS
370
   -3
390
F
  0
ENDTAB
  0
TABLE
  2
STYLE
  5
3
330
0
100
AcDbSymbolTable
 70
    3
  0
STYLE
  5
4D
330
2
100
AcDbSymbolTableRecord
100
AcDbTextStyleTableRecord
  2
Standard
 70
    0
 40
0
 41
1
 50
0
 71
    0
 42
1
  3
txt
  4

  0
ENDTAB
  0
TABLE
  2
VIEW
  5
6
330
0
100
AcDbSymbolTable
 70
    0
  0
ENDTAB
  0
TABLE
  2
UCS
  5
7
330
0
100
AcDbSymbolTable
 70
    0
  0
ENDTAB
  0
TABLE
  2
APPID
  5
9
330
0
100
AcDbSymbolTable
 70
    1
  0
APPID
  5
12
330
9
100
AcDbSymbolTableRecord
100
AcDbRegAppTableRecord
  2
ACAD
 70
    0
  0
APPID
  5
4E
330
9
100
AcDbSymbolTableRecord
100
AcDbRegAppTableRecord
  2
LibreCad
 70
    0
  0
ENDTAB
  0
TABLE
  2
DIMSTYLE
  5
A
330
0
100
AcDbSymbolTable
 70
    1
100
AcDbDimStyleTable
 71
    1
  0
DIMSTYLE
105
4F
330
A
100
AcDbSymbolTableRecord
100
AcDbDimStyleTableRecord
  2
Standard
 70
    0
 40
1
 41
2.5
 42
0.625
 43
0.38
 44
1.25
 45
0
 46
0
 47
0
 48
0
 49
1
140
2.5
141
0.09
142
0
143
25.4
144
1
145
0
146
1
147
0.625
148
0
 71
    0
 72
    0
 73
    1
 74
    1
 75
    0
 76
    0
 77
    0
 78
    8
 79
    2
170
    0
171
    2
172
    0
173
    0
174
    0
175
    0
176
   18
177
   18
178
   18
179
    0
271
    2
272
    4
273
    2
274
    2
275
    0
276
    0
277
    2
278
   46
279
    0
280
    0
281
    0
282
    0
283
    1
284
    0
285
    0
286
    0
288
    0
289
    3
340
Standard
341

371
   -2
372
   -2
  0
ENDTAB
  0
TABLE
  2
BLOCK_RECORD
  5
1
330
0
100
AcDbSymbolTable
 70
    2
  0
BLOCK_RECORD
  5
1F
330
1
100
AcDbSymbolTableRecord
100
AcDbBlockTableRecord
  2
*Model_Space
 70
    0
280
    1
281
    0
  0
BLOCK_RECORD
  5
1E
330
1
100
AcDbSymbolTableRecord
100
AcDbBlockTableRecord
  2
*Paper_Space
 70
    0
280
    1
281
    0
  0
ENDTAB
  0
ENDSEC
  0
SECTION
  2
BLOCKS
  0
BLOCK
  5
20
330
1F
100
AcDbEntity
  8
0
100
AcDbBlockBegin
  2
*Model_Space
 70
    0
 10
0
 20
0
 30
0
  3
*Model_Space
  1

  0
ENDBLK
  5
21
330
1F
100
AcDbEntity
  8
0
100
AcDbBlockEnd
  0
BLOCK
  5
1C
330
1B
100
AcDbEntity
  8
0
100
AcDbBlockBegin
  2
*Paper_Space
 70
    0
 10
0
 20
0
 30
0
  3
*Paper_Space
  1

  0
ENDBLK
  5
1D
330
1F
100
AcDbEntity
  8
0
100
AcDbBlockEnd
  0
ENDSEC
  0
SECTION
  2
ENTITIES
  0
LINE
  5
50
100
AcDbEntity
  8
0
  6
ByLayer
 62
    1
370
   -1
100
AcDbLine
 10
169.4028455193185
 20
148.9508969133435
 11
155.4328455193185
 21
148.9508969133435
  0
LINE
  5
51
100
AcDbEntity
  8
0
  6
ByLayer
 62
    1
370
   -1
100
AcDbLine
 10
155.4328455193185
 20
148.9508969133435
 11
155.4328455193185
 21
147.9704569133435
  0
LINE
  5
52
100
AcDbEntity
  8
0
  6
ByLayer
 62
    1
370
   -1
100
AcDbLine
 10
155.4328455193185
 20
147.9704569133435
 11
154.6200455193185
 21
147.9704569133434
  0
LINE
  5
53
100
AcDbEntity
  8
0
  6
ByLayer
 62
    1
370
   -1
100
AcDbLine
 10
154.6200455193185
 20
147.9704569133434
 11
154.6200455193185
 21
144.4703369133434
  0
LINE
  5
54
100
AcDbEntity
  8
0
  6
ByLayer
 62
    1
370
   -1
100
AcDbLine
 10
154.6200455193185
 20
144.4703369133434
 11
155.4328455193185
 21
144.4703369133435
  0
LINE
  5
55
100
AcDbEntity
  8
0
  6
ByLayer
 62
    1
370
   -1
100
AcDbLine
 10
155.4328455193185
 20
144.4703369133435
 11
155.4328455193185
 21
139.4614569133435
  0
LINE
  5
56
100
AcDbEntity
  8
0
  6
ByLayer
 62
    1
370
   -1
100
AcDbLine
 10
155.4328455193185
 20
139.4614569133435
 11
154.6200455193185
 21
139.4614569133435
  0
LINE
  5
57
100
AcDbEntity
  8
0
  6
ByLayer
 62
    1
370
   -1
100
AcDbLine
 10
154.6200455193185
 20
139.4614569133435
 11
154.6200455193185
 21
135.9613369133434
  0
LINE
  5
58
100
AcDbEntity
  8
0
  6
ByLayer
 62
    1
370
   -1
100
AcDbLine
 10
154.6200455193185
 20
135.9613369133434
 11
155.4328455193185
 21
135.9613369133434
  0
LINE
  5
59
100
AcDbEntity
  8
0
  6
ByLayer
 62
    1
370
   -1
100
AcDbLine
 10
155.4328455193185
 20
135.9613369133434
 11
155.4328455193185
 21
134.9808969133434
  0
LINE
  5
5A
100
AcDbEntity
  8
0
  6
ByLayer
 62
    1
370
   -1
100
AcDbLine
 10
155.4328455193185
 20
134.9808969133434
 11
169.4028455193185
 21
134.9808969133434
  0
LINE
  5
5B
100
AcDbEntity
  8
0
  6
ByLayer
 62
    1
370
   -1
100
AcDbLine
 10
169.4028455193185
 20
134.9808969133434
 11
169.4028455193185
 21
135.9613369133435
  0
LINE
  5
5C
100
AcDbEntity
  8
0
  6
ByLayer
 62
    1
370
   -1
100
AcDbLine
 10
169.4028455193185
 20
135.9613369133435
 11
170.2156455193185
 21
135.9613369133434
  0
LINE
  5
5D
100
AcDbEntity
  8
0
  6
ByLayer
 62
    1
370
   -1
100
AcDbLine
 10
170.2156455193185
 20
135.9613369133434
 11
170.2156455193185
 21
139.4614569133435
  0
LINE
  5
5E
100
AcDbEntity
  8
0
  6
ByLayer
 62
    1
370
   -1
100
AcDbLine
 10
170.2156455193185
 20
139.4614569133435
 11
169.4028455193185
 21
139.4614569133435
  0
LINE
  5
5F
100
AcDbEntity
  8
0
  6
ByLayer
 62
    1
370
   -1
100
AcDbLine
 10
169.4028455193185
 20
139.4614569133435
 11
169.4028455193185
 21
144.4703369133434
  0
LINE
  5
60
100
AcDbEntity
  8
0
  6
ByLayer
 62
    1
370
   -1
100
AcDbLine
 10
169.4028455193185
 20
144.4703369133434
 11
170.2156455193185
 21
144.4703369133434
  0
LINE
  5
61
100
AcDbEntity
  8
0
  6
ByLayer
 62
    1
370
   -1
100
AcDbLine
 10
170.2156455193185
 20
144.4703369133434
 11
170.2156455193185
 21
147.9704569133434
  0
LINE
  5
62
100
AcDbEntity
  8
0
  6
ByLayer
 62
    1
370
   -1
100
AcDbLine
 10
170.2156455193185
 20
147.9704569133434
 11
169.4028455193185
 21
147.9704569133434
  0
LINE
  5
63
100
AcDbEntity
  8
0
  6
ByLayer
 62
    1
370
   -1
100
AcDbLine
 10
169.4028455193185
 20
147.9704569133434
 11
169.4028455193185
 21
148.9508969133435
  0
LINE
  5
64
100
AcDbEntity
  8
0
  6
ByLayer
 62
    1
370
   -1
100
AcDbLine
 10
169.4028455193185
 20
111.1709369133435
 11
169.4028455193185
 21
125.1409369133435
  0
LINE
  5
65
100
AcDbEntity
  8
0
  6
ByLayer
 62
    1
370
   -1
100
AcDbLine
 10
169.4028455193185
 20
125.1409369133435
 11
168.4224055193185
 21
125.1409369133435
  0
LINE
  5
66
100
AcDbEntity
  8
0
  6
ByLayer
 62
    1
370
   -1
100
AcDbLine
 10
168.4224055193185
 20
125.1409369133435
 11
168.4224055193185
 21
125.9537369133435
  0
LINE
  5
67
100
AcDbEntity
  8
0
  6
ByLayer
 62
    1
370
   -1
100
AcDbLine
 10
168.4224055193185
 20
125.9537369133435
 11
164.9222855193185
 21
125.9537369133434
  0
LINE
  5
68
100
AcDbEntity
  8
0
  6
ByLayer
 62
    1
370
   -1
100
AcDbLine
 10
164.9222855193185
 20
125.9537369133434
 11
164.9222855193185
 21
125.1409369133434
  0
LINE
  5
69
100
AcDbEntity
  8
0
  6
ByLayer
 62
    1
370
   -1
100
AcDbLine
 10
164.9222855193185
 20
125.1409369133434
 11
159.9134055193185
 21
125.1409369133434
  0
LINE
  5
6A
100
AcDbEntity
  8
0
  6
ByLayer
 62
    1
370
   -1
100
AcDbLine
 10
159.9134055193185
 20
125.1409369133434
 11
159.9134055193185
 21
125.9537369133435
  0
LINE
  5
6B
100
AcDbEntity
  8
0
  6
ByLayer
 62
    1
370
   -1
100
AcDbLine
 10
159.9134055193185
 20
125.9537369133435
 11
156.4132855193185
 21
125.9537369133435
  0
LINE
  5
6C
100
AcDbEntity
  8
0
  6
ByLayer
 62
    1
370
   -1
100
AcDbLine
 10
156.4132855193185
 20
125.9537369133435
 11
156.4132855193185
 21
125.1409369133434
  0
LINE
  5
6D
100
AcDbEntity
  8
0
  6
ByLayer
 62
    1
370
   -1
100
AcDbLine
 10
156.4132855193185
 20
125.1409369133434
 11
155.4328455193185
 21
125.1409369133435
  0
LINE
  5
6E
100
AcDbEntity
  8
0
  6
ByLayer
 62
    1
370
   -1
100
AcDbLine
 10
155.4328455193185
 20
125.1409369133435
 11
155.4328455193185
 21
111.1709369133435
  0
LINE
  5
6F
100
AcDbEntity
  8
0
  6
ByLayer
 62
    1
370
   -1
100
AcDbLine
 10
155.4328455193185
 20
111.1709369133435
 11
156.4132855193186
 21
111.1709369133435
  0
LINE
  5
70
100
AcDbEntity
  8
0
  6
ByLayer
 62
    1
370
   -1
100
AcDbLine
 10
156.4132855193186
 20
111.1709369133435
 11
156.4132855193185
 21
110.3581369133435
  0
LINE
  5
71
100
AcDbEntity
  8
0
  6
ByLayer
 62
    1
370
   -1
100
AcDbLine
 10
156.4132855193185
 20
110.3581369133435
 11
159.9134055193185
 21
110.3581369133435
  0
LINE
  5
72
100
AcDbEntity
  8
0
  6
ByLayer
 62
    1
370
   -1
100
AcDbLine
 10
159.9134055193185
 20
110.3581369133435
 11
159.9134055193185
 21
111.1709369133435
  0
LINE
  5
73
100
AcDbEntity
  8
0
  6
ByLayer
 62
    1
370
   -1
100
AcDbLine
 10
159.9134055193185
 20
111.1709369133435
 11
164.9222855193185
 21
111.1709369133435
  0
LINE
  5
74
100
AcDbEntity
  8
0
  6
ByLayer
 62
    1
370
   -1
100
AcDbLine
 10
164.9222855193185
 20
111.1709369133435
 11
164.9222855193185
 21
110.3581369133435
  0
LINE
  5
75
100
AcDbEntity
  8
0
  6
ByLayer
 62
    1
370
   -1
100
AcDbLine
 10
164.9222855193185
 20
110.3581369133435
 11
168.4224055193185
 21
110.3581369133434
  0
LINE
  5
76
100
AcDbEntity
  8
0
  6
ByLayer
 62
    1
370
   -1
100
AcDbLine
 10
168.4224055193185
 20
110.3581369133434
 11
168.4224055193185
 21
111.1709369133435
  0
LINE
  5
77
100
AcDbEntity
  8
0
  6
ByLayer
 62
    1
370
   -1
100
AcDbLine
 10
168.4224055193185
 20
111.1709369133435
 11
169.4028455193185
 21
111.1709369133435
  0
LINE
  5
78
100
AcDbEntity
  8
0
  6
ByLayer
 62
    1
370
   -1
100
AcDbLine
 10
169.4028455193185
 20
82.59593691334345
 11
169.4028455193185
 21
96.56593691334352
  0
LINE
  5
79
100
AcDbEntity
  8
0
  6
ByLayer
 62
    1
370
   -1
100
AcDbLine
 10
169.4028455193185
 20
96.56593691334352
 11
168.4224055193185
 21
96.56593691334352
  0
LINE
  5
7A
100
AcDbEntity
  8
0
  6
ByLayer
 62
    1
370
   -1
100
AcDbLine
 10
168.4224055193185
 20
96.56593691334352
 11
168.4224055193185
 21
97.37873691334352
  0
LINE
  5
7B
100
AcDbEntity
  8
0
  6
ByLayer
 62
    1
370
   -1
100
AcDbLine
 10
168.4224055193185
 20
97.37873691334352
 11
164.9222855193185
 21
97.37873691334342
  0
LINE
  5
7C
100
AcDbEntity
  8
0
  6
ByLayer
 62
    1
370
   -1
100
AcDbLine
 10
164.9222855193185
 20
97.37873691334342
 11
164.9222855193185
 21
96.56593691334342
  0
LINE
  5
7D
100
AcDbEntity
  8
0
  6
ByLayer
 62
    1
370
   -1
100
AcDbLine
 10
164.9222855193185
 20
96.56593691334342
 11
159.9134055193185
 21
96.56593691334352
  0
LINE
  5
7E
100
AcDbEntity
  8
0
  6
ByLayer
 62
    1
370
   -1
100
AcDbLine
 10
159.9134055193185
 20
96.56593691334352
 11
159.9134055193185
 21
97.37873691334352
  0
LINE
  5
7F
100
AcDbEntity
  8
0
  6
ByLayer
 62
    1
370
   -1
100
AcDbLine
 10
159.9134055193185
 20
97.37873691334352
 11
156.4132855193185
 21
97.37873691334352
  0
LINE
  5
80
100
AcDbEntity
  8
0
  6
ByLayer
 62
    1
370
   -1
100
AcDbLine
 10
156.4132855193185
 20
97.37873691334352
 11
156.4132855193185
 21
96.56593691334352
  0
LINE
  5
81
100
AcDbEntity
  8
0
  6
ByLayer
 62
    1
370
   -1
100
AcDbLine
 10
156.4132855193185
 20
96.56593691334352
 11
155.4328455193185
 21
96.56593691334352
  0
LINE
  5
82
100
AcDbEntity
  8
0
  6
ByLayer
 62
    1
370
   -1
100
AcDbLine
 10
155.4328455193185
 20
96.56593691334352
 11
155.4328455193185
 21
82.59593691334351
  0
LINE
  5
83
100
AcDbEntity
  8
0
  6
ByLayer
 62
    1
370
   -1
100
AcDbLine
 10
155.4328455193185
 20
82.59593691334351
 11
156.4132855193185
 21
82.59593691334354
  0
LINE
  5
84
100
AcDbEntity
  8
0
  6
ByLayer
 62
    1
370
   -1
100
AcDbLine
 10
156.4132855193185
 20
82.59593691334354
 11
156.4132855193185
 21
81.7831369133435
  0
LINE
  5
85
100
AcDbEntity
  8
0
  6
ByLayer
 62
    1
370
   -1
100
AcDbLine
 10
156.4132855193185
 20
81.7831369133435
 11
159.9134055193185
 21
81.78313691334353
  0
LINE
  5
86
100
AcDbEntity
  8
0
  6
ByLayer
 62
    1
370
   -1
100
AcDbLine
 10
159.9134055193185
 20
81.78313691334353
 11
159.9134055193185
 21
82.59593691334351
  0
LINE
  5
87
100
AcDbEntity
  8
0
  6
ByLayer
 62
    1
370
   -1
100
AcDbLine
 10
159.9134055193185
 20
82.59593691334351
 11
164.9222855193185
 21
82.59593691334342
  0
LINE
  5
88
100
AcDbEntity
  8
0
  6
ByLayer
 62
    1
370
   -1
100
AcDbLine
 10
164.9222855193185
 20
82.59593691334342
 11
164.9222855193185
 21
81.7831369133435
  0
LINE
  5
89
100
AcDbEntity
  8
0
  6
ByLayer
 62
    1
370
   -1
100
AcDbLine
 10
164.9222855193185
 20
81.7831369133435
 11
168.4224055193185
 21
81.78313691334347
  0
LINE
  5
8A
100
AcDbEntity
  8
0
  6
ByLayer
 62
    1
370
   -1
100
AcDbLine
 10
168.4224055193185
 20
81.78313691334347
 11
168.4224055193185
 21
82.59593691334345
  0
LINE
  5
8B
100
AcDbEntity
  8
0
  6
ByLayer
 62
    1
370
   -1
100
AcDbLine
 10
168.4224055193185
 20
82.59593691334345
 11
169.4028455193185
 21
82.59593691334345
  0
LINE
  5
8C
100
AcDbEntity
  8
0
  6
ByLayer
 62
    1
370
   -1
100
AcDbLine
 10
55.10284551931852
 20
70.84843691334362
 11
41.13284551931849
 21
70.84843691334333
  0
LINE
  5
8D
100
AcDbEntity
  8
0
  6
ByLayer
 62
    1
370
   -1
100
AcDbLine
 10
41.13284551931849
 20
70.84843691334333
 11
41.13284551931849
 21
69.8679969133436
  0
LINE
  5
8E
100
AcDbEntity
  8
0
  6
ByLayer
 62
    1
370
   -1
100
AcDbLine
 10
41.13284551931849
 20
69.8679969133436
 11
40.32004551931857
 21
69.86799691334377
  0
LINE
  5
8F
100
AcDbEntity
  8
0
  6
ByLayer
 62
    1
370
   -1
100
AcDbLine
 10
40.32004551931857
 20
69.86799691334377
 11
40.32004551931857
 21
66.3678769133432
  0
LINE
  5
90
100
AcDbEntity
  8
0
  6
ByLayer
 62
    1
370
   -1
100
AcDbLine
 10
40.32004551931857
 20
66.3678769133432
 11
41.13284551931849
 21
66.36787691334357
  0
LINE
  5
91
100
AcDbEntity
  8
0
  6
ByLayer
 62
    1
370
   -1
100
AcDbLine
 10
41.13284551931849
 20
66.36787691334357
 11
41.13284551931849
 21
61.35899691334347
  0
LINE
  5
92
100
AcDbEntity
  8
0
  6
ByLayer
 62
    1
370
   -1
100
AcDbLine
 10
41.13284551931849
 20
61.35899691334347
 11
40.32004551931857
 21
61.35899691334396
  0
LINE
  5
93
100
AcDbEntity
  8
0
  6
ByLayer
 62
    1
370
   -1
100
AcDbLine
 10
40.32004551931857
 20
61.35899691334396
 11
40.32004551931857
 21
57.85887691334349
  0
LINE
  5
94
100
AcDbEntity
  8
0
  6
ByLayer
 62
    1
370
   -1
100
AcDbLine
 10
40.32004551931857
 20
57.85887691334349
 11
41.13284551931849
 21
57.85887691334395
  0
LINE
  5
95
100
AcDbEntity
  8
0
  6
ByLayer
 62
    1
370
   -1
100
AcDbLine
 10
41.13284551931849
 20
57.85887691334395
 11
41.13284551931849
 21
56.87843691334319
  0
LINE
  5
96
100
AcDbEntity
  8
0
  6
ByLayer
 62
    1
370
   -1
100
AcDbLine
 10
41.13284551931849
 20
56.87843691334319
 11
55.10284551931852
 21
56.87843691334339
  0
LINE
  5
97
100
AcDbEntity
  8
0
  6
ByLayer
 62
    1
370
   -1
100
AcDbLine
 10
55.10284551931852
 20
56.87843691334339
 11
55.10284551931852
 21
57.85887691334386
  0
LINE
  5
98
100
AcDbEntity
  8
0
  6
ByLayer
 62
    1
370
   -1
100
AcDbLine
 10
55.10284551931852
 20
57.85887691334386
 11
55.91564551931856
 21
57.85887691334347
  0
LINE
  5
99
100
AcDbEntity
  8
0
  6
ByLayer
 62
    1
370
   -1
100
AcDbLine
 10
55.91564551931856
 20
57.85887691334347
 11
55.91564551931856
 21
61.35899691334342
  0
LINE
  5
9A
100
AcDbEntity
  8
0
  6
ByLayer
 62
    1
370
   -1
100
AcDbLine
 10
55.91564551931856
 20
61.35899691334342
 11
55.10284551931852
 21
61.35899691334382
  0
LINE
  5
9B
100
AcDbEntity
  8
0
  6
ByLayer
 62
    1
370
   -1
100
AcDbLine
 10
55.10284551931852
 20
61.35899691334382
 11
55.10284551931852
 21
66.36787691334371
  0
LINE
  5
9C
100
AcDbEntity
  8
0
  6
ByLayer
 62
    1
370
   -1
100
AcDbLine
 10
55.10284551931852
 20
66.36787691334371
 11
55.91564551931856
 21
66.36787691334359
  0
LINE
  5
9D
100
AcDbEntity
  8
0
  6
ByLayer
 62
    1
370
   -1
100
AcDbLine
 10
55.91564551931856
 20
66.36787691334359
 11
55.91564551931856
 21
69.86799691334355
  0
LINE
  5
9E
100
AcDbEntity
  8
0
  6
ByLayer
 62
    1
370
   -1
100
AcDbLine
 10
55.91564551931856
 20
69.86799691334355
 11
55.10284551931852
 21
69.86799691334375
  0
LINE
  5
9F
100
AcDbEntity
  8
0
  6
ByLayer
 62
    1
370
   -1
100
AcDbLine
 10
55.10284551931852
 20
69.86799691334375
 11
55.10284551931852
 21
70.84843691334362
  0
LINE
  5
A0
100
AcDbEntity
  8
0
  6
ByLayer
 62
    1
370
   -1
100
AcDbLine
 10
150.3528455193185
 20
129.9034369133435
 11
136.3828455193186
 21
129.9034369133435
  0
LINE
  5
A1
100
AcDbEntity
  8
0
  6
ByLayer
 62
    1
370
   -1
100
AcDbLine
 10
136.3828455193186
 20
129.9034369133435
 11
136.3828455193186
 21
128.9229969133435
  0
LINE
  5
A2
100
AcDbEntity
  8
0
  6
ByLayer
 62
    1
370
   -1
100
AcDbLine
 10
136.3828455193186
 20
128.9229969133435
 11
135.5700455193185
 21
128.9229969133434
  0
LINE
  5
A3
100
AcDbEntity
  8
0
  6
ByLayer
 62
    1
370
   -1
100
AcDbLine
 10
135.5700455193185
 20
128.9229969133434
 11
135.5700455193185
 21
125.4228769133435
  0
LINE
  5
A4
100
AcDbEntity
  8
0
  6
ByLayer
 62
    1
370
   -1
100
AcDbLine
 10
135.5700455193185
 20
125.4228769133435
 11
136.3828455193186
 21
125.4228769133435
  0
LINE
  5
A5
100
AcDbEntity
  8
0
  6
ByLayer
 62
    1
370
   -1
100
AcDbLine
 10
136.3828455193186
 20
125.4228769133435
 11
136.3828455193186
 21
120.4139969133435
  0
LINE
  5
A6
100
AcDbEntity
  8
0
  6
ByLayer
 62
    1
370
   -1
100
AcDbLine
 10
136.3828455193186
 20
120.4139969133435
 11
135.5700455193185
 21
120.4139969133434
  0
LINE
  5
A7
100
AcDbEntity
  8
0
  6
ByLayer
 62
    1
370
   -1
100
AcDbLine
 10
135.5700455193185
 20
120.4139969133434
 11
135.5700455193185
 21
116.9138769133435
  0
LINE
  5
A8
100
AcDbEntity
  8
0
  6
ByLayer
 62
    1
370
   -1
100
AcDbLine
 10
135.5700455193185
 20
116.9138769133435
 11
136.3828455193186
 21
116.9138769133435
  0
LINE
  5
A9
100
AcDbEntity
  8
0
  6
ByLayer
 62
    1
370
   -1
100
AcDbLine
 10
136.3828455193186
 20
116.9138769133435
 11
136.3828455193186
 21
115.9334369133434
  0
LINE
  5
AA
100
AcDbEntity
  8
0
  6
ByLayer
 62
    1
370
   -1
100
AcDbLine
 10
136.3828455193186
 20
115.9334369133434
 11
150.3528455193185
 21
115.9334369133434
  0
LINE
  5
AB
100
AcDbEntity
  8
0
  6
ByLayer
 62
    1
370
   -1
100
AcDbLine
 10
150.3528455193185
 20
115.9334369133434
 11
150.3528455193185
 21
116.9138769133435
  0
LINE
  5
AC
100
AcDbEntity
  8
0
  6
ByLayer
 62
    1
370
   -1
100
AcDbLine
 10
150.3528455193185
 20
116.9138769133435
 11
151.1656455193185
 21
116.9138769133435
  0
LINE
  5
AD
100
AcDbEntity
  8
0
  6
ByLayer
 62
    1
370
   -1
100
AcDbLine
 10
151.1656455193185
 20
116.9138769133435
 11
151.1656455193185
 21
120.4139969133435
  0
LINE
  5
AE
100
AcDbEntity
  8
0
  6
ByLayer
 62
    1
370
   -1
100
AcDbLine
 10
151.1656455193185
 20
120.4139969133435
 11
150.3528455193185
 21
120.4139969133435
  0
LINE
  5
AF
100
AcDbEntity
  8
0
  6
ByLayer
 62
    1
370
   -1
100
AcDbLine
 10
150.3528455193185
 20
120.4139969133435
 11
150.3528455193185
 21
125.4228769133435
  0
LINE
  5
B0
100
AcDbEntity
  8
0
  6
ByLayer
 62
    1
370
   -1
100
AcDbLine
 10
150.3528455193185
 20
125.4228769133435
 11
151.1656455193185
 21
125.4228769133435
  0
LINE
  5
B1
100
AcDbEntity
  8
0
  6
ByLayer
 62
    1
370
   -1
100
AcDbLine
 10
151.1656455193185
 20
125.4228769133435
 11
151.1656455193185
 21
128.9229969133434
  0
LINE
  5
B2
100
AcDbEntity
  8
0
  6
ByLayer
 62
    1
370
   -1
100
AcDbLine
 10
151.1656455193185
 20
128.9229969133434
 11
150.3528455193185
 21
128.9229969133434
  0
LINE
  5
B3
100
AcDbEntity
  8
0
  6
ByLayer
 62
    1
370
   -1
100
AcDbLine
 10
150.3528455193185
 20
128.9229969133434
 11
150.3528455193185
 21
129.9034369133435
  0
LINE
  5
B4
100
AcDbEntity
  8
0
  6
ByLayer
 62
    1
370
   -1
100
AcDbLine
 10
201.3433455193185
 20
49.91121691334339
 11
188.6814455193185
 21
55.81671691334341
  0
LINE
  5
B5
100
AcDbEntity
  8
0
  6
ByLayer
 62
    1
370
   -1
100
AcDbLine
 10
188.6814455193185
 20
55.81671691334341
 11
188.2674255193185
 21
54.92771691334352
  0
LINE
  5
B6
100
AcDbEntity
  8
0
  6
ByLayer
 62
    1
370
   -1
100
AcDbLine
 10
188.2674255193185
 20
54.92771691334352
 11
187.5308255193185
 21
55.27061691334347
  0
LINE
  5
B7
100
AcDbEntity
  8
0
  6
ByLayer
 62
    1
370
   -1
100
AcDbLine
 10
187.5308255193185
 20
55.27061691334347
 11
186.0500055193185
 21
52.09815691334344
  0
LINE
  5
B8
100
AcDbEntity
  8
0
  6
ByLayer
 62
    1
370
   -1
100
AcDbLine
 10
186.0500055193185
 20
52.09815691334344
 11
186.7866055193185
 21
51.75525691334349
  0
LINE
  5
B9
100
AcDbEntity
  8
0
  6
ByLayer
 62
    1
370
   -1
100
AcDbLine
 10
186.7866055193185
 20
51.75525691334349
 11
184.6707855193185
 21
47.21627691334358
  0
LINE
  5
BA
100
AcDbEntity
  8
0
  6
ByLayer
 62
    1
370
   -1
100
AcDbLine
 10
184.6707855193185
 20
47.21627691334358
 11
183.9341855193185
 21
47.55917691334339
  0
LINE
  5
BB
100
AcDbEntity
  8
0
  6
ByLayer
 62
    1
370
   -1
100
AcDbLine
 10
183.9341855193185
 20
47.55917691334339
 11
182.4559055193185
 21
44.38671691334299
  0
LINE
  5
BC
100
AcDbEntity
  8
0
  6
ByLayer
 62
    1
370
   -1
100
AcDbLine
 10
182.4559055193185
 20
44.38671691334299
 11
183.1925055193185
 21
44.04381691334338
  0
LINE
  5
BD
100
AcDbEntity
  8
0
  6
ByLayer
 62
    1
370
   -1
100
AcDbLine
 10
183.1925055193185
 20
44.04381691334338
 11
182.7759455193185
 21
43.1548169133431
  0
LINE
  5
BE
100
AcDbEntity
  8
0
  6
ByLayer
 62
    1
370
   -1
100
AcDbLine
 10
182.7759455193185
 20
43.1548169133431
 11
195.4378455193185
 21
37.24931691334364
  0
LINE
  5
BF
100
AcDbEntity
  8
0
  6
ByLayer
 62
    1
370
   -1
100
AcDbLine
 10
195.4378455193185
 20
37.24931691334364
 11
195.8518655193185
 21
38.13831691334354
  0
LINE
  5
C0
100
AcDbEntity
  8
0
  6
ByLayer
 62
    1
370
   -1
100
AcDbLine
 10
195.8518655193185
 20
38.13831691334354
 11
196.5884655193185
 21
37.79541691334376
  0
LINE
  5
C1
100
AcDbEntity
  8
0
  6
ByLayer
 62
    1
370
   -1
100
AcDbLine
 10
196.5884655193185
 20
37.79541691334376
 11
198.0692855193185
 21
40.96787691334517
  0
LINE
  5
C2
100
AcDbEntity
  8
0
  6
ByLayer
 62
    1
370
   -1
100
AcDbLine
 10
198.0692855193185
 20
40.96787691334517
 11
197.3326855193185
 21
41.31077691334233
  0
LINE
  5
C3
100
AcDbEntity
  8
0
  6
ByLayer
 62
    1
370
   -1
100
AcDbLine
 10
197.3326855193185
 20
41.31077691334233
 11
199.4485055193185
 21
45.84975691334359
  0
LINE
  5
C4
100
AcDbEntity
  8
0
  6
ByLayer
 62
    1
370
   -1
100
AcDbLine
 10
199.4485055193185
 20
45.84975691334359
 11
200.1851055193185
 21
45.50685691334358
  0
LINE
  5
C5
100
AcDbEntity
  8
0
  6
ByLayer
 62
    1
370
   -1
100
AcDbLine
 10
200.1851055193185
 20
45.50685691334358
 11
201.6633855193185
 21
48.67931691334347
  0
LINE
  5
C6
100
AcDbEntity
  8
0
  6
ByLayer
 62
    1
370
   -1
100
AcDbLine
 10
201.6633855193185
 20
48.67931691334347
 11
200.9267855193185
 21
49.02221691334343
  0
LINE
  5
C7
100
AcDbEntity
  8
0
  6
ByLayer
 62
    1
370
   -1
100
AcDbLine
 10
200.9267855193185
 20
49.02221691334343
 11
201.3433455193185
 21
49.91121691334339
  0
LINE
  5
C8
100
AcDbEntity
  8
0
  6
ByLayer
 62
    1
370
   -1
100
AcDbLine
 10
193.2915455193185
 20
32.64429691334352
 11
180.6296455193185
 21
38.54979691334383
  0
LINE
  5
C9
100
AcDbEntity
  8
0
  6
ByLayer
 62
    1
370
   -1
100
AcDbLine
 10
180.6296455193185
 20
38.54979691334383
 11
180.2156255193185
 21
37.66079691334374
  0
LINE
  5
CA
100
AcDbEntity
  8
0
  6
ByLayer
 62
    1
370
   -1
100
AcDbLine
 10
180.2156255193185
 20
37.66079691334374
 11
179.4790255193185
 21
38.00369691334292
  0
LINE
  5
CB
100
AcDbEntity
  8
0
  6
ByLayer
 62
    1
370
   -1
100
AcDbLine
 10
179.4790255193185
 20
38.00369691334292
 11
177.9982055193185
 21
34.83123691334354
  0
LINE
  5
CC
100
AcDbEntity
  8
0
  6
ByLayer
 62
    1
370
   -1
100
AcDbLine
 10
177.9982055193185
 20
34.83123691334354
 11
178.7348055193185
 21
34.48833691334347
  0
LINE
  5
CD
100
AcDbEntity
  8
0
  6
ByLayer
 62
    1
370
   -1
100
AcDbLine
 10
178.7348055193185
 20
34.48833691334347
 11
176.6189855193185
 21
29.94935691334337
  0
LINE
  5
CE
100
AcDbEntity
  8
0
  6
ByLayer
 62
    1
370
   -1
100
AcDbLine
 10
176.6189855193185
 20
29.94935691334337
 11
175.8823855193185
 21
30.29225691334329
  0
LINE
  5
CF
100
AcDbEntity
  8
0
  6
ByLayer
 62
    1
370
   -1
100
AcDbLine
 10
175.8823855193185
 20
30.29225691334329
 11
174.4041055193185
 21
27.11979691334335
  0
LINE
  5
D0
100
AcDbEntity
  8
0
  6
ByLayer
 62
    1
370
   -1
100
AcDbLine
 10
174.4041055193185
 20
27.11979691334335
 11
175.1407055193185
 21
26.77689691334371
  0
LINE
  5
D1
100
AcDbEntity
  8
0
  6
ByLayer
 62
    1
370
   -1
100
AcDbLine
 10
175.1407055193185
 20
26.77689691334371
 11
174.7241455193185
 21
25.8878969133433
  0
LINE
  5
D2
100
AcDbEntity
  8
0
  6
ByLayer
 62
    1
370
   -1
100
AcDbLine
 10
174.7241455193185
 20
25.8878969133433
 11
187.3860455193185
 21
19.98239691334345
  0
LINE
  5
D3
100
AcDbEntity
  8
0
  6
ByLayer
 62
    1
370
   -1
100
AcDbLine
 10
187.3860455193185
 20
19.98239691334345
 11
187.8000655193185
 21
20.87139691334342
  0
LINE
  5
D4
100
AcDbEntity
  8
0
  6
ByLayer
 62
    1
370
   -1
100
AcDbLine
 10
187.8000655193185
 20
20.87139691334342
 11
188.5366655193185
 21
20.52849691334334
  0
LINE
  5
D5
100
AcDbEntity
  8
0
  6
ByLayer
 62
    1
370
   -1
100
AcDbLine
 10
188.5366655193185
 20
20.52849691334334
 11
190.0174855193185
 21
23.7009569133434
  0
LINE
  5
D6
100
AcDbEntity
  8
0
  6
ByLayer
 62
    1
370
   -1
100
AcDbLine
 10
190.0174855193185
 20
23.7009569133434
 11
189.2808855193185
 21
24.04385691334353
  0
LINE
  5
D7
100
AcDbEntity
  8
0
  6
ByLayer
 62
    1
370
   -1
100
AcDbLine
 10
189.2808855193185
 20
24.04385691334353
 11
191.3967055193185
 21
28.58283691334358
  0
LINE
  5
D8
100
AcDbEntity
  8
0
  6
ByLayer
 62
    1
370
   -1
100
AcDbLine
 10
191.3967055193185
 20
28.58283691334358
 11
192.1333055193185
 21
28.2399369133434
  0
LINE
  5
D9
100
AcDbEntity
  8
0
  6
ByLayer
 62
    1
370
   -1
100
AcDbLine
 10
192.1333055193185
 20
28.2399369133434
 11
193.6115855193185
 21
31.41239691334346
  0
LINE
  5
DA
100
AcDbEntity
  8
0
  6
ByLayer
 62
    1
370
   -1
100
AcDbLine
 10
193.6115855193185
 20
31.41239691334346
 11
192.8749855193185
 21
31.75529691334351
  0
LINE
  5
DB
100
AcDbEntity
  8
0
  6
ByLayer
 62
    1
370
   -1
100
AcDbLine
 10
192.8749855193185
 20
31.75529691334351
 11
193.2915455193185
 21
32.64429691334352
  0
LINE
  5
DC
100
AcDbEntity
  8
0
  6
ByLayer
 62
    1
370
   -1
100
AcDbLine
 10
209.3926055193185
 20
67.17559691334353
 11
196.7307055193185
 21
73.08109691334354
  0
LINE
  5
DD
100
AcDbEntity
  8
0
  6
ByLayer
 62
    1
370
   -1
100
AcDbLine
 10
196.7307055193185
 20
73.08109691334354
 11
196.3166855193185
 21
72.19209691334348
  0
LINE
  5
DE
100
AcDbEntity
  8
0
  6
ByLayer
 62
    1
370
   -1
100
AcDbLine
 10
196.3166855193185
 20
72.19209691334348
 11
195.5800855193185
 21
72.53499691334349
  0
LINE
  5
DF
100
AcDbEntity
  8
0
  6
ByLayer
 62
    1
370
   -1
100
AcDbLine
 10
195.5800855193185
 20
72.53499691334349
 11
194.0992655193185
 21
69.36253691334352
  0
LINE
  5
E0
100
AcDbEntity
  8
0
  6
ByLayer
 62
    1
370
   -1
100
AcDbLine
 10
194.0992655193185
 20
69.36253691334352
 11
194.8358655193185
 21
69.0196369133435
  0
LINE
  5
E1
100
AcDbEntity
  8
0
  6
ByLayer
 62
    1
370
   -1
100
AcDbLine
 10
194.8358655193185
 20
69.0196369133435
 11
192.7200455193185
 21
64.48065691334349
  0
LINE
  5
E2
100
AcDbEntity
  8
0
  6
ByLayer
 62
    1
370
   -1
100
AcDbLine
 10
192.7200455193185
 20
64.48065691334349
 11
191.9834455193185
 21
64.82355691334354
  0
LINE
  5
E3
100
AcDbEntity
  8
0
  6
ByLayer
 62
    1
370
   -1
100
AcDbLine
 10
191.9834455193185
 20
64.82355691334354
 11
190.5051655193185
 21
61.65109691334348
  0
LINE
  5
E4
100
AcDbEntity
  8
0
  6
ByLayer
 62
    1
370
   -1
100
AcDbLine
 10
190.5051655193185
 20
61.65109691334348
 11
191.2417655193185
 21
61.30819691334349
  0
LINE
  5
E5
100
AcDbEntity
  8
0
  6
ByLayer
 62
    1
370
   -1
100
AcDbLine
 10
191.2417655193185
 20
61.30819691334349
 11
190.8252055193185
 21
60.41919691334337
  0
LINE
  5
E6
100
AcDbEntity
  8
0
  6
ByLayer
 62
    1
370
   -1
100
AcDbLine
 10
190.8252055193185
 20
60.41919691334337
 11
203.4871055193185
 21
54.51369691334352
  0
LINE
  5
E7
100
AcDbEntity
  8
0
  6
ByLayer
 62
    1
370
   -1
100
AcDbLine
 10
203.4871055193185
 20
54.51369691334352
 11
203.9011255193185
 21
55.40269691334348
  0
LINE
  5
E8
100
AcDbEntity
  8
0
  6
ByLayer
 62
    1
370
   -1
100
AcDbLine
 10
203.9011255193185
 20
55.40269691334348
 11
204.6377255193185
 21
55.05979691334346
  0
LINE
  5
E9
100
AcDbEntity
  8
0
  6
ByLayer
 62
    1
370
   -1
100
AcDbLine
 10
204.6377255193185
 20
55.05979691334346
 11
206.1185455193185
 21
58.23225691334343
  0
LINE
  5
EA
100
AcDbEntity
  8
0
  6
ByLayer
 62
    1
370
   -1
100
AcDbLine
 10
206.1185455193185
 20
58.23225691334343
 11
205.3819455193185
 21
58.57515691334348
  0
LINE
  5
EB
100
AcDbEntity
  8
0
  6
ByLayer
 62
    1
370
   -1
100
AcDbLine
 10
205.3819455193185
 20
58.57515691334348
 11
207.4977655193185
 21
63.11413691334346
  0
LINE
  5
EC
100
AcDbEntity
  8
0
  6
ByLayer
 62
    1
370
   -1
100
AcDbLine
 10
207.4977655193185
 20
63.11413691334346
 11
208.2343655193185
 21
62.77123691334347
  0
LINE
  5
ED
100
AcDbEntity
  8
0
  6
ByLayer
 62
    1
370
   -1
100
AcDbLine
 10
208.2343655193185
 20
62.77123691334347
 11
209.7126455193185
 21
65.94369691334353
  0
LINE
  5
EE
100
AcDbEntity
  8
0
  6
ByLayer
 62
    1
370
   -1
100
AcDbLine
 10
209.7126455193185
 20
65.94369691334353
 11
208.9760455193185
 21
66.28659691334352
  0
LINE
  5
EF
100
AcDbEntity
  8
0
  6
ByLayer
 62
    1
370
   -1
100
AcDbLine
 10
208.9760455193185
 20
66.28659691334352
 11
209.3926055193185
 21
67.17559691334353
  0
LINE
  5
F0
100
AcDbEntity
  8
0
  6
ByLayer
 62
    1
370
   -1
100
AcDbLine
 10
192.1282255193185
 20
75.22485691334347
 11
179.4663255193185
 21
81.13035691334349
  0
LINE
  5
F1
100
AcDbEntity
  8
0
  6
ByLayer
 62
    1
370
   -1
100
AcDbLine
 10
179.4663255193185
 20
81.13035691334349
 11
179.0523055193185
 21
80.24135691334348
  0
LINE
  5
F2
100
AcDbEntity
  8
0
  6
ByLayer
 62
    1
370
   -1
100
AcDbLine
 10
179.0523055193185
 20
80.24135691334348
 11
178.3157055193185
 21
80.58425691334352
  0
LINE
  5
F3
100
AcDbEntity
  8
0
  6
ByLayer
 62
    1
370
   -1
100
AcDbLine
 10
178.3157055193185
 20
80.58425691334352
 11
176.8348855193185
 21
77.41179691334349
  0
LINE
  5
F4
100
AcDbEntity
  8
0
  6
ByLayer
 62
    1
370
   -1
100
AcDbLine
 10
176.8348855193185
 20
77.41179691334349
 11
177.5714855193185
 21
77.06889691334351
  0
LINE
  5
F5
100
AcDbEntity
  8
0
  6
ByLayer
 62
    1
370
   -1
100
AcDbLine
 10
177.5714855193185
 20
77.06889691334351
 11
175.4556655193185
 21
72.5299169133435
  0
LINE
  5
F6
100
AcDbEntity
  8
0
  6
ByLayer
 62
    1
370
   -1
100
AcDbLine
 10
175.4556655193185
 20
72.5299169133435
 11
174.7190655193185
 21
72.87281691334348
  0
LINE
  5
F7
100
AcDbEntity
  8
0
  6
ByLayer
 62
    1
370
   -1
100
AcDbLine
 10
174.7190655193185
 20
72.87281691334348
 11
173.2407855193185
 21
69.70035691334346
  0
LINE
  5
F8
100
AcDbEntity
  8
0
  6
ByLayer
 62
    1
370
   -1
100
AcDbLine
 10
173.2407855193185
 20
69.70035691334346
 11
173.9773855193185
 21
69.35745691334347
  0
LINE
  5
F9
100
AcDbEntity
  8
0
  6
ByLayer
 62
    1
370
   -1
100
AcDbLine
 10
173.9773855193185
 20
69.35745691334347
 11
173.5608255193185
 21
68.46845691334349
  0
LINE
  5
FA
100
AcDbEntity
  8
0
  6
ByLayer
 62
    1
370
   -1
100
AcDbLine
 10
173.5608255193185
 20
68.46845691334349
 11
186.2227255193185
 21
62.5629569133435
  0
LINE
  5
FB
100
AcDbEntity
  8
0
  6
ByLayer
 62
    1
370
   -1
100
AcDbLine
 10
186.2227255193185
 20
62.5629569133435
 11
186.6367455193185
 21
63.45195691334345
  0
LINE
  5
FC
100
AcDbEntity
  8
0
  6
ByLayer
 62
    1
370
   -1
100
AcDbLine
 10
186.6367455193185
 20
63.45195691334345
 11
187.3733455193185
 21
63.10905691334347
  0
LINE
  5
FD
100
AcDbEntity
  8
0
  6
ByLayer
 62
    1
370
   -1
100
AcDbLine
 10
187.3733455193185
 20
63.10905691334347
 11
188.8541655193185
 21
66.28151691334349
  0
LINE
  5
FE
100
AcDbEntity
  8
0
  6
ByLayer
 62
    1
370
   -1
100
AcDbLine
 10
188.8541655193185
 20
66.28151691334349
 11
188.1175655193185
 21
66.62441691334357
  0
LINE
  5
FF
100
AcDbEntity
  8
0
  6
ByLayer
 62
    1
370
   -1
100
AcDbLine
 10
188.1175655193185
 20
66.62441691334357
 11
190.2333855193185
 21
71.16339691334358
  0
LINE
  5
100
100
AcDbEntity
  8
0
  6
ByLayer
 62
    1
370
   -1
100
AcDbLine
 10
190.2333855193185
 20
71.16339691334358
 11
190.9699855193185
 21
70.82049691334353
  0
LINE
  5
101
100
AcDbEntity
  8
0
  6
ByLayer
 62
    1
370
   -1
100
AcDbLine
 10
190.9699855193185
 20
70.82049691334353
 11
192.4482655193185
 21
73.99295691334348
  0
LINE
  5
102
100
AcDbEntity
  8
0
  6
ByLayer
 62
    1
370
   -1
100
AcDbLine
 10
192.4482655193185
 20
73.99295691334348
 11
191.7116655193185
 21
74.33585691334346
  0
LINE
  5
103
100
AcDbEntity
  8
0
  6
ByLayer
 62
    1
370
   -1
100
AcDbLine
 10
191.7116655193185
 20
74.33585691334346
 11
192.1282255193185
 21
75.22485691334347
  0
LINE
  5
104
100
AcDbEntity
  8
0
  6
ByLayer
 62
    1
370
   -1
100
AcDbLine
 10
74.15284551931853
 20
147.0458969133435
 11
60.18284551931856
 21
147.0458969133435
  0
LINE
  5
105
100
AcDbEntity
  8
0
  6
ByLayer
 62
    1
370
   -1
100
AcDbLine
 10
60.18284551931856
 20
147.0458969133435
 11
60.18284551931856
 21
146.0654569133435
  0
LINE
  5
106
100
AcDbEntity
  8
0
  6
ByLayer
 62
    1
370
   -1
100
AcDbLine
 10
60.18284551931856
 20
146.0654569133435
 11
59.37004551931852
 21
146.0654569133435
  0
LINE
  5
107
100
AcDbEntity
  8
0
  6
ByLayer
 62
    1
370
   -1
100
AcDbLine
 10
59.37004551931852
 20
146.0654569133435
 11
59.37004551931852
 21
142.5653369133436
  0
LINE
  5
108
100
AcDbEntity
  8
0
  6
ByLayer
 62
    1
370
   -1
100
AcDbLine
 10
59.37004551931852
 20
142.5653369133436
 11
60.18284551931856
 21
142.5653369133436
  0
LINE
  5
109
100
AcDbEntity
  8
0
  6
ByLayer
 62
    1
370
   -1
100
AcDbLine
 10
60.18284551931856
 20
142.5653369133436
 11
60.18284551931856
 21
137.5564569133435
  0
LINE
  5
10A
100
AcDbEntity
  8
0
  6
ByLayer
 62
    1
370
   -1
100
AcDbLine
 10
60.18284551931856
 20
137.5564569133435
 11
59.37004551931852
 21
137.5564569133434
  0
LINE
  5
10B
100
AcDbEntity
  8
0
  6
ByLayer
 62
    1
370
   -1
100
AcDbLine
 10
59.37004551931852
 20
137.5564569133434
 11
59.37004551931852
 21
134.0563369133435
  0
LINE
  5
10C
100
AcDbEntity
  8
0
  6
ByLayer
 62
    1
370
   -1
100
AcDbLine
 10
59.37004551931852
 20
134.0563369133435
 11
60.18284551931856
 21
134.0563369133434
  0
LINE
  5
10D
100
AcDbEntity
  8
0
  6
ByLayer
 62
    1
370
   -1
100
AcDbLine
 10
60.18284551931856
 20
134.0563369133434
 11
60.18284551931856
 21
133.0758969133434
  0
LINE
  5
10E
100
AcDbEntity
  8
0
  6
ByLayer
 62
    1
370
   -1
100
AcDbLine
 10
60.18284551931856
 20
133.0758969133434
 11
74.15284551931853
 21
133.0758969133435
  0
LINE
  5
10F
100
AcDbEntity
  8
0
  6
ByLayer
 62
    1
370
   -1
100
AcDbLine
 10
74.15284551931853
 20
133.0758969133435
 11
74.15284551931859
 21
134.0563369133435
  0
LINE
  5
110
100
AcDbEntity
  8
0
  6
ByLayer
 62
    1
370
   -1
100
AcDbLine
 10
74.15284551931859
 20
134.0563369133435
 11
74.96564551931857
 21
134.0563369133435
  0
LINE
  5
111
100
AcDbEntity
  8
0
  6
ByLayer
 62
    1
370
   -1
100
AcDbLine
 10
74.96564551931857
 20
134.0563369133435
 11
74.96564551931857
 21
137.5564569133435
  0
LINE
  5
112
100
AcDbEntity
  8
0
  6
ByLayer
 62
    1
370
   -1
100
AcDbLine
 10
74.96564551931857
 20
137.5564569133435
 11
74.15284551931859
 21
137.5564569133436
  0
LINE
  5
113
100
AcDbEntity
  8
0
  6
ByLayer
 62
    1
370
   -1
100
AcDbLine
 10
74.15284551931859
 20
137.5564569133436
 11
74.15284551931859
 21
142.5653369133436
  0
LINE
  5
114
100
AcDbEntity
  8
0
  6
ByLayer
 62
    1
370
   -1
100
AcDbLine
 10
74.15284551931859
 20
142.5653369133436
 11
74.96564551931857
 21
142.5653369133436
  0
LINE
  5
115
100
AcDbEntity
  8
0
  6
ByLayer
 62
    1
370
   -1
100
AcDbLine
 10
74.96564551931857
 20
142.5653369133436
 11
74.96564551931857
 21
146.0654569133435
  0
LINE
  5
116
100
AcDbEntity
  8
0
  6
ByLayer
 62
    1
370
   -1
100
AcDbLine
 10
74.96564551931857
 20
146.0654569133435
 11
74.15284551931853
 21
146.0654569133435
  0
LINE
  5
117
100
AcDbEntity
  8
0
  6
ByLayer
 62
    1
370
   -1
100
AcDbLine
 10
74.15284551931853
 20
146.0654569133435
 11
74.15284551931853
 21
147.0458969133435
  0
LINE
  5
118
100
AcDbEntity
  8
0
  6
ByLayer
 62
    1
370
   -1
100
AcDbLine
 10
93.20284551931854
 20
150.2234369133435
 11
79.23284551931852
 21
150.2234369133434
  0
LINE
  5
119
100
AcDbEntity
  8
0
  6
ByLayer
 62
    1
370
   -1
100
AcDbLine
 10
79.23284551931852
 20
150.2234369133434
 11
79.23284551931852
 21
149.2429969133435
  0
LINE
  5
11A
100
AcDbEntity
  8
0
  6
ByLayer
 62
    1
370
   -1
100
AcDbLine
 10
79.23284551931852
 20
149.2429969133435
 11
78.42004551931848
 21
149.2429969133434
  0
LINE
  5
11B
100
AcDbEntity
  8
0
  6
ByLayer
 62
    1
370
   -1
100
AcDbLine
 10
78.42004551931848
 20
149.2429969133434
 11
78.42004551931853
 21
145.7428769133434
  0
LINE
  5
11C
100
AcDbEntity
  8
0
  6
ByLayer
 62
    1
370
   -1
100
AcDbLine
 10
78.42004551931853
 20
145.7428769133434
 11
79.23284551931857
 21
145.7428769133434
  0
LINE
  5
11D
100
AcDbEntity
  8
0
  6
ByLayer
 62
    1
370
   -1
100
AcDbLine
 10
79.23284551931857
 20
145.7428769133434
 11
79.23284551931857
 21
140.7339969133435
  0
LINE
  5
11E
100
AcDbEntity
  8
0
  6
ByLayer
 62
    1
370
   -1
100
AcDbLine
 10
79.23284551931857
 20
140.7339969133435
 11
78.42004551931853
 21
140.7339969133433
  0
LINE
  5
11F
100
AcDbEntity
  8
0
  6
ByLayer
 62
    1
370
   -1
100
AcDbLine
 10
78.42004551931853
 20
140.7339969133433
 11
78.42004551931859
 21
137.2338769133434
  0
LINE
  5
120
100
AcDbEntity
  8
0
  6
ByLayer
 62
    1
370
   -1
100
AcDbLine
 10
78.42004551931859
 20
137.2338769133434
 11
79.23284551931857
 21
137.2338769133435
  0
LINE
  5
121
100
AcDbEntity
  8
0
  6
ByLayer
 62
    1
370
   -1
100
AcDbLine
 10
79.23284551931857
 20
137.2338769133435
 11
79.23284551931852
 21
136.2534369133434
  0
LINE
  5
122
100
AcDbEntity
  8
0
  6
ByLayer
 62
    1
370
   -1
100
AcDbLine
 10
79.23284551931852
 20
136.2534369133434
 11
93.20284551931854
 21
136.2534369133434
  0
LINE
  5
123
100
AcDbEntity
  8
0
  6
ByLayer
 62
    1
370
   -1
100
AcDbLine
 10
93.20284551931854
 20
136.2534369133434
 11
93.20284551931854
 21
137.2338769133435
  0
LINE
  5
124
100
AcDbEntity
  8
0
  6
ByLayer
 62
    1
370
   -1
100
AcDbLine
 10
93.20284551931854
 20
137.2338769133435
 11
94.01564551931853
 21
137.2338769133435
  0
LINE
  5
125
100
AcDbEntity
  8
0
  6
ByLayer
 62
    1
370
   -1
100
AcDbLine
 10
94.01564551931853
 20
137.2338769133435
 11
94.01564551931858
 21
140.7339969133435
  0
LINE
  5
126
100
AcDbEntity
  8
0
  6
ByLayer
 62
    1
370
   -1
100
AcDbLine
 10
94.01564551931858
 20
140.7339969133435
 11
93.20284551931854
 21
140.7339969133435
  0
LINE
  5
127
100
AcDbEntity
  8
0
  6
ByLayer
 62
    1
370
   -1
100
AcDbLine
 10
93.20284551931854
 20
140.7339969133435
 11
93.20284551931854
 21
145.7428769133434
  0
LINE
  5
128
100
AcDbEntity
  8
0
  6
ByLayer
 62
    1
370
   -1
100
AcDbLine
 10
93.20284551931854
 20
145.7428769133434
 11
94.01564551931853
 21
145.7428769133434
  0
LINE
  5
129
100
AcDbEntity
  8
0
  6
ByLayer
 62
    1
370
   -1
100
AcDbLine
 10
94.01564551931853
 20
145.7428769133434
 11
94.01564551931858
 21
149.2429969133435
  0
LINE
  5
12A
100
AcDbEntity
  8
0
  6
ByLayer
 62
    1
370
   -1
100
AcDbLine
 10
94.01564551931858
 20
149.2429969133435
 11
93.20284551931854
 21
149.2429969133435
  0
LINE
  5
12B
100
AcDbEntity
  8
0
  6
ByLayer
 62
    1
370
   -1
100
AcDbLine
 10
93.20284551931854
 20
149.2429969133435
 11
93.20284551931854
 21
150.2234369133435
  0
LINE
  5
12C
100
AcDbEntity
  8
0
  6
ByLayer
 62
    1
370
   -1
100
AcDbLine
 10
112.2528455193185
 20
151.8210969133435
 11
98.28284551931853
 21
151.8210969133434
  0
LINE
  5
12D
100
AcDbEntity
  8
0
  6
ByLayer
 62
    1
370
   -1
100
AcDbLine
 10
98.28284551931853
 20
151.8210969133434
 11
98.28284551931847
 21
150.8406569133434
  0
LINE
  5
12E
100
AcDbEntity
  8
0
  6
ByLayer
 62
    1
370
   -1
100
AcDbLine
 10
98.28284551931847
 20
150.8406569133434
 11
97.47004551931855
 21
150.8406569133434
  0
LINE
  5
12F
100
AcDbEntity
  8
0
  6
ByLayer
 62
    1
370
   -1
100
AcDbLine
 10
97.47004551931855
 20
150.8406569133434
 11
97.47004551931855
 21
147.3405369133434
  0
LINE
  5
130
100
AcDbEntity
  8
0
  6
ByLayer
 62
    1
370
   -1
100
AcDbLine
 10
97.47004551931855
 20
147.3405369133434
 11
98.28284551931853
 21
147.3405369133435
  0
LINE
  5
131
100
AcDbEntity
  8
0
  6
ByLayer
 62
    1
370
   -1
100
AcDbLine
 10
98.28284551931853
 20
147.3405369133435
 11
98.28284551931858
 21
142.3316569133435
  0
LINE
  5
132
100
AcDbEntity
  8
0
  6
ByLayer
 62
    1
370
   -1
100
AcDbLine
 10
98.28284551931858
 20
142.3316569133435
 11
97.47004551931855
 21
142.3316569133435
  0
LINE
  5
133
100
AcDbEntity
  8
0
  6
ByLayer
 62
    1
370
   -1
100
AcDbLine
 10
97.47004551931855
 20
142.3316569133435
 11
97.47004551931855
 21
138.8315369133435
  0
LINE
  5
134
100
AcDbEntity
  8
0
  6
ByLayer
 62
    1
370
   -1
100
AcDbLine
 10
97.47004551931855
 20
138.8315369133435
 11
98.28284551931853
 21
138.8315369133434
  0
LINE
  5
135
100
AcDbEntity
  8
0
  6
ByLayer
 62
    1
370
   -1
100
AcDbLine
 10
98.28284551931853
 20
138.8315369133434
 11
98.28284551931858
 21
137.8510969133435
  0
LINE
  5
136
100
AcDbEntity
  8
0
  6
ByLayer
 62
    1
370
   -1
100
AcDbLine
 10
98.28284551931858
 20
137.8510969133435
 11
112.2528455193185
 21
137.8510969133435
  0
LINE
  5
137
100
AcDbEntity
  8
0
  6
ByLayer
 62
    1
370
   -1
100
AcDbLine
 10
112.2528455193185
 20
137.8510969133435
 11
112.2528455193185
 21
138.8315369133435
  0
LINE
  5
138
100
AcDbEntity
  8
0
  6
ByLayer
 62
    1
370
   -1
100
AcDbLine
 10
112.2528455193185
 20
138.8315369133435
 11
113.0656455193186
 21
138.8315369133435
  0
LINE
  5
139
100
AcDbEntity
  8
0
  6
ByLayer
 62
    1
370
   -1
100
AcDbLine
 10
113.0656455193186
 20
138.8315369133435
 11
113.0656455193186
 21
142.3316569133435
  0
LINE
  5
13A
100
AcDbEntity
  8
0
  6
ByLayer
 62
    1
370
   -1
100
AcDbLine
 10
113.0656455193186
 20
142.3316569133435
 11
112.2528455193185
 21
142.3316569133434
  0
LINE
  5
13B
100
AcDbEntity
  8
0
  6
ByLayer
 62
    1
370
   -1
100
AcDbLine
 10
112.2528455193185
 20
142.3316569133434
 11
112.2528455193186
 21
147.3405369133435
  0
LINE
  5
13C
100
AcDbEntity
  8
0
  6
ByLayer
 62
    1
370
   -1
100
AcDbLine
 10
112.2528455193186
 20
147.3405369133435
 11
113.0656455193185
 21
147.3405369133435
  0
LINE
  5
13D
100
AcDbEntity
  8
0
  6
ByLayer
 62
    1
370
   -1
100
AcDbLine
 10
113.0656455193185
 20
147.3405369133435
 11
113.0656455193186
 21
150.8406569133435
  0
LINE
  5
13E
100
AcDbEntity
  8
0
  6
ByLayer
 62
    1
370
   -1
100
AcDbLine
 10
113.0656455193186
 20
150.8406569133435
 11
112.2528455193186
 21
150.8406569133435
  0
LINE
  5
13F
100
AcDbEntity
  8
0
  6
ByLayer
 62
    1
370
   -1
100
AcDbLine
 10
112.2528455193186
 20
150.8406569133435
 11
112.2528455193185
 21
151.8210969133435
  0
LINE
  5
140
100
AcDbEntity
  8
0
  6
ByLayer
 62
    1
370
   -1
100
AcDbLine
 10
131.3028455193185
 20
150.2234369133435
 11
117.3328455193185
 21
150.2234369133435
  0
LINE
  5
141
100
AcDbEntity
  8
0
  6
ByLayer
 62
    1
370
   -1
100
AcDbLine
 10
117.3328455193185
 20
150.2234369133435
 11
117.3328455193185
 21
149.2429969133435
  0
LINE
  5
142
100
AcDbEntity
  8
0
  6
ByLayer
 62
    1
370
   -1
100
AcDbLine
 10
117.3328455193185
 20
149.2429969133435
 11
116.5200455193185
 21
149.2429969133435
  0
LINE
  5
143
100
AcDbEntity
  8
0
  6
ByLayer
 62
    1
370
   -1
100
AcDbLine
 10
116.5200455193185
 20
149.2429969133435
 11
116.5200455193185
 21
145.7428769133434
  0
LINE
  5
144
100
AcDbEntity
  8
0
  6
ByLayer
 62
    1
370
   -1
100
AcDbLine
 10
116.5200455193185
 20
145.7428769133434
 11
117.3328455193185
 21
145.7428769133435
  0
LINE
  5
145
100
AcDbEntity
  8
0
  6
ByLayer
 62
    1
370
   -1
100
AcDbLine
 10
117.3328455193185
 20
145.7428769133435
 11
117.3328455193186
 21
140.7339969133436
  0
LINE
  5
146
100
AcDbEntity
  8
0
  6
ByLayer
 62
    1
370
   -1
100
AcDbLine
 10
117.3328455193186
 20
140.7339969133436
 11
116.5200455193185
 21
140.7339969133435
  0
LINE
  5
147
100
AcDbEntity
  8
0
  6
ByLayer
 62
    1
370
   -1
100
AcDbLine
 10
116.5200455193185
 20
140.7339969133435
 11
116.5200455193185
 21
137.2338769133435
  0
LINE
  5
148
100
AcDbEntity
  8
0
  6
ByLayer
 62
    1
370
   -1
100
AcDbLine
 10
116.5200455193185
 20
137.2338769133435
 11
117.3328455193185
 21
137.2338769133434
  0
LINE
  5
149
100
AcDbEntity
  8
0
  6
ByLayer
 62
    1
370
   -1
100
AcDbLine
 10
117.3328455193185
 20
137.2338769133434
 11
117.3328455193185
 21
136.2534369133435
  0
LINE
  5
14A
100
AcDbEntity
  8
0
  6
ByLayer
 62
    1
370
   -1
100
AcDbLine
 10
117.3328455193185
 20
136.2534369133435
 11
131.3028455193185
 21
136.2534369133434
  0
LINE
  5
14B
100
AcDbEntity
  8
0
  6
ByLayer
 62
    1
370
   -1
100
AcDbLine
 10
131.3028455193185
 20
136.2534369133434
 11
131.3028455193185
 21
137.2338769133434
  0
LINE
  5
14C
100
AcDbEntity
  8
0
  6
ByLayer
 62
    1
370
   -1
100
AcDbLine
 10
131.3028455193185
 20
137.2338769133434
 11
132.1156455193185
 21
137.2338769133435
  0
LINE
  5
14D
100
AcDbEntity
  8
0
  6
ByLayer
 62
    1
370
   -1
100
AcDbLine
 10
132.1156455193185
 20
137.2338769133435
 11
132.1156455193185
 21
140.7339969133435
  0
LINE
  5
14E
100
AcDbEntity
  8
0
  6
ByLayer
 62
    1
370
   -1
100
AcDbLine
 10
132.1156455193185
 20
140.7339969133435
 11
131.3028455193185
 21
140.7339969133435
  0
LINE
  5
14F
100
AcDbEntity
  8
0
  6
ByLayer
 62
    1
370
   -1
100
AcDbLine
 10
131.3028455193185
 20
140.7339969133435
 11
131.3028455193185
 21
145.7428769133435
  0
LINE
  5
150
100
AcDbEntity
  8
0
  6
ByLayer
 62
    1
370
   -1
100
AcDbLine
 10
131.3028455193185
 20
145.7428769133435
 11
132.1156455193185
 21
145.7428769133435
  0
LINE
  5
151
100
AcDbEntity
  8
0
  6
ByLayer
 62
    1
370
   -1
100
AcDbLine
 10
132.1156455193185
 20
145.7428769133435
 11
132.1156455193185
 21
149.2429969133435
  0
LINE
  5
152
100
AcDbEntity
  8
0
  6
ByLayer
 62
    1
370
   -1
100
AcDbLine
 10
132.1156455193185
 20
149.2429969133435
 11
131.3028455193185
 21
149.2429969133435
  0
LINE
  5
153
100
AcDbEntity
  8
0
  6
ByLayer
 62
    1
370
   -1
100
AcDbLine
 10
131.3028455193185
 20
149.2429969133435
 11
131.3028455193185
 21
150.2234369133435
  0
LINE
  5
154
100
AcDbEntity
  8
0
  6
ByLayer
 62
    1
370
   -1
100
AcDbLine
 10
93.20284551931854
 20
74.02343691334346
 11
79.23284551931852
 21
74.02343691334355
  0
LINE
  5
155
100
AcDbEntity
  8
0
  6
ByLayer
 62
    1
370
   -1
100
AcDbLine
 10
79.23284551931852
 20
74.02343691334355
 11
79.23284551931852
 21
73.04299691334356
  0
LINE
  5
156
100
AcDbEntity
  8
0
  6
ByLayer
 62
    1
370
   -1
100
AcDbLine
 10
79.23284551931852
 20
73.04299691334356
 11
78.42004551931853
 21
73.04299691334344
  0
LINE
  5
157
100
AcDbEntity
  8
0
  6
ByLayer
 62
    1
370
   -1
100
AcDbLine
 10
78.42004551931853
 20
73.04299691334344
 11
78.42004551931853
 21
69.54287691334352
  0
LINE
  5
158
100
AcDbEntity
  8
0
  6
ByLayer
 62
    1
370
   -1
100
AcDbLine
 10
78.42004551931853
 20
69.54287691334352
 11
79.23284551931852
 21
69.54287691334346
  0
LINE
  5
159
100
AcDbEntity
  8
0
  6
ByLayer
 62
    1
370
   -1
100
AcDbLine
 10
79.23284551931852
 20
69.54287691334346
 11
79.23284551931852
 21
64.53399691334349
  0
LINE
  5
15A
100
AcDbEntity
  8
0
  6
ByLayer
 62
    1
370
   -1
100
AcDbLine
 10
79.23284551931852
 20
64.53399691334349
 11
78.42004551931853
 21
64.53399691334354
  0
LINE
  5
15B
100
AcDbEntity
  8
0
  6
ByLayer
 62
    1
370
   -1
100
AcDbLine
 10
78.42004551931853
 20
64.53399691334354
 11
78.42004551931853
 21
61.03387691334356
  0
LINE
  5
15C
100
AcDbEntity
  8
0
  6
ByLayer
 62
    1
370
   -1
100
AcDbLine
 10
78.42004551931853
 20
61.03387691334356
 11
79.23284551931852
 21
61.03387691334368
  0
LINE
  5
15D
100
AcDbEntity
  8
0
  6
ByLayer
 62
    1
370
   -1
100
AcDbLine
 10
79.23284551931852
 20
61.03387691334368
 11
79.23284551931852
 21
60.05343691334357
  0
LINE
  5
15E
100
AcDbEntity
  8
0
  6
ByLayer
 62
    1
370
   -1
100
AcDbLine
 10
79.23284551931852
 20
60.05343691334357
 11
93.20284551931854
 21
60.05343691334349
  0
LINE
  5
15F
100
AcDbEntity
  8
0
  6
ByLayer
 62
    1
370
   -1
100
AcDbLine
 10
93.20284551931854
 20
60.05343691334349
 11
93.20284551931854
 21
61.03387691334362
  0
LINE
  5
160
100
AcDbEntity
  8
0
  6
ByLayer
 62
    1
370
   -1
100
AcDbLine
 10
93.20284551931854
 20
61.03387691334362
 11
94.01564551931853
 21
61.03387691334365
  0
LINE
  5
161
100
AcDbEntity
  8
0
  6
ByLayer
 62
    1
370
   -1
100
AcDbLine
 10
94.01564551931853
 20
61.03387691334365
 11
94.01564551931853
 21
64.53399691334346
  0
LINE
  5
162
100
AcDbEntity
  8
0
  6
ByLayer
 62
    1
370
   -1
100
AcDbLine
 10
94.01564551931853
 20
64.53399691334346
 11
93.20284551931854
 21
64.53399691334354
  0
LINE
  5
163
100
AcDbEntity
  8
0
  6
ByLayer
 62
    1
370
   -1
100
AcDbLine
 10
93.20284551931854
 20
64.53399691334354
 11
93.20284551931854
 21
69.54287691334355
  0
LINE
  5
164
100
AcDbEntity
  8
0
  6
ByLayer
 62
    1
370
   -1
100
AcDbLine
 10
93.20284551931854
 20
69.54287691334355
 11
94.01564551931853
 21
69.54287691334355
  0
LINE
  5
165
100
AcDbEntity
  8
0
  6
ByLayer
 62
    1
370
   -1
100
AcDbLine
 10
94.01564551931853
 20
69.54287691334355
 11
94.01564551931853
 21
73.04299691334359
  0
LINE
  5
166
100
AcDbEntity
  8
0
  6
ByLayer
 62
    1
370
   -1
100
AcDbLine
 10
94.01564551931853
 20
73.04299691334359
 11
93.20284551931854
 21
73.04299691334344
  0
LINE
  5
167
100
AcDbEntity
  8
0
  6
ByLayer
 62
    1
370
   -1
100
AcDbLine
 10
93.20284551931854
 20
73.04299691334344
 11
93.20284551931854
 21
74.02343691334346
  0
LINE
  5
168
100
AcDbEntity
  8
0
  6
ByLayer
 62
    1
370
   -1
100
AcDbLine
 10
74.15284551931853
 20
127.9984369133435
 11
60.18284551931856
 21
127.9984369133434
  0
LINE
  5
169
100
AcDbEntity
  8
0
  6
ByLayer
 62
    1
370
   -1
100
AcDbLine
 10
60.18284551931856
 20
127.9984369133434
 11
60.18284551931856
 21
127.0179969133435
  0
LINE
  5
16A
100
AcDbEntity
  8
0
  6
ByLayer
 62
    1
370
   -1
100
AcDbLine
 10
60.18284551931856
 20
127.0179969133435
 11
59.37004551931852
 21
127.0179969133436
  0
LINE
  5
16B
100
AcDbEntity
  8
0
  6
ByLayer
 62
    1
370
   -1
100
AcDbLine
 10
59.37004551931852
 20
127.0179969133436
 11
59.37004551931852
 21
123.5178769133435
  0
LINE
  5
16C
100
AcDbEntity
  8
0
  6
ByLayer
 62
    1
370
   -1
100
AcDbLine
 10
59.37004551931852
 20
123.5178769133435
 11
60.18284551931856
 21
123.5178769133435
  0
LINE
  5
16D
100
AcDbEntity
  8
0
  6
ByLayer
 62
    1
370
   -1
100
AcDbLine
 10
60.18284551931856
 20
123.5178769133435
 11
60.18284551931856
 21
118.5089969133435
  0
LINE
  5
16E
100
AcDbEntity
  8
0
  6
ByLayer
 62
    1
370
   -1
100
AcDbLine
 10
60.18284551931856
 20
118.5089969133435
 11
59.37004551931852
 21
118.5089969133435
  0
LINE
  5
16F
100
AcDbEntity
  8
0
  6
ByLayer
 62
    1
370
   -1
100
AcDbLine
 10
59.37004551931852
 20
118.5089969133435
 11
59.37004551931852
 21
115.0088769133433
  0
LINE
  5
170
100
AcDbEntity
  8
0
  6
ByLayer
 62
    1
370
   -1
100
AcDbLine
 10
59.37004551931852
 20
115.0088769133433
 11
60.18284551931856
 21
115.0088769133434
  0
LINE
  5
171
100
AcDbEntity
  8
0
  6
ByLayer
 62
    1
370
   -1
100
AcDbLine
 10
60.18284551931856
 20
115.0088769133434
 11
60.18284551931856
 21
114.0284369133434
  0
LINE
  5
172
100
AcDbEntity
  8
0
  6
ByLayer
 62
    1
370
   -1
100
AcDbLine
 10
60.18284551931856
 20
114.0284369133434
 11
74.15284551931859
 21
114.0284369133436
  0
LINE
  5
173
100
AcDbEntity
  8
0
  6
ByLayer
 62
    1
370
   -1
100
AcDbLine
 10
74.15284551931859
 20
114.0284369133436
 11
74.15284551931859
 21
115.0088769133436
  0
LINE
  5
174
100
AcDbEntity
  8
0
  6
ByLayer
 62
    1
370
   -1
100
AcDbLine
 10
74.15284551931859
 20
115.0088769133436
 11
74.96564551931851
 21
115.0088769133435
  0
LINE
  5
175
100
AcDbEntity
  8
0
  6
ByLayer
 62
    1
370
   -1
100
AcDbLine
 10
74.96564551931851
 20
115.0088769133435
 11
74.96564551931857
 21
118.5089969133435
  0
LINE
  5
176
100
AcDbEntity
  8
0
  6
ByLayer
 62
    1
370
   -1
100
AcDbLine
 10
74.96564551931857
 20
118.5089969133435
 11
74.15284551931859
 21
118.5089969133435
  0
LINE
  5
177
100
AcDbEntity
  8
0
  6
ByLayer
 62
    1
370
   -1
100
AcDbLine
 10
74.15284551931859
 20
118.5089969133435
 11
74.15284551931853
 21
123.5178769133435
  0
LINE
  5
178
100
AcDbEntity
  8
0
  6
ByLayer
 62
    1
370
   -1
100
AcDbLine
 10
74.15284551931853
 20
123.5178769133435
 11
74.96564551931851
 21
123.5178769133436
  0
LINE
  5
179
100
AcDbEntity
  8
0
  6
ByLayer
 62
    1
370
   -1
100
AcDbLine
 10
74.96564551931851
 20
123.5178769133436
 11
74.96564551931851
 21
127.0179969133435
  0
LINE
  5
17A
100
AcDbEntity
  8
0
  6
ByLayer
 62
    1
370
   -1
100
AcDbLine
 10
74.96564551931851
 20
127.0179969133435
 11
74.15284551931859
 21
127.0179969133435
  0
LINE
  5
17B
100
AcDbEntity
  8
0
  6
ByLayer
 62
    1
370
   -1
100
AcDbLine
 10
74.15284551931859
 20
127.0179969133435
 11
74.15284551931853
 21
127.9984369133435
  0
LINE
  5
17C
100
AcDbEntity
  8
0
  6
ByLayer
 62
    1
370
   -1
100
AcDbLine
 10
112.2528455193186
 20
132.7710969133435
 11
98.28284551931853
 21
132.7710969133435
  0
LINE
  5
17D
100
AcDbEntity
  8
0
  6
ByLayer
 62
    1
370
   -1
100
AcDbLine
 10
98.28284551931853
 20
132.7710969133435
 11
98.28284551931858
 21
131.7906569133435
  0
LINE
  5
17E
100
AcDbEntity
  8
0
  6
ByLayer
 62
    1
370
   -1
100
AcDbLine
 10
98.28284551931858
 20
131.7906569133435
 11
97.47004551931855
 21
131.7906569133435
  0
LINE
  5
17F
100
AcDbEntity
  8
0
  6
ByLayer
 62
    1
370
   -1
100
AcDbLine
 10
97.47004551931855
 20
131.7906569133435
 11
97.47004551931855
 21
128.2905369133435
  0
LINE
  5
180
100
AcDbEntity
  8
0
  6
ByLayer
 62
    1
370
   -1
100
AcDbLine
 10
97.47004551931855
 20
128.2905369133435
 11
98.28284551931858
 21
128.2905369133435
  0
LINE
  5
181
100
AcDbEntity
  8
0
  6
ByLayer
 62
    1
370
   -1
100
AcDbLine
 10
98.28284551931858
 20
128.2905369133435
 11
98.28284551931858
 21
123.2816569133435
  0
LINE
  5
182
100
AcDbEntity
  8
0
  6
ByLayer
 62
    1
370
   -1
100
AcDbLine
 10
98.28284551931858
 20
123.2816569133435
 11
97.47004551931855
 21
123.2816569133435
  0
LINE
  5
183
100
AcDbEntity
  8
0
  6
ByLayer
 62
    1
370
   -1
100
AcDbLine
 10
97.47004551931855
 20
123.2816569133435
 11
97.47004551931855
 21
119.7815369133434
  0
LINE
  5
184
100
AcDbEntity
  8
0
  6
ByLayer
 62
    1
370
   -1
100
AcDbLine
 10
97.47004551931855
 20
119.7815369133434
 11
98.28284551931853
 21
119.7815369133435
  0
LINE
  5
185
100
AcDbEntity
  8
0
  6
ByLayer
 62
    1
370
   -1
100
AcDbLine
 10
98.28284551931853
 20
119.7815369133435
 11
98.28284551931858
 21
118.8010969133434
  0
LINE
  5
186
100
AcDbEntity
  8
0
  6
ByLayer
 62
    1
370
   -1
100
AcDbLine
 10
98.28284551931858
 20
118.8010969133434
 11
112.2528455193186
 21
118.8010969133435
  0
LINE
  5
187
100
AcDbEntity
  8
0
  6
ByLayer
 62
    1
370
   -1
100
AcDbLine
 10
112.2528455193186
 20
118.8010969133435
 11
112.2528455193185
 21
119.7815369133434
  0
LINE
  5
188
100
AcDbEntity
  8
0
  6
ByLayer
 62
    1
370
   -1
100
AcDbLine
 10
112.2528455193185
 20
119.7815369133434
 11
113.0656455193185
 21
119.7815369133435
  0
LINE
  5
189
100
AcDbEntity
  8
0
  6
ByLayer
 62
    1
370
   -1
100
AcDbLine
 10
113.0656455193185
 20
119.7815369133435
 11
113.0656455193185
 21
123.2816569133435
  0
LINE
  5
18A
100
AcDbEntity
  8
0
  6
ByLayer
 62
    1
370
   -1
100
AcDbLine
 10
113.0656455193185
 20
123.2816569133435
 11
112.2528455193185
 21
123.2816569133435
  0
LINE
  5
18B
100
AcDbEntity
  8
0
  6
ByLayer
 62
    1
370
   -1
100
AcDbLine
 10
112.2528455193185
 20
123.2816569133435
 11
112.2528455193185
 21
128.2905369133435
  0
LINE
  5
18C
100
AcDbEntity
  8
0
  6
ByLayer
 62
    1
370
   -1
100
AcDbLine
 10
112.2528455193185
 20
128.2905369133435
 11
113.0656455193186
 21
128.2905369133435
  0
LINE
  5
18D
100
AcDbEntity
  8
0
  6
ByLayer
 62
    1
370
   -1
100
AcDbLine
 10
113.0656455193186
 20
128.2905369133435
 11
113.0656455193186
 21
131.7906569133434
  0
LINE
  5
18E
100
AcDbEntity
  8
0
  6
ByLayer
 62
    1
370
   -1
100
AcDbLine
 10
113.0656455193186
 20
131.7906569133434
 11
112.2528455193186
 21
131.7906569133435
  0
LINE
  5
18F
100
AcDbEntity
  8
0
  6
ByLayer
 62
    1
370
   -1
100
AcDbLine
 10
112.2528455193186
 20
131.7906569133435
 11
112.2528455193186
 21
132.7710969133435
  0
LINE
  5
190
100
AcDbEntity
  8
0
  6
ByLayer
 62
    1
370
   -1
100
AcDbLine
 10
131.3028455193185
 20
131.1734369133434
 11
117.3328455193185
 21
131.1734369133435
  0
LINE
  5
191
100
AcDbEntity
  8
0
  6
ByLayer
 62
    1
370
   -1
100
AcDbLine
 10
117.3328455193185
 20
131.1734369133435
 11
117.3328455193185
 21
130.1929969133435
  0
LINE
  5
192
100
AcDbEntity
  8
0
  6
ByLayer
 62
    1
370
   -1
100
AcDbLine
 10
117.3328455193185
 20
130.1929969133435
 11
116.5200455193185
 21
130.1929969133434
  0
LINE
  5
193
100
AcDbEntity
  8
0
  6
ByLayer
 62
    1
370
   -1
100
AcDbLine
 10
116.5200455193185
 20
130.1929969133434
 11
116.5200455193185
 21
126.6928769133434
  0
LINE
  5
194
100
AcDbEntity
  8
0
  6
ByLayer
 62
    1
370
   -1
100
AcDbLine
 10
116.5200455193185
 20
126.6928769133434
 11
117.3328455193185
 21
126.6928769133434
  0
LINE
  5
195
100
AcDbEntity
  8
0
  6
ByLayer
 62
    1
370
   -1
100
AcDbLine
 10
117.3328455193185
 20
126.6928769133434
 11
117.3328455193185
 21
121.6839969133435
  0
LINE
  5
196
100
AcDbEntity
  8
0
  6
ByLayer
 62
    1
370
   -1
100
AcDbLine
 10
117.3328455193185
 20
121.6839969133435
 11
116.5200455193185
 21
121.6839969133435
  0
LINE
  5
197
100
AcDbEntity
  8
0
  6
ByLayer
 62
    1
370
   -1
100
AcDbLine
 10
116.5200455193185
 20
121.6839969133435
 11
116.5200455193185
 21
118.1838769133434
  0
LINE
  5
198
100
AcDbEntity
  8
0
  6
ByLayer
 62
    1
370
   -1
100
AcDbLine
 10
116.5200455193185
 20
118.1838769133434
 11
117.3328455193185
 21
118.1838769133436
  0
LINE
  5
199
100
AcDbEntity
  8
0
  6
ByLayer
 62
    1
370
   -1
100
AcDbLine
 10
117.3328455193185
 20
118.1838769133436
 11
117.3328455193185
 21
117.2034369133435
  0
LINE
  5
19A
100
AcDbEntity
  8
0
  6
ByLayer
 62
    1
370
   -1
100
AcDbLine
 10
117.3328455193185
 20
117.2034369133435
 11
131.3028455193185
 21
117.2034369133434
  0
LINE
  5
19B
100
AcDbEntity
  8
0
  6
ByLayer
 62
    1
370
   -1
100
AcDbLine
 10
131.3028455193185
 20
117.2034369133434
 11
131.3028455193185
 21
118.1838769133435
  0
LINE
  5
19C
100
AcDbEntity
  8
0
  6
ByLayer
 62
    1
370
   -1
100
AcDbLine
 10
131.3028455193185
 20
118.1838769133435
 11
132.1156455193185
 21
118.1838769133435
  0
LINE
  5
19D
100
AcDbEntity
  8
0
  6
ByLayer
 62
    1
370
   -1
100
AcDbLine
 10
132.1156455193185
 20
118.1838769133435
 11
132.1156455193185
 21
121.6839969133435
  0
LINE
  5
19E
100
AcDbEntity
  8
0
  6
ByLayer
 62
    1
370
   -1
100
AcDbLine
 10
132.1156455193185
 20
121.6839969133435
 11
131.3028455193185
 21
121.6839969133434
  0
LINE
  5
19F
100
AcDbEntity
  8
0
  6
ByLayer
 62
    1
370
   -1
100
AcDbLine
 10
131.3028455193185
 20
121.6839969133434
 11
131.3028455193185
 21
126.6928769133435
  0
LINE
  5
1A0
100
AcDbEntity
  8
0
  6
ByLayer
 62
    1
370
   -1
100
AcDbLine
 10
131.3028455193185
 20
126.6928769133435
 11
132.1156455193186
 21
126.6928769133436
  0
LINE
  5
1A1
100
AcDbEntity
  8
0
  6
ByLayer
 62
    1
370
   -1
100
AcDbLine
 10
132.1156455193186
 20
126.6928769133436
 11
132.1156455193186
 21
130.1929969133435
  0
LINE
  5
1A2
100
AcDbEntity
  8
0
  6
ByLayer
 62
    1
370
   -1
100
AcDbLine
 10
132.1156455193186
 20
130.1929969133435
 11
131.3028455193185
 21
130.1929969133434
  0
LINE
  5
1A3
100
AcDbEntity
  8
0
  6
ByLayer
 62
    1
370
   -1
100
AcDbLine
 10
131.3028455193185
 20
130.1929969133434
 11
131.3028455193185
 21
131.1734369133434
  0
LINE
  5
1A4
100
AcDbEntity
  8
0
  6
ByLayer
 62
    1
370
   -1
100
AcDbLine
 10
74.15284551931853
 20
108.9484369133435
 11
60.18284551931856
 21
108.9484369133435
  0
LINE
  5
1A5
100
AcDbEntity
  8
0
  6
ByLayer
 62
    1
370
   -1
100
AcDbLine
 10
60.18284551931856
 20
108.9484369133435
 11
60.18284551931856
 21
107.9679969133435
  0
LINE
  5
1A6
100
AcDbEntity
  8
0
  6
ByLayer
 62
    1
370
   -1
100
AcDbLine
 10
60.18284551931856
 20
107.9679969133435
 11
59.37004551931852
 21
107.9679969133436
  0
LINE
  5
1A7
100
AcDbEntity
  8
0
  6
ByLayer
 62
    1
370
   -1
100
AcDbLine
 10
59.37004551931852
 20
107.9679969133436
 11
59.37004551931852
 21
104.4678769133435
  0
LINE
  5
1A8
100
AcDbEntity
  8
0
  6
ByLayer
 62
    1
370
   -1
100
AcDbLine
 10
59.37004551931852
 20
104.4678769133435
 11
60.18284551931856
 21
104.4678769133435
  0
LINE
  5
1A9
100
AcDbEntity
  8
0
  6
ByLayer
 62
    1
370
   -1
100
AcDbLine
 10
60.18284551931856
 20
104.4678769133435
 11
60.18284551931856
 21
99.45899691334351
  0
LINE
  5
1AA
100
AcDbEntity
  8
0
  6
ByLayer
 62
    1
370
   -1
100
AcDbLine
 10
60.18284551931856
 20
99.45899691334351
 11
59.37004551931852
 21
99.45899691334351
  0
LINE
  5
1AB
100
AcDbEntity
  8
0
  6
ByLayer
 62
    1
370
   -1
100
AcDbLine
 10
59.37004551931852
 20
99.45899691334351
 11
59.37004551931852
 21
95.95887691334352
  0
LINE
  5
1AC
100
AcDbEntity
  8
0
  6
ByLayer
 62
    1
370
   -1
100
AcDbLine
 10
59.37004551931852
 20
95.95887691334352
 11
60.18284551931856
 21
95.95887691334342
  0
LINE
  5
1AD
100
AcDbEntity
  8
0
  6
ByLayer
 62
    1
370
   -1
100
AcDbLine
 10
60.18284551931856
 20
95.95887691334342
 11
60.18284551931856
 21
94.97843691334351
  0
LINE
  5
1AE
100
AcDbEntity
  8
0
  6
ByLayer
 62
    1
370
   -1
100
AcDbLine
 10
60.18284551931856
 20
94.97843691334351
 11
74.15284551931859
 21
94.97843691334351
  0
LINE
  5
1AF
100
AcDbEntity
  8
0
  6
ByLayer
 62
    1
370
   -1
100
AcDbLine
 10
74.15284551931859
 20
94.97843691334351
 11
74.15284551931853
 21
95.95887691334352
  0
LINE
  5
1B0
100
AcDbEntity
  8
0
  6
ByLayer
 62
    1
370
   -1
100
AcDbLine
 10
74.15284551931853
 20
95.95887691334352
 11
74.96564551931851
 21
95.95887691334342
  0
LINE
  5
1B1
100
AcDbEntity
  8
0
  6
ByLayer
 62
    1
370
   -1
100
AcDbLine
 10
74.96564551931851
 20
95.95887691334342
 11
74.96564551931851
 21
99.45899691334351
  0
LINE
  5
1B2
100
AcDbEntity
  8
0
  6
ByLayer
 62
    1
370
   -1
100
AcDbLine
 10
74.96564551931851
 20
99.45899691334351
 11
74.15284551931853
 21
99.45899691334351
  0
LINE
  5
1B3
100
AcDbEntity
  8
0
  6
ByLayer
 62
    1
370
   -1
100
AcDbLine
 10
74.15284551931853
 20
99.45899691334351
 11
74.15284551931853
 21
104.4678769133435
  0
LINE
  5
1B4
100
AcDbEntity
  8
0
  6
ByLayer
 62
    1
370
   -1
100
AcDbLine
 10
74.15284551931853
 20
104.4678769133435
 11
74.96564551931857
 21
104.4678769133435
  0
LINE
  5
1B5
100
AcDbEntity
  8
0
  6
ByLayer
 62
    1
370
   -1
100
AcDbLine
 10
74.96564551931857
 20
104.4678769133435
 11
74.96564551931851
 21
107.9679969133435
  0
LINE
  5
1B6
100
AcDbEntity
  8
0
  6
ByLayer
 62
    1
370
   -1
100
AcDbLine
 10
74.96564551931851
 20
107.9679969133435
 11
74.15284551931859
 21
107.9679969133435
  0
LINE
  5
1B7
100
AcDbEntity
  8
0
  6
ByLayer
 62
    1
370
   -1
100
AcDbLine
 10
74.15284551931859
 20
107.9679969133435
 11
74.15284551931853
 21
108.9484369133435
  0
LINE
  5
1B8
100
AcDbEntity
  8
0
  6
ByLayer
 62
    1
370
   -1
100
AcDbLine
 10
93.20284551931854
 20
112.1234369133436
 11
79.23284551931852
 21
112.1234369133434
  0
LINE
  5
1B9
100
AcDbEntity
  8
0
  6
ByLayer
 62
    1
370
   -1
100
AcDbLine
 10
79.23284551931852
 20
112.1234369133434
 11
79.23284551931852
 21
111.1429969133435
  0
LINE
  5
1BA
100
AcDbEntity
  8
0
  6
ByLayer
 62
    1
370
   -1
100
AcDbLine
 10
79.23284551931852
 20
111.1429969133435
 11
78.42004551931853
 21
111.1429969133435
  0
LINE
  5
1BB
100
AcDbEntity
  8
0
  6
ByLayer
 62
    1
370
   -1
100
AcDbLine
 10
78.42004551931853
 20
111.1429969133435
 11
78.42004551931853
 21
107.6428769133435
  0
LINE
  5
1BC
100
AcDbEntity
  8
0
  6
ByLayer
 62
    1
370
   -1
100
AcDbLine
 10
78.42004551931853
 20
107.6428769133435
 11
79.23284551931857
 21
107.6428769133435
  0
LINE
  5
1BD
100
AcDbEntity
  8
0
  6
ByLayer
 62
    1
370
   -1
100
AcDbLine
 10
79.23284551931857
 20
107.6428769133435
 11
79.23284551931857
 21
102.6339969133435
  0
LINE
  5
1BE
100
AcDbEntity
  8
0
  6
ByLayer
 62
    1
370
   -1
100
AcDbLine
 10
79.23284551931857
 20
102.6339969133435
 11
78.42004551931859
 21
102.6339969133435
  0
LINE
  5
1BF
100
AcDbEntity
  8
0
  6
ByLayer
 62
    1
370
   -1
100
AcDbLine
 10
78.42004551931859
 20
102.6339969133435
 11
78.42004551931853
 21
99.13387691334351
  0
LINE
  5
1C0
100
AcDbEntity
  8
0
  6
ByLayer
 62
    1
370
   -1
100
AcDbLine
 10
78.42004551931853
 20
99.13387691334351
 11
79.23284551931857
 21
99.13387691334351
  0
LINE
  5
1C1
100
AcDbEntity
  8
0
  6
ByLayer
 62
    1
370
   -1
100
AcDbLine
 10
79.23284551931857
 20
99.13387691334351
 11
79.23284551931852
 21
98.15343691334341
  0
LINE
  5
1C2
100
AcDbEntity
  8
0
  6
ByLayer
 62
    1
370
   -1
100
AcDbLine
 10
79.23284551931852
 20
98.15343691334341
 11
93.20284551931854
 21
98.15343691334341
  0
LINE
  5
1C3
100
AcDbEntity
  8
0
  6
ByLayer
 62
    1
370
   -1
100
AcDbLine
 10
93.20284551931854
 20
98.15343691334341
 11
93.20284551931854
 21
99.13387691334351
  0
LINE
  5
1C4
100
AcDbEntity
  8
0
  6
ByLayer
 62
    1
370
   -1
100
AcDbLine
 10
93.20284551931854
 20
99.13387691334351
 11
94.01564551931858
 21
99.13387691334351
  0
LINE
  5
1C5
100
AcDbEntity
  8
0
  6
ByLayer
 62
    1
370
   -1
100
AcDbLine
 10
94.01564551931858
 20
99.13387691334351
 11
94.01564551931853
 21
102.6339969133435
  0
LINE
  5
1C6
100
AcDbEntity
  8
0
  6
ByLayer
 62
    1
370
   -1
100
AcDbLine
 10
94.01564551931853
 20
102.6339969133435
 11
93.20284551931854
 21
102.6339969133436
  0
LINE
  5
1C7
100
AcDbEntity
  8
0
  6
ByLayer
 62
    1
370
   -1
100
AcDbLine
 10
93.20284551931854
 20
102.6339969133436
 11
93.20284551931854
 21
107.6428769133435
  0
LINE
  5
1C8
100
AcDbEntity
  8
0
  6
ByLayer
 62
    1
370
   -1
100
AcDbLine
 10
93.20284551931854
 20
107.6428769133435
 11
94.01564551931853
 21
107.6428769133435
  0
LINE
  5
1C9
100
AcDbEntity
  8
0
  6
ByLayer
 62
    1
370
   -1
100
AcDbLine
 10
94.01564551931853
 20
107.6428769133435
 11
94.01564551931853
 21
111.1429969133434
  0
LINE
  5
1CA
100
AcDbEntity
  8
0
  6
ByLayer
 62
    1
370
   -1
100
AcDbLine
 10
94.01564551931853
 20
111.1429969133434
 11
93.20284551931854
 21
111.1429969133435
  0
LINE
  5
1CB
100
AcDbEntity
  8
0
  6
ByLayer
 62
    1
370
   -1
100
AcDbLine
 10
93.20284551931854
 20
111.1429969133435
 11
93.20284551931854
 21
112.1234369133436
  0
LINE
  5
1CC
100
AcDbEntity
  8
0
  6
ByLayer
 62
    1
370
   -1
100
AcDbLine
 10
112.2528455193185
 20
113.7210969133434
 11
98.28284551931853
 21
113.7210969133435
  0
LINE
  5
1CD
100
AcDbEntity
  8
0
  6
ByLayer
 62
    1
370
   -1
100
AcDbLine
 10
98.28284551931853
 20
113.7210969133435
 11
98.28284551931858
 21
112.7406569133435
  0
LINE
  5
1CE
100
AcDbEntity
  8
0
  6
ByLayer
 62
    1
370
   -1
100
AcDbLine
 10
98.28284551931858
 20
112.7406569133435
 11
97.47004551931855
 21
112.7406569133436
  0
LINE
  5
1CF
100
AcDbEntity
  8
0
  6
ByLayer
 62
    1
370
   -1
100
AcDbLine
 10
97.47004551931855
 20
112.7406569133436
 11
97.47004551931855
 21
109.2405369133434
  0
LINE
  5
1D0
100
AcDbEntity
  8
0
  6
ByLayer
 62
    1
370
   -1
100
AcDbLine
 10
97.47004551931855
 20
109.2405369133434
 11
98.28284551931853
 21
109.2405369133434
  0
LINE
  5
1D1
100
AcDbEntity
  8
0
  6
ByLayer
 62
    1
370
   -1
100
AcDbLine
 10
98.28284551931853
 20
109.2405369133434
 11
98.28284551931858
 21
104.2316569133435
  0
LINE
  5
1D2
100
AcDbEntity
  8
0
  6
ByLayer
 62
    1
370
   -1
100
AcDbLine
 10
98.28284551931858
 20
104.2316569133435
 11
97.47004551931855
 21
104.2316569133434
  0
LINE
  5
1D3
100
AcDbEntity
  8
0
  6
ByLayer
 62
    1
370
   -1
100
AcDbLine
 10
97.47004551931855
 20
104.2316569133434
 11
97.47004551931855
 21
100.7315369133434
  0
LINE
  5
1D4
100
AcDbEntity
  8
0
  6
ByLayer
 62
    1
370
   -1
100
AcDbLine
 10
97.47004551931855
 20
100.7315369133434
 11
98.28284551931853
 21
100.7315369133434
  0
LINE
  5
1D5
100
AcDbEntity
  8
0
  6
ByLayer
 62
    1
370
   -1
100
AcDbLine
 10
98.28284551931853
 20
100.7315369133434
 11
98.28284551931853
 21
99.75109691334352
  0
LINE
  5
1D6
100
AcDbEntity
  8
0
  6
ByLayer
 62
    1
370
   -1
100
AcDbLine
 10
98.28284551931853
 20
99.75109691334352
 11
112.2528455193186
 21
99.75109691334362
  0
LINE
  5
1D7
100
AcDbEntity
  8
0
  6
ByLayer
 62
    1
370
   -1
100
AcDbLine
 10
112.2528455193186
 20
99.75109691334362
 11
112.2528455193185
 21
100.7315369133435
  0
LINE
  5
1D8
100
AcDbEntity
  8
0
  6
ByLayer
 62
    1
370
   -1
100
AcDbLine
 10
112.2528455193185
 20
100.7315369133435
 11
113.0656455193185
 21
100.7315369133435
  0
LINE
  5
1D9
100
AcDbEntity
  8
0
  6
ByLayer
 62
    1
370
   -1
100
AcDbLine
 10
113.0656455193185
 20
100.7315369133435
 11
113.0656455193186
 21
104.2316569133435
  0
LINE
  5
1DA
100
AcDbEntity
  8
0
  6
ByLayer
 62
    1
370
   -1
100
AcDbLine
 10
113.0656455193186
 20
104.2316569133435
 11
112.2528455193185
 21
104.2316569133435
  0
LINE
  5
1DB
100
AcDbEntity
  8
0
  6
ByLayer
 62
    1
370
   -1
100
AcDbLine
 10
112.2528455193185
 20
104.2316569133435
 11
112.2528455193185
 21
109.2405369133435
  0
LINE
  5
1DC
100
AcDbEntity
  8
0
  6
ByLayer
 62
    1
370
   -1
100
AcDbLine
 10
112.2528455193185
 20
109.2405369133435
 11
113.0656455193186
 21
109.2405369133435
  0
LINE
  5
1DD
100
AcDbEntity
  8
0
  6
ByLayer
 62
    1
370
   -1
100
AcDbLine
 10
113.0656455193186
 20
109.2405369133435
 11
113.0656455193186
 21
112.7406569133435
  0
LINE
  5
1DE
100
AcDbEntity
  8
0
  6
ByLayer
 62
    1
370
   -1
100
AcDbLine
 10
113.0656455193186
 20
112.7406569133435
 11
112.2528455193186
 21
112.7406569133436
  0
LINE
  5
1DF
100
AcDbEntity
  8
0
  6
ByLayer
 62
    1
370
   -1
100
AcDbLine
 10
112.2528455193186
 20
112.7406569133436
 11
112.2528455193185
 21
113.7210969133434
  0
LINE
  5
1E0
100
AcDbEntity
  8
0
  6
ByLayer
 62
    1
370
   -1
100
AcDbLine
 10
131.3028455193185
 20
112.1234369133435
 11
117.3328455193185
 21
112.1234369133436
  0
LINE
  5
1E1
100
AcDbEntity
  8
0
  6
ByLayer
 62
    1
370
   -1
100
AcDbLine
 10
117.3328455193185
 20
112.1234369133436
 11
117.3328455193185
 21
111.1429969133436
  0
LINE
  5
1E2
100
AcDbEntity
  8
0
  6
ByLayer
 62
    1
370
   -1
100
AcDbLine
 10
117.3328455193185
 20
111.1429969133436
 11
116.5200455193185
 21
111.1429969133434
  0
LINE
  5
1E3
100
AcDbEntity
  8
0
  6
ByLayer
 62
    1
370
   -1
100
AcDbLine
 10
116.5200455193185
 20
111.1429969133434
 11
116.5200455193185
 21
107.6428769133435
  0
LINE
  5
1E4
100
AcDbEntity
  8
0
  6
ByLayer
 62
    1
370
   -1
100
AcDbLine
 10
116.5200455193185
 20
107.6428769133435
 11
117.3328455193185
 21
107.6428769133436
  0
LINE
  5
1E5
100
AcDbEntity
  8
0
  6
ByLayer
 62
    1
370
   -1
100
AcDbLine
 10
117.3328455193185
 20
107.6428769133436
 11
117.3328455193185
 21
102.6339969133436
  0
LINE
  5
1E6
100
AcDbEntity
  8
0
  6
ByLayer
 62
    1
370
   -1
100
AcDbLine
 10
117.3328455193185
 20
102.6339969133436
 11
116.5200455193185
 21
102.6339969133434
  0
LINE
  5
1E7
100
AcDbEntity
  8
0
  6
ByLayer
 62
    1
370
   -1
100
AcDbLine
 10
116.5200455193185
 20
102.6339969133434
 11
116.5200455193185
 21
99.13387691334351
  0
LINE
  5
1E8
100
AcDbEntity
  8
0
  6
ByLayer
 62
    1
370
   -1
100
AcDbLine
 10
116.5200455193185
 20
99.13387691334351
 11
117.3328455193185
 21
99.13387691334351
  0
LINE
  5
1E9
100
AcDbEntity
  8
0
  6
ByLayer
 62
    1
370
   -1
100
AcDbLine
 10
117.3328455193185
 20
99.13387691334351
 11
117.3328455193185
 21
98.15343691334351
  0
LINE
  5
1EA
100
AcDbEntity
  8
0
  6
ByLayer
 62
    1
370
   -1
100
AcDbLine
 10
117.3328455193185
 20
98.15343691334351
 11
131.3028455193185
 21
98.15343691334351
  0
LINE
  5
1EB
100
AcDbEntity
  8
0
  6
ByLayer
 62
    1
370
   -1
100
AcDbLine
 10
131.3028455193185
 20
98.15343691334351
 11
131.3028455193185
 21
99.13387691334341
  0
LINE
  5
1EC
100
AcDbEntity
  8
0
  6
ByLayer
 62
    1
370
   -1
100
AcDbLine
 10
131.3028455193185
 20
99.13387691334341
 11
132.1156455193185
 21
99.13387691334351
  0
LINE
  5
1ED
100
AcDbEntity
  8
0
  6
ByLayer
 62
    1
370
   -1
100
AcDbLine
 10
132.1156455193185
 20
99.13387691334351
 11
132.1156455193185
 21
102.6339969133435
  0
LINE
  5
1EE
100
AcDbEntity
  8
0
  6
ByLayer
 62
    1
370
   -1
100
AcDbLine
 10
132.1156455193185
 20
102.6339969133435
 11
131.3028455193185
 21
102.6339969133434
  0
LINE
  5
1EF
100
AcDbEntity
  8
0
  6
ByLayer
 62
    1
370
   -1
100
AcDbLine
 10
131.3028455193185
 20
102.6339969133434
 11
131.3028455193185
 21
107.6428769133435
  0
LINE
  5
1F0
100
AcDbEntity
  8
0
  6
ByLayer
 62
    1
370
   -1
100
AcDbLine
 10
131.3028455193185
 20
107.6428769133435
 11
132.1156455193185
 21
107.6428769133435
  0
LINE
  5
1F1
100
AcDbEntity
  8
0
  6
ByLayer
 62
    1
370
   -1
100
AcDbLine
 10
132.1156455193185
 20
107.6428769133435
 11
132.1156455193185
 21
111.1429969133435
  0
LINE
  5
1F2
100
AcDbEntity
  8
0
  6
ByLayer
 62
    1
370
   -1
100
AcDbLine
 10
132.1156455193185
 20
111.1429969133435
 11
131.3028455193185
 21
111.1429969133435
  0
LINE
  5
1F3
100
AcDbEntity
  8
0
  6
ByLayer
 62
    1
370
   -1
100
AcDbLine
 10
131.3028455193185
 20
111.1429969133435
 11
131.3028455193185
 21
112.1234369133435
  0
LINE
  5
1F4
100
AcDbEntity
  8
0
  6
ByLayer
 62
    1
370
   -1
100
AcDbLine
 10
150.3528455193185
 20
110.8534369133435
 11
136.3828455193186
 21
110.8534369133435
  0
LINE
  5
1F5
100
AcDbEntity
  8
0
  6
ByLayer
 62
    1
370
   -1
100
AcDbLine
 10
136.3828455193186
 20
110.8534369133435
 11
136.3828455193186
 21
109.8729969133435
  0
LINE
  5
1F6
100
AcDbEntity
  8
0
  6
ByLayer
 62
    1
370
   -1
100
AcDbLine
 10
136.3828455193186
 20
109.8729969133435
 11
135.5700455193185
 21
109.8729969133435
  0
LINE
  5
1F7
100
AcDbEntity
  8
0
  6
ByLayer
 62
    1
370
   -1
100
AcDbLine
 10
135.5700455193185
 20
109.8729969133435
 11
135.5700455193185
 21
106.3728769133434
  0
LINE
  5
1F8
100
AcDbEntity
  8
0
  6
ByLayer
 62
    1
370
   -1
100
AcDbLine
 10
135.5700455193185
 20
106.3728769133434
 11
136.3828455193186
 21
106.3728769133434
  0
LINE
  5
1F9
100
AcDbEntity
  8
0
  6
ByLayer
 62
    1
370
   -1
100
AcDbLine
 10
136.3828455193186
 20
106.3728769133434
 11
136.3828455193186
 21
101.3639969133435
  0
LINE
  5
1FA
100
AcDbEntity
  8
0
  6
ByLayer
 62
    1
370
   -1
100
AcDbLine
 10
136.3828455193186
 20
101.3639969133435
 11
135.5700455193185
 21
101.3639969133435
  0
LINE
  5
1FB
100
AcDbEntity
  8
0
  6
ByLayer
 62
    1
370
   -1
100
AcDbLine
 10
135.5700455193185
 20
101.3639969133435
 11
135.5700455193185
 21
97.86387691334342
  0
LINE
  5
1FC
100
AcDbEntity
  8
0
  6
ByLayer
 62
    1
370
   -1
100
AcDbLine
 10
135.5700455193185
 20
97.86387691334342
 11
136.3828455193186
 21
97.86387691334352
  0
LINE
  5
1FD
100
AcDbEntity
  8
0
  6
ByLayer
 62
    1
370
   -1
100
AcDbLine
 10
136.3828455193186
 20
97.86387691334352
 11
136.3828455193186
 21
96.88343691334352
  0
LINE
  5
1FE
100
AcDbEntity
  8
0
  6
ByLayer
 62
    1
370
   -1
100
AcDbLine
 10
136.3828455193186
 20
96.88343691334352
 11
150.3528455193185
 21
96.88343691334352
  0
LINE
  5
1FF
100
AcDbEntity
  8
0
  6
ByLayer
 62
    1
370
   -1
100
AcDbLine
 10
150.3528455193185
 20
96.88343691334352
 11
150.3528455193185
 21
97.86387691334352
  0
LINE
  5
200
100
AcDbEntity
  8
0
  6
ByLayer
 62
    1
370
   -1
100
AcDbLine
 10
150.3528455193185
 20
97.86387691334352
 11
151.1656455193185
 21
97.86387691334342
  0
LINE
  5
201
100
AcDbEntity
  8
0
  6
ByLayer
 62
    1
370
   -1
100
AcDbLine
 10
151.1656455193185
 20
97.86387691334342
 11
151.1656455193185
 21
101.3639969133434
  0
LINE
  5
202
100
AcDbEntity
  8
0
  6
ByLayer
 62
    1
370
   -1
100
AcDbLine
 10
151.1656455193185
 20
101.3639969133434
 11
150.3528455193185
 21
101.3639969133435
  0
LINE
  5
203
100
AcDbEntity
  8
0
  6
ByLayer
 62
    1
370
   -1
100
AcDbLine
 10
150.3528455193185
 20
101.3639969133435
 11
150.3528455193185
 21
106.3728769133435
  0
LINE
  5
204
100
AcDbEntity
  8
0
  6
ByLayer
 62
    1
370
   -1
100
AcDbLine
 10
150.3528455193185
 20
106.3728769133435
 11
151.1656455193185
 21
106.3728769133435
  0
LINE
  5
205
100
AcDbEntity
  8
0
  6
ByLayer
 62
    1
370
   -1
100
AcDbLine
 10
151.1656455193185
 20
106.3728769133435
 11
151.1656455193185
 21
109.8729969133435
  0
LINE
  5
206
100
AcDbEntity
  8
0
  6
ByLayer
 62
    1
370
   -1
100
AcDbLine
 10
151.1656455193185
 20
109.8729969133435
 11
150.3528455193185
 21
109.8729969133435
  0
LINE
  5
207
100
AcDbEntity
  8
0
  6
ByLayer
 62
    1
370
   -1
100
AcDbLine
 10
150.3528455193185
 20
109.8729969133435
 11
150.3528455193185
 21
110.8534369133435
  0
LINE
  5
208
100
AcDbEntity
  8
0
  6
ByLayer
 62
    1
370
   -1
100
AcDbLine
 10
74.15284551931853
 20
89.89843691334342
 11
60.18284551931856
 21
89.89843691334342
  0
LINE
  5
209
100
AcDbEntity
  8
0
  6
ByLayer
 62
    1
370
   -1
100
AcDbLine
 10
60.18284551931856
 20
89.89843691334342
 11
60.18284551931856
 21
88.91799691334352
  0
LINE
  5
20A
100
AcDbEntity
  8
0
  6
ByLayer
 62
    1
370
   -1
100
AcDbLine
 10
60.18284551931856
 20
88.91799691334352
 11
59.37004551931852
 21
88.91799691334352
  0
LINE
  5
20B
100
AcDbEntity
  8
0
  6
ByLayer
 62
    1
370
   -1
100
AcDbLine
 10
59.37004551931852
 20
88.91799691334352
 11
59.37004551931852
 21
85.41787691334343
  0
LINE
  5
20C
100
AcDbEntity
  8
0
  6
ByLayer
 62
    1
370
   -1
100
AcDbLine
 10
59.37004551931852
 20
85.41787691334343
 11
60.18284551931856
 21
85.41787691334346
  0
LINE
  5
20D
100
AcDbEntity
  8
0
  6
ByLayer
 62
    1
370
   -1
100
AcDbLine
 10
60.18284551931856
 20
85.41787691334346
 11
60.18284551931856
 21
80.4089969133436
  0
LINE
  5
20E
100
AcDbEntity
  8
0
  6
ByLayer
 62
    1
370
   -1
100
AcDbLine
 10
60.18284551931856
 20
80.4089969133436
 11
59.37004551931852
 21
80.40899691334357
  0
LINE
  5
20F
100
AcDbEntity
  8
0
  6
ByLayer
 62
    1
370
   -1
100
AcDbLine
 10
59.37004551931852
 20
80.40899691334357
 11
59.37004551931852
 21
76.90887691334342
  0
LINE
  5
210
100
AcDbEntity
  8
0
  6
ByLayer
 62
    1
370
   -1
100
AcDbLine
 10
59.37004551931852
 20
76.90887691334342
 11
60.18284551931856
 21
76.90887691334336
  0
LINE
  5
211
100
AcDbEntity
  8
0
  6
ByLayer
 62
    1
370
   -1
100
AcDbLine
 10
60.18284551931856
 20
76.90887691334336
 11
60.18284551931856
 21
75.92843691334366
  0
LINE
  5
212
100
AcDbEntity
  8
0
  6
ByLayer
 62
    1
370
   -1
100
AcDbLine
 10
60.18284551931856
 20
75.92843691334366
 11
74.15284551931853
 21
75.92843691334355
  0
LINE
  5
213
100
AcDbEntity
  8
0
  6
ByLayer
 62
    1
370
   -1
100
AcDbLine
 10
74.15284551931853
 20
75.92843691334355
 11
74.15284551931859
 21
76.90887691334348
  0
LINE
  5
214
100
AcDbEntity
  8
0
  6
ByLayer
 62
    1
370
   -1
100
AcDbLine
 10
74.15284551931859
 20
76.90887691334348
 11
74.96564551931851
 21
76.90887691334345
  0
LINE
  5
215
100
AcDbEntity
  8
0
  6
ByLayer
 62
    1
370
   -1
100
AcDbLine
 10
74.96564551931851
 20
76.90887691334345
 11
74.96564551931851
 21
80.40899691334357
  0
LINE
  5
216
100
AcDbEntity
  8
0
  6
ByLayer
 62
    1
370
   -1
100
AcDbLine
 10
74.96564551931851
 20
80.40899691334357
 11
74.15284551931853
 21
80.40899691334357
  0
LINE
  5
217
100
AcDbEntity
  8
0
  6
ByLayer
 62
    1
370
   -1
100
AcDbLine
 10
74.15284551931853
 20
80.40899691334357
 11
74.15284551931853
 21
85.41787691334332
  0
LINE
  5
218
100
AcDbEntity
  8
0
  6
ByLayer
 62
    1
370
   -1
100
AcDbLine
 10
74.15284551931853
 20
85.41787691334332
 11
74.96564551931851
 21
85.41787691334352
  0
LINE
  5
219
100
AcDbEntity
  8
0
  6
ByLayer
 62
    1
370
   -1
100
AcDbLine
 10
74.96564551931851
 20
85.41787691334352
 11
74.96564551931851
 21
88.91799691334361
  0
LINE
  5
21A
100
AcDbEntity
  8
0
  6
ByLayer
 62
    1
370
   -1
100
AcDbLine
 10
74.96564551931851
 20
88.91799691334361
 11
74.15284551931859
 21
88.91799691334371
  0
LINE
  5
21B
100
AcDbEntity
  8
0
  6
ByLayer
 62
    1
370
   -1
100
AcDbLine
 10
74.15284551931859
 20
88.91799691334371
 11
74.15284551931853
 21
89.89843691334342
  0
LINE
  5
21C
100
AcDbEntity
  8
0
  6
ByLayer
 62
    1
370
   -1
100
AcDbLine
 10
93.20284551931854
 20
93.07343691334351
 11
79.23284551931852
 21
93.07343691334341
  0
LINE
  5
21D
100
AcDbEntity
  8
0
  6
ByLayer
 62
    1
370
   -1
100
AcDbLine
 10
79.23284551931852
 20
93.07343691334341
 11
79.23284551931852
 21
92.09299691334341
  0
LINE
  5
21E
100
AcDbEntity
  8
0
  6
ByLayer
 62
    1
370
   -1
100
AcDbLine
 10
79.23284551931852
 20
92.09299691334341
 11
78.42004551931853
 21
92.09299691334341
  0
LINE
  5
21F
100
AcDbEntity
  8
0
  6
ByLayer
 62
    1
370
   -1
100
AcDbLine
 10
78.42004551931853
 20
92.09299691334341
 11
78.42004551931853
 21
88.59287691334352
  0
LINE
  5
220
100
AcDbEntity
  8
0
  6
ByLayer
 62
    1
370
   -1
100
AcDbLine
 10
78.42004551931853
 20
88.59287691334352
 11
79.23284551931852
 21
88.59287691334352
  0
LINE
  5
221
100
AcDbEntity
  8
0
  6
ByLayer
 62
    1
370
   -1
100
AcDbLine
 10
79.23284551931852
 20
88.59287691334352
 11
79.23284551931852
 21
83.58399691334344
  0
LINE
  5
222
100
AcDbEntity
  8
0
  6
ByLayer
 62
    1
370
   -1
100
AcDbLine
 10
79.23284551931852
 20
83.58399691334344
 11
78.42004551931853
 21
83.58399691334347
  0
LINE
  5
223
100
AcDbEntity
  8
0
  6
ByLayer
 62
    1
370
   -1
100
AcDbLine
 10
78.42004551931853
 20
83.58399691334347
 11
78.42004551931859
 21
80.08387691334357
  0
LINE
  5
224
100
AcDbEntity
  8
0
  6
ByLayer
 62
    1
370
   -1
100
AcDbLine
 10
78.42004551931859
 20
80.08387691334357
 11
79.23284551931852
 21
80.08387691334343
  0
LINE
  5
225
100
AcDbEntity
  8
0
  6
ByLayer
 62
    1
370
   -1
100
AcDbLine
 10
79.23284551931852
 20
80.08387691334343
 11
79.23284551931852
 21
79.1034369133435
  0
LINE
  5
226
100
AcDbEntity
  8
0
  6
ByLayer
 62
    1
370
   -1
100
AcDbLine
 10
79.23284551931852
 20
79.1034369133435
 11
93.20284551931854
 21
79.10343691334353
  0
LINE
  5
227
100
AcDbEntity
  8
0
  6
ByLayer
 62
    1
370
   -1
100
AcDbLine
 10
93.20284551931854
 20
79.10343691334353
 11
93.20284551931854
 21
80.08387691334354
  0
LINE
  5
228
100
AcDbEntity
  8
0
  6
ByLayer
 62
    1
370
   -1
100
AcDbLine
 10
93.20284551931854
 20
80.08387691334354
 11
94.01564551931853
 21
80.08387691334352
  0
LINE
  5
229
100
AcDbEntity
  8
0
  6
ByLayer
 62
    1
370
   -1
100
AcDbLine
 10
94.01564551931853
 20
80.08387691334352
 11
94.01564551931858
 21
83.58399691334364
  0
LINE
  5
22A
100
AcDbEntity
  8
0
  6
ByLayer
 62
    1
370
   -1
100
AcDbLine
 10
94.01564551931858
 20
83.58399691334364
 11
93.20284551931854
 21
83.58399691334355
  0
LINE
  5
22B
100
AcDbEntity
  8
0
  6
ByLayer
 62
    1
370
   -1
100
AcDbLine
 10
93.20284551931854
 20
83.58399691334355
 11
93.20284551931854
 21
88.59287691334342
  0
LINE
  5
22C
100
AcDbEntity
  8
0
  6
ByLayer
 62
    1
370
   -1
100
AcDbLine
 10
93.20284551931854
 20
88.59287691334342
 11
94.01564551931853
 21
88.59287691334362
  0
LINE
  5
22D
100
AcDbEntity
  8
0
  6
ByLayer
 62
    1
370
   -1
100
AcDbLine
 10
94.01564551931853
 20
88.59287691334362
 11
94.01564551931853
 21
92.09299691334351
  0
LINE
  5
22E
100
AcDbEntity
  8
0
  6
ByLayer
 62
    1
370
   -1
100
AcDbLine
 10
94.01564551931853
 20
92.09299691334351
 11
93.20284551931854
 21
92.09299691334351
  0
LINE
  5
22F
100
AcDbEntity
  8
0
  6
ByLayer
 62
    1
370
   -1
100
AcDbLine
 10
93.20284551931854
 20
92.09299691334351
 11
93.20284551931854
 21
93.07343691334351
  0
LINE
  5
230
100
AcDbEntity
  8
0
  6
ByLayer
 62
    1
370
   -1
100
AcDbLine
 10
112.2528455193186
 20
94.67109691334352
 11
98.28284551931853
 21
94.67109691334342
  0
LINE
  5
231
100
AcDbEntity
  8
0
  6
ByLayer
 62
    1
370
   -1
100
AcDbLine
 10
98.28284551931853
 20
94.67109691334342
 11
98.28284551931853
 21
93.69065691334352
  0
LINE
  5
232
100
AcDbEntity
  8
0
  6
ByLayer
 62
    1
370
   -1
100
AcDbLine
 10
98.28284551931853
 20
93.69065691334352
 11
97.47004551931855
 21
93.69065691334342
  0
LINE
  5
233
100
AcDbEntity
  8
0
  6
ByLayer
 62
    1
370
   -1
100
AcDbLine
 10
97.47004551931855
 20
93.69065691334342
 11
97.47004551931855
 21
90.19053691334352
  0
LINE
  5
234
100
AcDbEntity
  8
0
  6
ByLayer
 62
    1
370
   -1
100
AcDbLine
 10
97.47004551931855
 20
90.19053691334352
 11
98.28284551931853
 21
90.19053691334342
  0
LINE
  5
235
100
AcDbEntity
  8
0
  6
ByLayer
 62
    1
370
   -1
100
AcDbLine
 10
98.28284551931853
 20
90.19053691334342
 11
98.28284551931853
 21
85.18165691334349
  0
LINE
  5
236
100
AcDbEntity
  8
0
  6
ByLayer
 62
    1
370
   -1
100
AcDbLine
 10
98.28284551931853
 20
85.18165691334349
 11
97.47004551931855
 21
85.18165691334352
  0
LINE
  5
237
100
AcDbEntity
  8
0
  6
ByLayer
 62
    1
370
   -1
100
AcDbLine
 10
97.47004551931855
 20
85.18165691334352
 11
97.47004551931855
 21
81.68153691334348
  0
LINE
  5
238
100
AcDbEntity
  8
0
  6
ByLayer
 62
    1
370
   -1
100
AcDbLine
 10
97.47004551931855
 20
81.68153691334348
 11
98.28284551931853
 21
81.68153691334339
  0
LINE
  5
239
100
AcDbEntity
  8
0
  6
ByLayer
 62
    1
370
   -1
100
AcDbLine
 10
98.28284551931853
 20
81.68153691334339
 11
98.28284551931853
 21
80.70109691334343
  0
LINE
  5
23A
100
AcDbEntity
  8
0
  6
ByLayer
 62
    1
370
   -1
100
AcDbLine
 10
98.28284551931853
 20
80.70109691334343
 11
112.2528455193185
 21
80.70109691334341
  0
LINE
  5
23B
100
AcDbEntity
  8
0
  6
ByLayer
 62
    1
370
   -1
100
AcDbLine
 10
112.2528455193185
 20
80.70109691334341
 11
112.2528455193186
 21
81.68153691334351
  0
LINE
  5
23C
100
AcDbEntity
  8
0
  6
ByLayer
 62
    1
370
   -1
100
AcDbLine
 10
112.2528455193186
 20
81.68153691334351
 11
113.0656455193185
 21
81.68153691334345
  0
LINE
  5
23D
100
AcDbEntity
  8
0
  6
ByLayer
 62
    1
370
   -1
100
AcDbLine
 10
113.0656455193185
 20
81.68153691334345
 11
113.0656455193185
 21
85.1816569133434
  0
LINE
  5
23E
100
AcDbEntity
  8
0
  6
ByLayer
 62
    1
370
   -1
100
AcDbLine
 10
113.0656455193185
 20
85.1816569133434
 11
112.2528455193185
 21
85.1816569133436
  0
LINE
  5
23F
100
AcDbEntity
  8
0
  6
ByLayer
 62
    1
370
   -1
100
AcDbLine
 10
112.2528455193185
 20
85.1816569133436
 11
112.2528455193186
 21
90.19053691334362
  0
LINE
  5
240
100
AcDbEntity
  8
0
  6
ByLayer
 62
    1
370
   -1
100
AcDbLine
 10
112.2528455193186
 20
90.19053691334362
 11
113.0656455193185
 21
90.19053691334352
  0
LINE
  5
241
100
AcDbEntity
  8
0
  6
ByLayer
 62
    1
370
   -1
100
AcDbLine
 10
113.0656455193185
 20
90.19053691334352
 11
113.0656455193185
 21
93.69065691334342
  0
LINE
  5
242
100
AcDbEntity
  8
0
  6
ByLayer
 62
    1
370
   -1
100
AcDbLine
 10
113.0656455193185
 20
93.69065691334342
 11
112.2528455193185
 21
93.69065691334342
  0
LINE
  5
243
100
AcDbEntity
  8
0
  6
ByLayer
 62
    1
370
   -1
100
AcDbLine
 10
112.2528455193185
 20
93.69065691334342
 11
112.2528455193186
 21
94.67109691334352
  0
LINE
  5
244
100
AcDbEntity
  8
0
  6
ByLayer
 62
    1
370
   -1
100
AcDbLine
 10
131.3028455193185
 20
93.07343691334351
 11
117.3328455193185
 21
93.07343691334351
  0
LINE
  5
245
100
AcDbEntity
  8
0
  6
ByLayer
 62
    1
370
   -1
100
AcDbLine
 10
117.3328455193185
 20
93.07343691334351
 11
117.3328455193185
 21
92.09299691334351
  0
LINE
  5
246
100
AcDbEntity
  8
0
  6
ByLayer
 62
    1
370
   -1
100
AcDbLine
 10
117.3328455193185
 20
92.09299691334351
 11
116.5200455193185
 21
92.09299691334331
  0
LINE
  5
247
100
AcDbEntity
  8
0
  6
ByLayer
 62
    1
370
   -1
100
AcDbLine
 10
116.5200455193185
 20
92.09299691334331
 11
116.5200455193185
 21
88.59287691334342
  0
LINE
  5
248
100
AcDbEntity
  8
0
  6
ByLayer
 62
    1
370
   -1
100
AcDbLine
 10
116.5200455193185
 20
88.59287691334342
 11
117.3328455193185
 21
88.59287691334362
  0
LINE
  5
249
100
AcDbEntity
  8
0
  6
ByLayer
 62
    1
370
   -1
100
AcDbLine
 10
117.3328455193185
 20
88.59287691334362
 11
117.3328455193185
 21
83.5839969133435
  0
LINE
  5
24A
100
AcDbEntity
  8
0
  6
ByLayer
 62
    1
370
   -1
100
AcDbLine
 10
117.3328455193185
 20
83.5839969133435
 11
116.5200455193185
 21
83.58399691334333
  0
LINE
  5
24B
100
AcDbEntity
  8
0
  6
ByLayer
 62
    1
370
   -1
100
AcDbLine
 10
116.5200455193185
 20
83.58399691334333
 11
116.5200455193185
 21
80.0838769133434
  0
LINE
  5
24C
100
AcDbEntity
  8
0
  6
ByLayer
 62
    1
370
   -1
100
AcDbLine
 10
116.5200455193185
 20
80.0838769133434
 11
117.3328455193185
 21
80.08387691334352
  0
LINE
  5
24D
100
AcDbEntity
  8
0
  6
ByLayer
 62
    1
370
   -1
100
AcDbLine
 10
117.3328455193185
 20
80.08387691334352
 11
117.3328455193185
 21
79.10343691334359
  0
LINE
  5
24E
100
AcDbEntity
  8
0
  6
ByLayer
 62
    1
370
   -1
100
AcDbLine
 10
117.3328455193185
 20
79.10343691334359
 11
131.3028455193185
 21
79.10343691334339
  0
LINE
  5
24F
100
AcDbEntity
  8
0
  6
ByLayer
 62
    1
370
   -1
100
AcDbLine
 10
131.3028455193185
 20
79.10343691334339
 11
131.3028455193185
 21
80.08387691334366
  0
LINE
  5
250
100
AcDbEntity
  8
0
  6
ByLayer
 62
    1
370
   -1
100
AcDbLine
 10
131.3028455193185
 20
80.08387691334366
 11
132.1156455193185
 21
80.08387691334354
  0
LINE
  5
251
100
AcDbEntity
  8
0
  6
ByLayer
 62
    1
370
   -1
100
AcDbLine
 10
132.1156455193185
 20
80.08387691334354
 11
132.1156455193185
 21
83.58399691334355
  0
LINE
  5
252
100
AcDbEntity
  8
0
  6
ByLayer
 62
    1
370
   -1
100
AcDbLine
 10
132.1156455193185
 20
83.58399691334355
 11
131.3028455193185
 21
83.58399691334344
  0
LINE
  5
253
100
AcDbEntity
  8
0
  6
ByLayer
 62
    1
370
   -1
100
AcDbLine
 10
131.3028455193185
 20
83.58399691334344
 11
131.3028455193185
 21
88.59287691334352
  0
LINE
  5
254
100
AcDbEntity
  8
0
  6
ByLayer
 62
    1
370
   -1
100
AcDbLine
 10
131.3028455193185
 20
88.59287691334352
 11
132.1156455193185
 21
88.59287691334342
  0
LINE
  5
255
100
AcDbEntity
  8
0
  6
ByLayer
 62
    1
370
   -1
100
AcDbLine
 10
132.1156455193185
 20
88.59287691334342
 11
132.1156455193185
 21
92.09299691334351
  0
LINE
  5
256
100
AcDbEntity
  8
0
  6
ByLayer
 62
    1
370
   -1
100
AcDbLine
 10
132.1156455193185
 20
92.09299691334351
 11
131.3028455193185
 21
92.09299691334351
  0
LINE
  5
257
100
AcDbEntity
  8
0
  6
ByLayer
 62
    1
370
   -1
100
AcDbLine
 10
131.3028455193185
 20
92.09299691334351
 11
131.3028455193185
 21
93.07343691334351
  0
LINE
  5
258
100
AcDbEntity
  8
0
  6
ByLayer
 62
    1
370
   -1
100
AcDbLine
 10
150.3528455193185
 20
91.80343691334342
 11
136.3828455193186
 21
91.80343691334342
  0
LINE
  5
259
100
AcDbEntity
  8
0
  6
ByLayer
 62
    1
370
   -1
100
AcDbLine
 10
136.3828455193186
 20
91.80343691334342
 11
136.3828455193186
 21
90.82299691334352
  0
LINE
  5
25A
100
AcDbEntity
  8
0
  6
ByLayer
 62
    1
370
   -1
100
AcDbLine
 10
136.3828455193186
 20
90.82299691334352
 11
135.5700455193185
 21
90.82299691334342
  0
LINE
  5
25B
100
AcDbEntity
  8
0
  6
ByLayer
 62
    1
370
   -1
100
AcDbLine
 10
135.5700455193185
 20
90.82299691334342
 11
135.5700455193185
 21
87.32287691334349
  0
LINE
  5
25C
100
AcDbEntity
  8
0
  6
ByLayer
 62
    1
370
   -1
100
AcDbLine
 10
135.5700455193185
 20
87.32287691334349
 11
136.3828455193186
 21
87.32287691334344
  0
LINE
  5
25D
100
AcDbEntity
  8
0
  6
ByLayer
 62
    1
370
   -1
100
AcDbLine
 10
136.3828455193186
 20
87.32287691334344
 11
136.3828455193186
 21
82.31399691334349
  0
LINE
  5
25E
100
AcDbEntity
  8
0
  6
ByLayer
 62
    1
370
   -1
100
AcDbLine
 10
136.3828455193186
 20
82.31399691334349
 11
135.5700455193185
 21
82.31399691334352
  0
LINE
  5
25F
100
AcDbEntity
  8
0
  6
ByLayer
 62
    1
370
   -1
100
AcDbLine
 10
135.5700455193185
 20
82.31399691334352
 11
135.5700455193185
 21
78.81387691334348
  0
LINE
  5
260
100
AcDbEntity
  8
0
  6
ByLayer
 62
    1
370
   -1
100
AcDbLine
 10
135.5700455193185
 20
78.81387691334348
 11
136.3828455193186
 21
78.81387691334356
  0
LINE
  5
261
100
AcDbEntity
  8
0
  6
ByLayer
 62
    1
370
   -1
100
AcDbLine
 10
136.3828455193186
 20
78.81387691334356
 11
136.3828455193186
 21
77.83343691334341
  0
LINE
  5
262
100
AcDbEntity
  8
0
  6
ByLayer
 62
    1
370
   -1
100
AcDbLine
 10
136.3828455193186
 20
77.83343691334341
 11
150.3528455193185
 21
77.8334369133436
  0
LINE
  5
263
100
AcDbEntity
  8
0
  6
ByLayer
 62
    1
370
   -1
100
AcDbLine
 10
150.3528455193185
 20
77.8334369133436
 11
150.3528455193185
 21
78.81387691334353
  0
LINE
  5
264
100
AcDbEntity
  8
0
  6
ByLayer
 62
    1
370
   -1
100
AcDbLine
 10
150.3528455193185
 20
78.81387691334353
 11
151.1656455193185
 21
78.81387691334345
  0
LINE
  5
265
100
AcDbEntity
  8
0
  6
ByLayer
 62
    1
370
   -1
100
AcDbLine
 10
151.1656455193185
 20
78.81387691334345
 11
151.1656455193185
 21
82.31399691334352
  0
LINE
  5
266
100
AcDbEntity
  8
0
  6
ByLayer
 62
    1
370
   -1
100
AcDbLine
 10
151.1656455193185
 20
82.31399691334352
 11
150.3528455193185
 21
82.31399691334349
  0
LINE
  5
267
100
AcDbEntity
  8
0
  6
ByLayer
 62
    1
370
   -1
100
AcDbLine
 10
150.3528455193185
 20
82.31399691334349
 11
150.3528455193185
 21
87.32287691334349
  0
LINE
  5
268
100
AcDbEntity
  8
0
  6
ByLayer
 62
    1
370
   -1
100
AcDbLine
 10
150.3528455193185
 20
87.32287691334349
 11
151.1656455193185
 21
87.32287691334349
  0
LINE
  5
269
100
AcDbEntity
  8
0
  6
ByLayer
 62
    1
370
   -1
100
AcDbLine
 10
151.1656455193185
 20
87.32287691334349
 11
151.1656455193185
 21
90.82299691334352
  0
LINE
  5
26A
100
AcDbEntity
  8
0
  6
ByLayer
 62
    1
370
   -1
100
AcDbLine
 10
151.1656455193185
 20
90.82299691334352
 11
150.3528455193185
 21
90.82299691334352
  0
LINE
  5
26B
100
AcDbEntity
  8
0
  6
ByLayer
 62
    1
370
   -1
100
AcDbLine
 10
150.3528455193185
 20
90.82299691334352
 11
150.3528455193185
 21
91.80343691334342
  0
LINE
  5
26C
100
AcDbEntity
  8
0
  6
ByLayer
 62
    1
370
   -1
100
AcDbLine
 10
74.15284551931853
 20
70.84843691334359
 11
60.18284551931856
 21
70.84843691334345
  0
LINE
  5
26D
100
AcDbEntity
  8
0
  6
ByLayer
 62
    1
370
   -1
100
AcDbLine
 10
60.18284551931856
 20
70.84843691334345
 11
60.18284551931856
 21
69.8679969133434
  0
LINE
  5
26E
100
AcDbEntity
  8
0
  6
ByLayer
 62
    1
370
   -1
100
AcDbLine
 10
60.18284551931856
 20
69.8679969133434
 11
59.37004551931852
 21
69.86799691334335
  0
LINE
  5
26F
100
AcDbEntity
  8
0
  6
ByLayer
 62
    1
370
   -1
100
AcDbLine
 10
59.37004551931852
 20
69.86799691334335
 11
59.37004551931852
 21
66.36787691334371
  0
LINE
  5
270
100
AcDbEntity
  8
0
  6
ByLayer
 62
    1
370
   -1
100
AcDbLine
 10
59.37004551931852
 20
66.36787691334371
 11
60.18284551931856
 21
66.36787691334359
  0
LINE
  5
271
100
AcDbEntity
  8
0
  6
ByLayer
 62
    1
370
   -1
100
AcDbLine
 10
60.18284551931856
 20
66.36787691334359
 11
60.18284551931856
 21
61.35899691334325
  0
LINE
  5
272
100
AcDbEntity
  8
0
  6
ByLayer
 62
    1
370
   -1
100
AcDbLine
 10
60.18284551931856
 20
61.35899691334325
 11
59.37004551931852
 21
61.35899691334359
  0
LINE
  5
273
100
AcDbEntity
  8
0
  6
ByLayer
 62
    1
370
   -1
100
AcDbLine
 10
59.37004551931852
 20
61.35899691334359
 11
59.37004551931852
 21
57.85887691334372
  0
LINE
  5
274
100
AcDbEntity
  8
0
  6
ByLayer
 62
    1
370
   -1
100
AcDbLine
 10
59.37004551931852
 20
57.85887691334372
 11
60.18284551931856
 21
57.85887691334347
  0
LINE
  5
275
100
AcDbEntity
  8
0
  6
ByLayer
 62
    1
370
   -1
100
AcDbLine
 10
60.18284551931856
 20
57.85887691334347
 11
60.18284551931856
 21
56.87843691334322
  0
LINE
  5
276
100
AcDbEntity
  8
0
  6
ByLayer
 62
    1
370
   -1
100
AcDbLine
 10
60.18284551931856
 20
56.87843691334322
 11
74.15284551931853
 21
56.87843691334331
  0
LINE
  5
277
100
AcDbEntity
  8
0
  6
ByLayer
 62
    1
370
   -1
100
AcDbLine
 10
74.15284551931853
 20
56.87843691334331
 11
74.15284551931853
 21
57.85887691334355
  0
LINE
  5
278
100
AcDbEntity
  8
0
  6
ByLayer
 62
    1
370
   -1
100
AcDbLine
 10
74.15284551931853
 20
57.85887691334355
 11
74.96564551931851
 21
57.85887691334352
  0
LINE
  5
279
100
AcDbEntity
  8
0
  6
ByLayer
 62
    1
370
   -1
100
AcDbLine
 10
74.96564551931851
 20
57.85887691334352
 11
74.96564551931851
 21
61.35899691334362
  0
LINE
  5
27A
100
AcDbEntity
  8
0
  6
ByLayer
 62
    1
370
   -1
100
AcDbLine
 10
74.96564551931851
 20
61.35899691334362
 11
74.15284551931853
 21
61.35899691334353
  0
LINE
  5
27B
100
AcDbEntity
  8
0
  6
ByLayer
 62
    1
370
   -1
100
AcDbLine
 10
74.15284551931853
 20
61.35899691334353
 11
74.15284551931853
 21
66.36787691334371
  0
LINE
  5
27C
100
AcDbEntity
  8
0
  6
ByLayer
 62
    1
370
   -1
100
AcDbLine
 10
74.15284551931853
 20
66.36787691334371
 11
74.96564551931851
 21
66.36787691334334
  0
LINE
  5
27D
100
AcDbEntity
  8
0
  6
ByLayer
 62
    1
370
   -1
100
AcDbLine
 10
74.96564551931851
 20
66.36787691334334
 11
74.96564551931851
 21
69.86799691334357
  0
LINE
  5
27E
100
AcDbEntity
  8
0
  6
ByLayer
 62
    1
370
   -1
100
AcDbLine
 10
74.96564551931851
 20
69.86799691334357
 11
74.15284551931853
 21
69.86799691334357
  0
LINE
  5
27F
100
AcDbEntity
  8
0
  6
ByLayer
 62
    1
370
   -1
100
AcDbLine
 10
74.15284551931853
 20
69.86799691334357
 11
74.15284551931853
 21
70.84843691334359
  0
LINE
  5
280
100
AcDbEntity
  8
0
  6
ByLayer
 62
    1
370
   -1
100
AcDbLine
 10
112.2528455193185
 20
75.62109691334348
 11
98.28284551931853
 21
75.62109691334342
  0
LINE
  5
281
100
AcDbEntity
  8
0
  6
ByLayer
 62
    1
370
   -1
100
AcDbLine
 10
98.28284551931853
 20
75.62109691334342
 11
98.28284551931853
 21
74.64065691334341
  0
LINE
  5
282
100
AcDbEntity
  8
0
  6
ByLayer
 62
    1
370
   -1
100
AcDbLine
 10
98.28284551931853
 20
74.64065691334341
 11
97.47004551931855
 21
74.64065691334349
  0
LINE
  5
283
100
AcDbEntity
  8
0
  6
ByLayer
 62
    1
370
   -1
100
AcDbLine
 10
97.47004551931855
 20
74.64065691334349
 11
97.47004551931855
 21
71.14053691334354
  0
LINE
  5
284
100
AcDbEntity
  8
0
  6
ByLayer
 62
    1
370
   -1
100
AcDbLine
 10
97.47004551931855
 20
71.14053691334354
 11
98.28284551931853
 21
71.1405369133434
  0
LINE
  5
285
100
AcDbEntity
  8
0
  6
ByLayer
 62
    1
370
   -1
100
AcDbLine
 10
98.28284551931853
 20
71.1405369133434
 11
98.28284551931853
 21
66.13165691334333
  0
LINE
  5
286
100
AcDbEntity
  8
0
  6
ByLayer
 62
    1
370
   -1
100
AcDbLine
 10
98.28284551931853
 20
66.13165691334333
 11
97.47004551931855
 21
66.13165691334348
  0
LINE
  5
287
100
AcDbEntity
  8
0
  6
ByLayer
 62
    1
370
   -1
100
AcDbLine
 10
97.47004551931855
 20
66.13165691334348
 11
97.47004551931855
 21
62.6315369133435
  0
LINE
  5
288
100
AcDbEntity
  8
0
  6
ByLayer
 62
    1
370
   -1
100
AcDbLine
 10
97.47004551931855
 20
62.6315369133435
 11
98.28284551931853
 21
62.63153691334358
  0
LINE
  5
289
100
AcDbEntity
  8
0
  6
ByLayer
 62
    1
370
   -1
100
AcDbLine
 10
98.28284551931853
 20
62.63153691334358
 11
98.28284551931853
 21
61.65109691334337
  0
LINE
  5
28A
100
AcDbEntity
  8
0
  6
ByLayer
 62
    1
370
   -1
100
AcDbLine
 10
98.28284551931853
 20
61.65109691334337
 11
112.2528455193185
 21
61.65109691334345
  0
LINE
  5
28B
100
AcDbEntity
  8
0
  6
ByLayer
 62
    1
370
   -1
100
AcDbLine
 10
112.2528455193185
 20
61.65109691334345
 11
112.2528455193185
 21
62.63153691334355
  0
LINE
  5
28C
100
AcDbEntity
  8
0
  6
ByLayer
 62
    1
370
   -1
100
AcDbLine
 10
112.2528455193185
 20
62.63153691334355
 11
113.0656455193185
 21
62.6315369133435
  0
LINE
  5
28D
100
AcDbEntity
  8
0
  6
ByLayer
 62
    1
370
   -1
100
AcDbLine
 10
113.0656455193185
 20
62.6315369133435
 11
113.0656455193185
 21
66.13165691334356
  0
LINE
  5
28E
100
AcDbEntity
  8
0
  6
ByLayer
 62
    1
370
   -1
100
AcDbLine
 10
113.0656455193185
 20
66.13165691334356
 11
112.2528455193185
 21
66.13165691334348
  0
LINE
  5
28F
100
AcDbEntity
  8
0
  6
ByLayer
 62
    1
370
   -1
100
AcDbLine
 10
112.2528455193185
 20
66.13165691334348
 11
112.2528455193185
 21
71.14053691334342
  0
LINE
  5
290
100
AcDbEntity
  8
0
  6
ByLayer
 62
    1
370
   -1
100
AcDbLine
 10
112.2528455193185
 20
71.14053691334342
 11
113.0656455193185
 21
71.14053691334357
  0
LINE
  5
291
100
AcDbEntity
  8
0
  6
ByLayer
 62
    1
370
   -1
100
AcDbLine
 10
113.0656455193185
 20
71.14053691334357
 11
113.0656455193185
 21
74.64065691334352
  0
LINE
  5
292
100
AcDbEntity
  8
0
  6
ByLayer
 62
    1
370
   -1
100
AcDbLine
 10
113.0656455193185
 20
74.64065691334352
 11
112.2528455193185
 21
74.64065691334355
  0
LINE
  5
293
100
AcDbEntity
  8
0
  6
ByLayer
 62
    1
370
   -1
100
AcDbLine
 10
112.2528455193185
 20
74.64065691334355
 11
112.2528455193185
 21
75.62109691334348
  0
LINE
  5
294
100
AcDbEntity
  8
0
  6
ByLayer
 62
    1
370
   -1
100
AcDbLine
 10
131.3028455193185
 20
74.02343691334349
 11
117.3328455193185
 21
74.02343691334346
  0
LINE
  5
295
100
AcDbEntity
  8
0
  6
ByLayer
 62
    1
370
   -1
100
AcDbLine
 10
117.3328455193185
 20
74.02343691334346
 11
117.3328455193185
 21
73.04299691334347
  0
LINE
  5
296
100
AcDbEntity
  8
0
  6
ByLayer
 62
    1
370
   -1
100
AcDbLine
 10
117.3328455193185
 20
73.04299691334347
 11
116.5200455193185
 21
73.04299691334342
  0
LINE
  5
297
100
AcDbEntity
  8
0
  6
ByLayer
 62
    1
370
   -1
100
AcDbLine
 10
116.5200455193185
 20
73.04299691334342
 11
116.5200455193185
 21
69.54287691334352
  0
LINE
  5
298
100
AcDbEntity
  8
0
  6
ByLayer
 62
    1
370
   -1
100
AcDbLine
 10
116.5200455193185
 20
69.54287691334352
 11
117.3328455193185
 21
69.54287691334349
  0
LINE
  5
299
100
AcDbEntity
  8
0
  6
ByLayer
 62
    1
370
   -1
100
AcDbLine
 10
117.3328455193185
 20
69.54287691334349
 11
117.3328455193185
 21
64.5339969133436
  0
LINE
  5
29A
100
AcDbEntity
  8
0
  6
ByLayer
 62
    1
370
   -1
100
AcDbLine
 10
117.3328455193185
 20
64.5339969133436
 11
116.5200455193185
 21
64.53399691334351
  0
LINE
  5
29B
100
AcDbEntity
  8
0
  6
ByLayer
 62
    1
370
   -1
100
AcDbLine
 10
116.5200455193185
 20
64.53399691334351
 11
116.5200455193185
 21
61.03387691334342
  0
LINE
  5
29C
100
AcDbEntity
  8
0
  6
ByLayer
 62
    1
370
   -1
100
AcDbLine
 10
116.5200455193185
 20
61.03387691334342
 11
117.3328455193185
 21
61.03387691334368
  0
LINE
  5
29D
100
AcDbEntity
  8
0
  6
ByLayer
 62
    1
370
   -1
100
AcDbLine
 10
117.3328455193185
 20
61.03387691334368
 11
117.3328455193185
 21
60.05343691334375
  0
LINE
  5
29E
100
AcDbEntity
  8
0
  6
ByLayer
 62
    1
370
   -1
100
AcDbLine
 10
117.3328455193185
 20
60.05343691334375
 11
131.3028455193185
 21
60.05343691334349
  0
LINE
  5
29F
100
AcDbEntity
  8
0
  6
ByLayer
 62
    1
370
   -1
100
AcDbLine
 10
131.3028455193185
 20
60.05343691334349
 11
131.3028455193185
 21
61.03387691334362
  0
LINE
  5
2A0
100
AcDbEntity
  8
0
  6
ByLayer
 62
    1
370
   -1
100
AcDbLine
 10
131.3028455193185
 20
61.03387691334362
 11
132.1156455193185
 21
61.03387691334356
  0
LINE
  5
2A1
100
AcDbEntity
  8
0
  6
ByLayer
 62
    1
370
   -1
100
AcDbLine
 10
132.1156455193185
 20
61.03387691334356
 11
132.1156455193185
 21
64.53399691334346
  0
LINE
  5
2A2
100
AcDbEntity
  8
0
  6
ByLayer
 62
    1
370
   -1
100
AcDbLine
 10
132.1156455193185
 20
64.53399691334346
 11
131.3028455193185
 21
64.5339969133436
  0
LINE
  5
2A3
100
AcDbEntity
  8
0
  6
ByLayer
 62
    1
370
   -1
100
AcDbLine
 10
131.3028455193185
 20
64.5339969133436
 11
131.3028455193185
 21
69.54287691334358
  0
LINE
  5
2A4
100
AcDbEntity
  8
0
  6
ByLayer
 62
    1
370
   -1
100
AcDbLine
 10
131.3028455193185
 20
69.54287691334358
 11
132.1156455193185
 21
69.5428769133436
  0
LINE
  5
2A5
100
AcDbEntity
  8
0
  6
ByLayer
 62
    1
370
   -1
100
AcDbLine
 10
132.1156455193185
 20
69.5428769133436
 11
132.1156455193185
 21
73.04299691334364
  0
LINE
  5
2A6
100
AcDbEntity
  8
0
  6
ByLayer
 62
    1
370
   -1
100
AcDbLine
 10
132.1156455193185
 20
73.04299691334364
 11
131.3028455193185
 21
73.04299691334347
  0
LINE
  5
2A7
100
AcDbEntity
  8
0
  6
ByLayer
 62
    1
370
   -1
100
AcDbLine
 10
131.3028455193185
 20
73.04299691334347
 11
131.3028455193185
 21
74.02343691334349
  0
LINE
  5
2A8
100
AcDbEntity
  8
0
  6
ByLayer
 62
    1
370
   -1
100
AcDbLine
 10
93.20284551931854
 20
131.1734369133435
 11
79.23284551931852
 21
131.1734369133434
  0
LINE
  5
2A9
100
AcDbEntity
  8
0
  6
ByLayer
 62
    1
370
   -1
100
AcDbLine
 10
79.23284551931852
 20
131.1734369133434
 11
79.23284551931852
 21
130.1929969133435
  0
LINE
  5
2AA
100
AcDbEntity
  8
0
  6
ByLayer
 62
    1
370
   -1
100
AcDbLine
 10
79.23284551931852
 20
130.1929969133435
 11
78.42004551931859
 21
130.1929969133435
  0
LINE
  5
2AB
100
AcDbEntity
  8
0
  6
ByLayer
 62
    1
370
   -1
100
AcDbLine
 10
78.42004551931859
 20
130.1929969133435
 11
78.42004551931853
 21
126.6928769133435
  0
LINE
  5
2AC
100
AcDbEntity
  8
0
  6
ByLayer
 62
    1
370
   -1
100
AcDbLine
 10
78.42004551931853
 20
126.6928769133435
 11
79.23284551931852
 21
126.6928769133434
  0
LINE
  5
2AD
100
AcDbEntity
  8
0
  6
ByLayer
 62
    1
370
   -1
100
AcDbLine
 10
79.23284551931852
 20
126.6928769133434
 11
79.23284551931857
 21
121.6839969133435
  0
LINE
  5
2AE
100
AcDbEntity
  8
0
  6
ByLayer
 62
    1
370
   -1
100
AcDbLine
 10
79.23284551931857
 20
121.6839969133435
 11
78.42004551931853
 21
121.6839969133435
  0
LINE
  5
2AF
100
AcDbEntity
  8
0
  6
ByLayer
 62
    1
370
   -1
100
AcDbLine
 10
78.42004551931853
 20
121.6839969133435
 11
78.42004551931853
 21
118.1838769133435
  0
LINE
  5
2B0
100
AcDbEntity
  8
0
  6
ByLayer
 62
    1
370
   -1
100
AcDbLine
 10
78.42004551931853
 20
118.1838769133435
 11
79.23284551931857
 21
118.1838769133435
  0
LINE
  5
2B1
100
AcDbEntity
  8
0
  6
ByLayer
 62
    1
370
   -1
100
AcDbLine
 10
79.23284551931857
 20
118.1838769133435
 11
79.23284551931857
 21
117.2034369133436
  0
LINE
  5
2B2
100
AcDbEntity
  8
0
  6
ByLayer
 62
    1
370
   -1
100
AcDbLine
 10
79.23284551931857
 20
117.2034369133436
 11
93.20284551931854
 21
117.2034369133435
  0
LINE
  5
2B3
100
AcDbEntity
  8
0
  6
ByLayer
 62
    1
370
   -1
100
AcDbLine
 10
93.20284551931854
 20
117.2034369133435
 11
93.20284551931854
 21
118.1838769133435
  0
LINE
  5
2B4
100
AcDbEntity
  8
0
  6
ByLayer
 62
    1
370
   -1
100
AcDbLine
 10
93.20284551931854
 20
118.1838769133435
 11
94.01564551931858
 21
118.1838769133435
  0
LINE
  5
2B5
100
AcDbEntity
  8
0
  6
ByLayer
 62
    1
370
   -1
100
AcDbLine
 10
94.01564551931858
 20
118.1838769133435
 11
94.01564551931858
 21
121.6839969133436
  0
LINE
  5
2B6
100
AcDbEntity
  8
0
  6
ByLayer
 62
    1
370
   -1
100
AcDbLine
 10
94.01564551931858
 20
121.6839969133436
 11
93.20284551931854
 21
121.6839969133435
  0
LINE
  5
2B7
100
AcDbEntity
  8
0
  6
ByLayer
 62
    1
370
   -1
100
AcDbLine
 10
93.20284551931854
 20
121.6839969133435
 11
93.20284551931854
 21
126.6928769133435
  0
LINE
  5
2B8
100
AcDbEntity
  8
0
  6
ByLayer
 62
    1
370
   -1
100
AcDbLine
 10
93.20284551931854
 20
126.6928769133435
 11
94.01564551931853
 21
126.6928769133434
  0
LINE
  5
2B9
100
AcDbEntity
  8
0
  6
ByLayer
 62
    1
370
   -1
100
AcDbLine
 10
94.01564551931853
 20
126.6928769133434
 11
94.01564551931858
 21
130.1929969133436
  0
LINE
  5
2BA
100
AcDbEntity
  8
0
  6
ByLayer
 62
    1
370
   -1
100
AcDbLine
 10
94.01564551931858
 20
130.1929969133436
 11
93.20284551931854
 21
130.1929969133435
  0
LINE
  5
2BB
100
AcDbEntity
  8
0
  6
ByLayer
 62
    1
370
   -1
100
AcDbLine
 10
93.20284551931854
 20
130.1929969133435
 11
93.20284551931854
 21
131.1734369133435
  0
LINE
  5
2BC
100
AcDbEntity
  8
0
  6
ByLayer
 62
    1
370
   -1
100
AcDbLine
 10
150.3528455193185
 20
148.9508969133434
 11
136.3828455193186
 21
148.9508969133435
  0
LINE
  5
2BD
100
AcDbEntity
  8
0
  6
ByLayer
 62
    1
370
   -1
100
AcDbLine
 10
136.3828455193186
 20
148.9508969133435
 11
136.3828455193186
 21
147.9704569133435
  0
LINE
  5
2BE
100
AcDbEntity
  8
0
  6
ByLayer
 62
    1
370
   -1
100
AcDbLine
 10
136.3828455193186
 20
147.9704569133435
 11
135.5700455193185
 21
147.9704569133434
  0
LINE
  5
2BF
100
AcDbEntity
  8
0
  6
ByLayer
 62
    1
370
   -1
100
AcDbLine
 10
135.5700455193185
 20
147.9704569133434
 11
135.5700455193185
 21
144.4703369133434
  0
LINE
  5
2C0
100
AcDbEntity
  8
0
  6
ByLayer
 62
    1
370
   -1
100
AcDbLine
 10
135.5700455193185
 20
144.4703369133434
 11
136.3828455193186
 21
144.4703369133434
  0
LINE
  5
2C1
100
AcDbEntity
  8
0
  6
ByLayer
 62
    1
370
   -1
100
AcDbLine
 10
136.3828455193186
 20
144.4703369133434
 11
136.3828455193186
 21
139.4614569133435
  0
LINE
  5
2C2
100
AcDbEntity
  8
0
  6
ByLayer
 62
    1
370
   -1
100
AcDbLine
 10
136.3828455193186
 20
139.4614569133435
 11
135.5700455193185
 21
139.4614569133435
  0
LINE
  5
2C3
100
AcDbEntity
  8
0
  6
ByLayer
 62
    1
370
   -1
100
AcDbLine
 10
135.5700455193185
 20
139.4614569133435
 11
135.5700455193185
 21
135.9613369133434
  0
LINE
  5
2C4
100
AcDbEntity
  8
0
  6
ByLayer
 62
    1
370
   -1
100
AcDbLine
 10
135.5700455193185
 20
135.9613369133434
 11
136.3828455193186
 21
135.9613369133434
  0
LINE
  5
2C5
100
AcDbEntity
  8
0
  6
ByLayer
 62
    1
370
   -1
100
AcDbLine
 10
136.3828455193186
 20
135.9613369133434
 11
136.3828455193186
 21
134.9808969133435
  0
LINE
  5
2C6
100
AcDbEntity
  8
0
  6
ByLayer
 62
    1
370
   -1
100
AcDbLine
 10
136.3828455193186
 20
134.9808969133435
 11
150.3528455193185
 21
134.9808969133434
  0
LINE
  5
2C7
100
AcDbEntity
  8
0
  6
ByLayer
 62
    1
370
   -1
100
AcDbLine
 10
150.3528455193185
 20
134.9808969133434
 11
150.3528455193185
 21
135.9613369133435
  0
LINE
  5
2C8
100
AcDbEntity
  8
0
  6
ByLayer
 62
    1
370
   -1
100
AcDbLine
 10
150.3528455193185
 20
135.9613369133435
 11
151.1656455193185
 21
135.9613369133434
  0
LWPOLYLINE
  5
2C9
100
AcDbEntity
  8
0
  6
ByLayer
 62
    1
370
   -1
100
AcDbPolyline
 90
    2
 70
    0
 43
0
 10
144.2228483070708
 20
50.62132945279924
 10
150.1267831617622
 20
63.28235860692252
  0
LWPOLYLINE
  5
2CA
100
AcDbEntity
  8
0
  6
ByLayer
 62
    1
370
   -1
100
AcDbPolyline
 90
    2
 70
    0
 43
0
 10
180.0522829466642
 20
49.32658149040514
 10
174.1483480919728
 20
36.66555233628186
  0
LINE
  5
2CB
100
AcDbEntity
  8
0
  6
ByLayer
 62
    1
370
   -1
100
AcDbLine
 10
151.1656455193185
 20
135.9613369133434
 11
151.1656455193185
 21
139.4614569133435
  0
LWPOLYLINE
  5
2CC
100
AcDbEntity
  8
0
  6
ByLayer
 62
    1
370
   -1
100
AcDbPolyline
 90
    2
 70
    0
 43
0
 10
150.1267831617622
 20
63.28235860692252
 10
151.3008142690895
 20
62.73489891066364
  0
LWPOLYLINE
  5
2CD
100
AcDbEntity
  8
0
  6
ByLayer
 62
    1
370
   -1
100
AcDbPolyline
 90
    2
 70
    0
 43
0
 10
174.1483480919728
 20
36.66555233628186
 10
172.9743169846456
 20
37.21301203254075
  0
LINE
  5
2CE
100
AcDbEntity
  8
0
  6
ByLayer
 62
    1
370
   -1
100
AcDbLine
 10
151.1656455193185
 20
139.4614569133435
 11
150.3528455193185
 21
139.4614569133435
  0
LWPOLYLINE
  5
2CF
100
AcDbEntity
  8
0
  6
ByLayer
 62
    1
370
   -1
100
AcDbPolyline
 90
    2
 70
    0
 43
0
 10
151.3008142690895
 20
62.73489891066364
 10
152.6962997693573
 20
65.72752722345865
  0
LWPOLYLINE
  5
2D0
100
AcDbEntity
  8
0
  6
ByLayer
 62
    1
370
   -1
100
AcDbPolyline
 90
    2
 70
    0
 43
0
 10
172.9743169846456
 20
37.21301203254075
 10
171.5788314843778
 20
34.22038371974574
  0
LINE
  5
2D1
100
AcDbEntity
  8
0
  6
ByLayer
 62
    1
370
   -1
100
AcDbLine
 10
150.3528455193185
 20
139.4614569133435
 11
150.3528455193185
 21
144.4703369133434
  0
LWPOLYLINE
  5
2D2
100
AcDbEntity
  8
0
  6
ByLayer
 62
    1
370
   -1
100
AcDbPolyline
 90
    3
 70
    0
 43
0
 10
152.6962997693573
 20
65.72752722345865
 10
152.6962776975653
 20
65.72753751570434
 10
152.212875195752
 20
65.95295180427112
  0
LWPOLYLINE
  5
2D3
100
AcDbEntity
  8
0
  6
ByLayer
 62
    1
370
   -1
100
AcDbPolyline
 90
    2
 70
    0
 43
0
 10
171.5788314843778
 20
34.22038371974574
 10
172.0622560579831
 20
33.99495913893326
  0
LINE
  5
2D4
100
AcDbEntity
  8
0
  6
ByLayer
 62
    1
370
   -1
100
AcDbLine
 10
150.3528455193185
 20
144.4703369133434
 11
151.1656455193185
 21
144.4703369133435
  0
LWPOLYLINE
  5
2D5
100
AcDbEntity
  8
0
  6
ByLayer
 62
    1
370
   -1
100
AcDbPolyline
 90
    2
 70
    0
 43
0
 10
152.212875195752
 20
65.95295180427112
 10
153.6083606960198
 20
68.94558011706616
  0
LWPOLYLINE
  5
2D6
100
AcDbEntity
  8
0
  6
ByLayer
 62
    1
370
   -1
100
AcDbPolyline
 90
    2
 70
    0
 43
0
 10
172.0622560579831
 20
33.99495913893326
 10
170.6667705577153
 20
31.00233082613823
  0
LINE
  5
2D7
100
AcDbEntity
  8
0
  6
ByLayer
 62
    1
370
   -1
100
AcDbLine
 10
151.1656455193185
 20
144.4703369133435
 11
151.1656455193185
 21
147.9704569133434
  0
LWPOLYLINE
  5
2D8
100
AcDbEntity
  8
0
  6
ByLayer
 62
    1
370
   -1
100
AcDbPolyline
 90
    2
 70
    0
 43
0
 10
153.6083606960198
 20
68.94558011706616
 10
154.0917852696251
 20
68.72015553625366
  0
LWPOLYLINE
  5
2D9
100
AcDbEntity
  8
0
  6
ByLayer
 62
    1
370
   -1
100
AcDbPolyline
 90
    2
 70
    0
 43
0
 10
170.6667705577153
 20
31.00233082613823
 10
170.18334598411
 20
31.22775540695071
  0
LINE
  5
2DA
100
AcDbEntity
  8
0
  6
ByLayer
 62
    1
370
   -1
100
AcDbLine
 10
151.1656455193185
 20
147.9704569133434
 11
150.3528455193185
 21
147.9704569133435
  0
LWPOLYLINE
  5
2DB
100
AcDbEntity
  8
0
  6
ByLayer
 62
    1
370
   -1
100
AcDbPolyline
 90
    2
 70
    0
 43
0
 10
154.0917852696251
 20
68.72015553625366
 10
154.8002625236072
 20
70.23948991044193
  0
LWPOLYLINE
  5
2DC
100
AcDbEntity
  8
0
  6
ByLayer
 62
    1
370
   -1
100
AcDbPolyline
 90
    2
 70
    0
 43
0
 10
170.18334598411
 20
31.22775540695071
 10
169.4748687301278
 20
29.70842103276247
  0
LINE
  5
2DD
100
AcDbEntity
  8
0
  6
ByLayer
 62
    1
370
   -1
100
AcDbLine
 10
150.3528455193185
 20
147.9704569133435
 11
150.3528455193185
 21
148.9508969133434
  0
LWPOLYLINE
  5
2DE
100
AcDbEntity
  8
0
  6
ByLayer
 62
    1
370
   -1
100
AcDbPolyline
 90
    2
 70
    0
 43
0
 10
154.8002625236072
 20
70.23948991044193
 10
157.8849717075651
 20
68.80106639478129
  0
LWPOLYLINE
  5
2DF
100
AcDbEntity
  8
0
  6
ByLayer
 62
    1
370
   -1
100
AcDbPolyline
 90
    2
 70
    0
 43
0
 10
169.4748687301278
 20
29.70842103276247
 10
166.3901595461699
 20
31.1468445484231
  0
LINE
  5
2E0
100
AcDbEntity
  8
0
  6
ByLayer
 62
    1
370
   -1
100
AcDbLine
 10
41.13284551931858
 20
147.0458969133434
 11
41.13284551931852
 21
133.0758969133435
  0
LWPOLYLINE
  5
2E1
100
AcDbEntity
  8
0
  6
ByLayer
 62
    1
370
   -1
100
AcDbPolyline
 90
    2
 70
    0
 43
0
 10
157.8849717075651
 20
68.80106639478129
 10
158.2606793422526
 20
69.60677401745684
  0
LWPOLYLINE
  5
2E2
100
AcDbEntity
  8
0
  6
ByLayer
 62
    1
370
   -1
100
AcDbPolyline
 90
    2
 70
    0
 43
0
 10
166.3901595461699
 20
31.1468445484231
 10
166.0144519114824
 20
30.34113692574754
  0
LINE
  5
2E3
100
AcDbEntity
  8
0
  6
ByLayer
 62
    1
370
   -1
100
AcDbLine
 10
41.13284551931858
 20
127.9984369133434
 11
41.13284551931852
 21
114.0284369133435
  0
LWPOLYLINE
  5
2E4
100
AcDbEntity
  8
0
  6
ByLayer
 62
    1
370
   -1
100
AcDbPolyline
 90
    2
 70
    0
 43
0
 10
158.2606793422526
 20
69.60677401745684
 10
160.792903299233
 20
68.42597859415332
  0
LWPOLYLINE
  5
2E5
100
AcDbEntity
  8
0
  6
ByLayer
 62
    1
370
   -1
100
AcDbPolyline
 90
    2
 70
    0
 43
0
 10
166.0144519114824
 20
30.34113692574754
 10
163.482227954502
 20
31.52193234905106
  0
LINE
  5
2E6
100
AcDbEntity
  8
0
  6
ByLayer
 62
    1
370
   -1
100
AcDbLine
 10
41.13284551931858
 20
108.9509769133435
 11
41.13284551931852
 21
94.98097691334357
  0
LWPOLYLINE
  5
2E7
100
AcDbEntity
  8
0
  6
ByLayer
 62
    1
370
   -1
100
AcDbPolyline
 90
    2
 70
    0
 43
0
 10
160.792903299233
 20
68.42597859415332
 10
160.4171956645455
 20
67.62027097147774
  0
LWPOLYLINE
  5
2E8
100
AcDbEntity
  8
0
  6
ByLayer
 62
    1
370
   -1
100
AcDbPolyline
 90
    2
 70
    0
 43
0
 10
163.482227954502
 20
31.52193234905106
 10
163.8579355891895
 20
32.32763997172664
  0
LINE
  5
2E9
100
AcDbEntity
  8
0
  6
ByLayer
 62
    1
370
   -1
100
AcDbLine
 10
41.13284551931858
 20
89.90351691334352
 11
41.13284551931852
 21
75.93351691334361
  0
LWPOLYLINE
  5
2EA
100
AcDbEntity
  8
0
  6
ByLayer
 62
    1
370
   -1
100
AcDbPolyline
 90
    2
 70
    0
 43
0
 10
160.4171956645455
 20
67.62027097147774
 10
165.942047934321
 20
65.04399004790645
  0
LWPOLYLINE
  5
2EB
100
AcDbEntity
  8
0
  6
ByLayer
 62
    1
370
   -1
100
AcDbPolyline
 90
    2
 70
    0
 43
0
 10
163.8579355891895
 20
32.32763997172664
 10
158.3330833194141
 20
34.90392089529794
  0
LINE
  5
2EC
100
AcDbEntity
  8
0
  6
ByLayer
 62
    1
370
   -1
100
AcDbLine
 10
41.13284551931852
 20
133.0758969133435
 11
42.11328551931862
 21
133.0758969133434
  0
LWPOLYLINE
  5
2ED
100
AcDbEntity
  8
0
  6
ByLayer
 62
    1
370
   -1
100
AcDbPolyline
 90
    2
 70
    0
 43
0
 10
165.942047934321
 20
65.04399004790645
 10
165.2335706803389
 20
63.52465567371819
  0
LWPOLYLINE
  5
2EE
100
AcDbEntity
  8
0
  6
ByLayer
 62
    1
370
   -1
100
AcDbPolyline
 90
    2
 70
    0
 43
0
 10
158.3330833194141
 20
34.90392089529794
 10
159.0415605733962
 20
36.42325526948618
  0
LINE
  5
2EF
100
AcDbEntity
  8
0
  6
ByLayer
 62
    1
370
   -1
100
AcDbLine
 10
41.13284551931852
 20
114.0284369133435
 11
42.11328551931862
 21
114.0284369133435
  0
LWPOLYLINE
  5
2F0
100
AcDbEntity
  8
0
  6
ByLayer
 62
    1
370
   -1
100
AcDbPolyline
 90
    2
 70
    0
 43
0
 10
165.2335706803389
 20
63.52465567371819
 10
166.2694804809217
 20
63.0416030005486
  0
LWPOLYLINE
  5
2F1
100
AcDbEntity
  8
0
  6
ByLayer
 62
    1
370
   -1
100
AcDbPolyline
 90
    2
 70
    0
 43
0
 10
159.0415605733962
 20
36.42325526948618
 10
158.0056507728133
 20
36.90630794265579
  0
LINE
  5
2F2
100
AcDbEntity
  8
0
  6
ByLayer
 62
    1
370
   -1
100
AcDbLine
 10
41.13284551931852
 20
94.98097691334357
 11
42.11328551931862
 21
94.98097691334351
  0
LWPOLYLINE
  5
2F3
100
AcDbEntity
  8
0
  6
ByLayer
 62
    1
370
   -1
100
AcDbPolyline
 90
    2
 70
    0
 43
0
 10
166.2694804809217
 20
63.0416030005486
 10
164.8739949806539
 20
60.04897468775356
  0
LWPOLYLINE
  5
2F4
100
AcDbEntity
  8
0
  6
ByLayer
 62
    1
370
   -1
100
AcDbPolyline
 90
    2
 70
    0
 43
0
 10
158.0056507728133
 20
36.90630794265579
 10
159.4011362730811
 20
39.89893625545082
  0
LINE
  5
2F5
100
AcDbEntity
  8
0
  6
ByLayer
 62
    1
370
   -1
100
AcDbLine
 10
41.13284551931852
 20
75.93351691334361
 11
42.11328551931862
 21
75.93351691334355
  0
LWPOLYLINE
  5
2F6
100
AcDbEntity
  8
0
  6
ByLayer
 62
    1
370
   -1
100
AcDbPolyline
 90
    2
 70
    0
 43
0
 10
164.8739949806539
 20
60.04897468775356
 10
163.8380851800711
 20
60.53202736092317
  0
LWPOLYLINE
  5
2F7
100
AcDbEntity
  8
0
  6
ByLayer
 62
    1
370
   -1
100
AcDbPolyline
 90
    2
 70
    0
 43
0
 10
159.4011362730811
 20
39.89893625545082
 10
160.437046073664
 20
39.4158835822812
  0
LINE
  5
2F8
100
AcDbEntity
  8
0
  6
ByLayer
 62
    1
370
   -1
100
AcDbLine
 10
42.11328551931862
 20
133.0758969133434
 11
42.11328551931868
 21
132.2630969133433
  0
LWPOLYLINE
  5
2F9
100
AcDbEntity
  8
0
  6
ByLayer
 62
    1
370
   -1
100
AcDbPolyline
 90
    2
 70
    0
 43
0
 10
163.8380851800711
 20
60.53202736092317
 10
163.1296079260889
 20
59.01269298673491
  0
LWPOLYLINE
  5
2FA
100
AcDbEntity
  8
0
  6
ByLayer
 62
    1
370
   -1
100
AcDbPolyline
 90
    2
 70
    0
 43
0
 10
160.437046073664
 20
39.4158835822812
 10
161.1455233276461
 20
40.93521795646947
  0
LINE
  5
2FB
100
AcDbEntity
  8
0
  6
ByLayer
 62
    1
370
   -1
100
AcDbLine
 10
42.11328551931862
 20
114.0284369133435
 11
42.11328551931868
 21
113.2156369133434
  0
LWPOLYLINE
  5
2FC
100
AcDbEntity
  8
0
  6
ByLayer
 62
    1
370
   -1
100
AcDbPolyline
 90
    2
 70
    0
 43
0
 10
163.1296079260889
 20
59.01269298673491
 10
162.4159811745762
 20
59.34546260602956
  0
LWPOLYLINE
  5
2FD
100
AcDbEntity
  8
0
  6
ByLayer
 62
    1
370
   -1
100
AcDbPolyline
 90
    2
 70
    0
 43
0
 10
161.1455233276461
 20
40.93521795646947
 10
161.8591500791588
 20
40.60244833717482
  0
LINE
  5
2FE
100
AcDbEntity
  8
0
  6
ByLayer
 62
    1
370
   -1
100
AcDbLine
 10
42.11328551931862
 20
94.98097691334351
 11
42.11328551931868
 21
94.16817691334342
  0
LWPOLYLINE
  5
2FF
100
AcDbEntity
  8
0
  6
ByLayer
 62
    1
370
   -1
100
AcDbPolyline
 90
    2
 70
    0
 43
0
 10
162.4159811745762
 20
59.34546260602956
 10
161.7289729282906
 20
57.87216866742279
  0
LWPOLYLINE
  5
300
100
AcDbEntity
  8
0
  6
ByLayer
 62
    1
370
   -1
100
AcDbPolyline
 90
    2
 70
    0
 43
0
 10
161.8591500791588
 20
40.60244833717482
 10
162.5461583254445
 20
42.07574227578159
  0
LINE
  5
301
100
AcDbEntity
  8
0
  6
ByLayer
 62
    1
370
   -1
100
AcDbLine
 10
42.11328551931862
 20
75.93351691334355
 11
42.11328551931868
 21
75.12071691334346
  0
LWPOLYLINE
  5
302
100
AcDbEntity
  8
0
  6
ByLayer
 62
    1
370
   -1
100
AcDbPolyline
 90
    2
 70
    0
 43
0
 10
161.7289729282906
 20
57.87216866742279
 10
162.7879029466642
 20
57.37838149040494
  0
LWPOLYLINE
  5
303
100
AcDbEntity
  8
0
  6
ByLayer
 62
    1
370
   -1
100
AcDbPolyline
 90
    2
 70
    0
 43
0
 10
162.5461583254445
 20
42.07574227578159
 10
161.4872283070708
 20
42.56952945279944
  0
LINE
  5
304
100
AcDbEntity
  8
0
  6
ByLayer
 62
    1
370
   -1
100
AcDbLine
 10
42.11328551931868
 20
132.2630969133433
 11
45.6134055193186
 21
132.2630969133434
  0
LWPOLYLINE
  5
305
100
AcDbEntity
  8
0
  6
ByLayer
 62
    1
370
   -1
100
AcDbPolyline
 90
    2
 70
    0
 43
0
 10
162.7879029466642
 20
57.37838149040494
 10
156.8839680919728
 20
44.71735233628166
  0
LWPOLYLINE
  5
306
100
AcDbEntity
  8
0
  6
ByLayer
 62
    1
370
   -1
100
AcDbPolyline
 90
    2
 70
    0
 43
0
 10
161.4872283070708
 20
42.56952945279944
 10
167.3911631617622
 20
55.23055860692272
  0
LINE
  5
307
100
AcDbEntity
  8
0
  6
ByLayer
 62
    1
370
   -1
100
AcDbLine
 10
42.11328551931868
 20
113.2156369133434
 11
45.6134055193186
 21
113.2156369133434
  0
LWPOLYLINE
  5
308
100
AcDbEntity
  8
0
  6
ByLayer
 62
    1
370
   -1
100
AcDbPolyline
 90
    2
 70
    0
 43
0
 10
156.8839680919728
 20
44.71735233628166
 10
155.8250380735992
 20
45.21113951329952
  0
LWPOLYLINE
  5
309
100
AcDbEntity
  8
0
  6
ByLayer
 62
    1
370
   -1
100
AcDbPolyline
 90
    2
 70
    0
 43
0
 10
167.3911631617622
 20
55.23055860692272
 10
168.4500931801358
 20
54.73677142990486
  0
LINE
  5
30A
100
AcDbEntity
  8
0
  6
ByLayer
 62
    1
370
   -1
100
AcDbLine
 10
42.11328551931868
 20
94.16817691334342
 11
45.6134055193186
 21
94.16817691334347
  0
LWPOLYLINE
  5
30B
100
AcDbEntity
  8
0
  6
ByLayer
 62
    1
370
   -1
100
AcDbPolyline
 90
    2
 70
    0
 43
0
 10
155.8250380735992
 20
45.21113951329952
 10
155.1380298273135
 20
43.73784557469275
  0
LWPOLYLINE
  5
30C
100
AcDbEntity
  8
0
  6
ByLayer
 62
    1
370
   -1
100
AcDbPolyline
 90
    2
 70
    0
 43
0
 10
168.4500931801358
 20
54.73677142990486
 10
169.1371014264215
 20
56.21006536851164
  0
LINE
  5
30D
100
AcDbEntity
  8
0
  6
ByLayer
 62
    1
370
   -1
100
AcDbLine
 10
42.11328551931868
 20
75.12071691334346
 11
45.6134055193186
 21
75.12071691334351
  0
LWPOLYLINE
  5
30E
100
AcDbEntity
  8
0
  6
ByLayer
 62
    1
370
   -1
100
AcDbPolyline
 90
    2
 70
    0
 43
0
 10
155.1380298273135
 20
43.73784557469275
 10
155.8516565788262
 20
43.4050759553981
  0
LWPOLYLINE
  5
30F
100
AcDbEntity
  8
0
  6
ByLayer
 62
    1
370
   -1
100
AcDbPolyline
 90
    2
 70
    0
 43
0
 10
169.1371014264215
 20
56.21006536851164
 10
168.4234746749088
 20
56.54283498780629
  0
LINE
  5
310
100
AcDbEntity
  8
0
  6
ByLayer
 62
    1
370
   -1
100
AcDbLine
 10
45.6134055193186
 20
132.2630969133434
 11
45.61340551931872
 21
133.0758969133434
  0
LWPOLYLINE
  5
311
100
AcDbEntity
  8
0
  6
ByLayer
 62
    1
370
   -1
100
AcDbPolyline
 90
    2
 70
    0
 43
0
 10
155.8516565788262
 20
43.4050759553981
 10
155.1431793248441
 20
41.88574158120985
  0
LWPOLYLINE
  5
312
100
AcDbEntity
  8
0
  6
ByLayer
 62
    1
370
   -1
100
AcDbPolyline
 90
    2
 70
    0
 43
0
 10
168.4234746749088
 20
56.54283498780629
 10
169.1319519288909
 20
58.06216936199453
  0
LINE
  5
313
100
AcDbEntity
  8
0
  6
ByLayer
 62
    1
370
   -1
100
AcDbLine
 10
45.6134055193186
 20
113.2156369133434
 11
45.61340551931872
 21
114.0284369133435
  0
LWPOLYLINE
  5
314
100
AcDbEntity
  8
0
  6
ByLayer
 62
    1
370
   -1
100
AcDbPolyline
 90
    2
 70
    0
 43
0
 10
155.1431793248441
 20
41.88574158120985
 10
156.1790891254269
 20
41.40268890804024
  0
LWPOLYLINE
  5
315
100
AcDbEntity
  8
0
  6
ByLayer
 62
    1
370
   -1
100
AcDbPolyline
 90
    2
 70
    0
 43
0
 10
169.1319519288909
 20
58.06216936199453
 10
168.0960421283081
 20
58.54522203516414
  0
LINE
  5
316
100
AcDbEntity
  8
0
  6
ByLayer
 62
    1
370
   -1
100
AcDbLine
 10
45.6134055193186
 20
94.16817691334347
 11
45.61340551931872
 21
94.98097691334351
  0
LWPOLYLINE
  5
317
100
AcDbEntity
  8
0
  6
ByLayer
 62
    1
370
   -1
100
AcDbPolyline
 90
    2
 70
    0
 43
0
 10
156.1790891254269
 20
41.40268890804024
 10
154.7836036251591
 20
38.41006059524521
  0
LWPOLYLINE
  5
318
100
AcDbEntity
  8
0
  6
ByLayer
 62
    1
370
   -1
100
AcDbPolyline
 90
    2
 70
    0
 43
0
 10
168.0960421283081
 20
58.54522203516414
 10
169.4915276285759
 20
61.53785034795917
  0
LINE
  5
319
100
AcDbEntity
  8
0
  6
ByLayer
 62
    1
370
   -1
100
AcDbLine
 10
45.6134055193186
 20
75.12071691334351
 11
45.61340551931872
 21
75.93351691334355
  0
LWPOLYLINE
  5
31A
100
AcDbEntity
  8
0
  6
ByLayer
 62
    1
370
   -1
100
AcDbPolyline
 90
    2
 70
    0
 43
0
 10
154.7836036251591
 20
38.41006059524521
 10
153.7476938245763
 20
38.89311326841484
  0
LWPOLYLINE
  5
31B
100
AcDbEntity
  8
0
  6
ByLayer
 62
    1
370
   -1
100
AcDbPolyline
 90
    2
 70
    0
 43
0
 10
169.4915276285759
 20
61.53785034795917
 10
170.5274374291587
 20
61.05479767478956
  0
LINE
  5
31C
100
AcDbEntity
  8
0
  6
ByLayer
 62
    1
370
   -1
100
AcDbLine
 10
45.61340551931872
 20
133.0758969133434
 11
50.62228551931857
 21
133.0758969133435
  0
LWPOLYLINE
  5
31D
100
AcDbEntity
  8
0
  6
ByLayer
 62
    1
370
   -1
100
AcDbPolyline
 90
    2
 70
    0
 43
0
 10
153.7476938245763
 20
38.89311326841484
 10
153.0392165705942
 20
37.37377889422658
  0
LWPOLYLINE
  5
31E
100
AcDbEntity
  8
0
  6
ByLayer
 62
    1
370
   -1
100
AcDbPolyline
 90
    2
 70
    0
 43
0
 10
170.5274374291587
 20
61.05479767478956
 10
171.2359146831409
 20
62.57413204897781
  0
LINE
  5
31F
100
AcDbEntity
  8
0
  6
ByLayer
 62
    1
370
   -1
100
AcDbLine
 10
45.61340551931872
 20
114.0284369133435
 11
50.62228551931857
 21
114.0284369133435
  0
LWPOLYLINE
  5
320
100
AcDbEntity
  8
0
  6
ByLayer
 62
    1
370
   -1
100
AcDbPolyline
 90
    2
 70
    0
 43
0
 10
153.0392165705942
 20
37.37377889422658
 10
147.5143643008188
 20
39.95005981779787
  0
LWPOLYLINE
  5
321
100
AcDbEntity
  8
0
  6
ByLayer
 62
    1
370
   -1
100
AcDbPolyline
 90
    2
 70
    0
 43
0
 10
171.2359146831409
 20
62.57413204897781
 10
176.7607669529163
 20
59.99785112540651
  0
LINE
  5
322
100
AcDbEntity
  8
0
  6
ByLayer
 62
    1
370
   -1
100
AcDbLine
 10
45.61340551931872
 20
94.98097691334351
 11
50.62228551931857
 21
94.98097691334357
  0
LWPOLYLINE
  5
323
100
AcDbEntity
  8
0
  6
ByLayer
 62
    1
370
   -1
100
AcDbPolyline
 90
    2
 70
    0
 43
0
 10
147.5143643008188
 20
39.95005981779787
 10
147.1386566661313
 20
39.14435219512232
  0
LWPOLYLINE
  5
324
100
AcDbEntity
  8
0
  6
ByLayer
 62
    1
370
   -1
100
AcDbPolyline
 90
    2
 70
    0
 43
0
 10
176.7607669529163
 20
59.99785112540651
 10
177.1364745876037
 20
60.80355874808206
  0
LINE
  5
325
100
AcDbEntity
  8
0
  6
ByLayer
 62
    1
370
   -1
100
AcDbLine
 10
45.61340551931872
 20
75.93351691334355
 11
50.62228551931857
 21
75.93351691334361
  0
LWPOLYLINE
  5
326
100
AcDbEntity
  8
0
  6
ByLayer
 62
    1
370
   -1
100
AcDbPolyline
 90
    2
 70
    0
 43
0
 10
147.1386566661313
 20
39.14435219512232
 10
144.6064327091509
 20
40.32514761842584
  0
LWPOLYLINE
  5
327
100
AcDbEntity
  8
0
  6
ByLayer
 62
    1
370
   -1
100
AcDbPolyline
 90
    2
 70
    0
 43
0
 10
177.1364745876037
 20
60.80355874808206
 10
179.6686985445842
 20
59.62276332477854
  0
LINE
  5
328
100
AcDbEntity
  8
0
  6
ByLayer
 62
    1
370
   -1
100
AcDbLine
 10
50.62228551931857
 20
133.0758969133435
 11
50.62228551931858
 21
132.2630969133434
  0
LWPOLYLINE
  5
329
100
AcDbEntity
  8
0
  6
ByLayer
 62
    1
370
   -1
100
AcDbPolyline
 90
    2
 70
    0
 43
0
 10
144.6064327091509
 20
40.32514761842584
 10
144.9821403438383
 20
41.13085524110143
  0
LWPOLYLINE
  5
32A
100
AcDbEntity
  8
0
  6
ByLayer
 62
    1
370
   -1
100
AcDbPolyline
 90
    2
 70
    0
 43
0
 10
179.6686985445842
 20
59.62276332477854
 10
179.2929909098967
 20
58.81705570210296
  0
LINE
  5
32B
100
AcDbEntity
  8
0
  6
ByLayer
 62
    1
370
   -1
100
AcDbLine
 10
50.62228551931857
 20
114.0284369133435
 11
50.62228551931858
 21
113.2156369133434
  0
LWPOLYLINE
  5
32C
100
AcDbEntity
  8
0
  6
ByLayer
 62
    1
370
   -1
100
AcDbPolyline
 90
    2
 70
    0
 43
0
 10
144.9821403438383
 20
41.13085524110143
 10
141.8974311598804
 20
42.56927875676207
  0
LWPOLYLINE
  5
32D
100
AcDbEntity
  8
0
  6
ByLayer
 62
    1
370
   -1
100
AcDbPolyline
 90
    2
 70
    0
 43
0
 10
179.2929909098967
 20
58.81705570210296
 10
182.3777000938546
 20
57.37863218644232
  0
LINE
  5
32E
100
AcDbEntity
  8
0
  6
ByLayer
 62
    1
370
   -1
100
AcDbLine
 10
50.62228551931857
 20
94.98097691334357
 11
50.62228551931858
 21
94.16817691334347
  0
LWPOLYLINE
  5
32F
100
AcDbEntity
  8
0
  6
ByLayer
 62
    1
370
   -1
100
AcDbPolyline
 90
    2
 70
    0
 43
0
 10
141.8974311598804
 20
42.56927875676207
 10
142.6059084138625
 20
44.08861313095029
  0
LWPOLYLINE
  5
330
100
AcDbEntity
  8
0
  6
ByLayer
 62
    1
370
   -1
100
AcDbPolyline
 90
    2
 70
    0
 43
0
 10
182.3777000938546
 20
57.37863218644232
 10
181.6692228398725
 20
55.8592978122541
  0
LINE
  5
331
100
AcDbEntity
  8
0
  6
ByLayer
 62
    1
370
   -1
100
AcDbLine
 10
50.62228551931857
 20
75.93351691334361
 11
50.62228551931858
 21
75.12071691334351
  0
LWPOLYLINE
  5
332
100
AcDbEntity
  8
0
  6
ByLayer
 62
    1
370
   -1
100
AcDbPolyline
 90
    2
 70
    0
 43
0
 10
142.6059084138625
 20
44.08861313095029
 10
142.1224838402572
 20
44.31403771176277
  0
LWPOLYLINE
  5
333
100
AcDbEntity
  8
0
  6
ByLayer
 62
    1
370
   -1
100
AcDbPolyline
 90
    2
 70
    0
 43
0
 10
181.6692228398725
 20
55.8592978122541
 10
182.1526474134778
 20
55.63387323144162
  0
LINE
  5
334
100
AcDbEntity
  8
0
  6
ByLayer
 62
    1
370
   -1
100
AcDbLine
 10
50.62228551931858
 20
132.2630969133434
 11
54.1224055193185
 21
132.2630969133434
  0
LWPOLYLINE
  5
335
100
AcDbEntity
  8
0
  6
ByLayer
 62
    1
370
   -1
100
AcDbPolyline
 90
    2
 70
    0
 43
0
 10
142.1224838402572
 20
44.31403771176277
 10
143.517969340525
 20
47.30666602455779
  0
LWPOLYLINE
  5
336
100
AcDbEntity
  8
0
  6
ByLayer
 62
    1
370
   -1
100
AcDbPolyline
 90
    2
 70
    0
 43
0
 10
182.1526474134778
 20
55.63387323144162
 10
180.75716191321
 20
52.64124491864658
  0
LINE
  5
337
100
AcDbEntity
  8
0
  6
ByLayer
 62
    1
370
   -1
100
AcDbLine
 10
50.62228551931858
 20
113.2156369133434
 11
54.1224055193185
 21
113.2156369133435
  0
LWPOLYLINE
  5
338
100
AcDbEntity
  8
0
  6
ByLayer
 62
    1
370
   -1
100
AcDbPolyline
 90
    2
 70
    0
 43
0
 10
143.517969340525
 20
47.30666602455779
 10
144.0013939141303
 20
47.08124144374534
  0
LWPOLYLINE
  5
339
100
AcDbEntity
  8
0
  6
ByLayer
 62
    1
370
   -1
100
AcDbPolyline
 90
    2
 70
    0
 43
0
 10
180.75716191321
 20
52.64124491864658
 10
180.2737373396047
 20
52.86666949945905
  0
LINE
  5
33A
100
AcDbEntity
  8
0
  6
ByLayer
 62
    1
370
   -1
100
AcDbLine
 10
50.62228551931858
 20
94.16817691334347
 11
54.1224055193185
 21
94.16817691334353
  0
LWPOLYLINE
  5
33B
100
AcDbEntity
  8
0
  6
ByLayer
 62
    1
370
   -1
100
AcDbPolyline
 90
    2
 70
    0
 43
0
 10
144.0013939141303
 20
47.08124144374534
 10
145.3968794143981
 20
50.07386975654035
  0
LWPOLYLINE
  5
33C
100
AcDbEntity
  8
0
  6
ByLayer
 62
    1
370
   -1
100
AcDbPolyline
 90
    2
 70
    0
 43
0
 10
180.2737373396047
 20
52.86666949945905
 10
178.8782518393369
 20
49.87404118666404
  0
LINE
  5
33D
100
AcDbEntity
  8
0
  6
ByLayer
 62
    1
370
   -1
100
AcDbLine
 10
50.62228551931858
 20
75.12071691334351
 11
54.1224055193185
 21
75.12071691334357
  0
LWPOLYLINE
  5
33E
100
AcDbEntity
  8
0
  6
ByLayer
 62
    1
370
   -1
100
AcDbPolyline
 90
    2
 70
    0
 43
0
 10
145.3968794143981
 20
50.07386975654035
 10
144.2228483070708
 20
50.62132945279924
  0
LWPOLYLINE
  5
33F
100
AcDbEntity
  8
0
  6
ByLayer
 62
    1
370
   -1
100
AcDbPolyline
 90
    2
 70
    0
 43
0
 10
178.8782518393369
 20
49.87404118666404
 10
180.0522829466642
 20
49.32658149040514
  0
LINE
  5
340
100
AcDbEntity
  8
0
  6
ByLayer
 62
    1
370
   -1
100
AcDbLine
 10
54.1224055193185
 20
132.2630969133434
 11
54.12240551931874
 21
133.0758969133434
  0
LINE
  5
341
100
AcDbEntity
  8
0
  6
ByLayer
 62
    1
370
   -1
100
AcDbLine
 10
54.1224055193185
 20
113.2156369133435
 11
54.12240551931874
 21
114.0284369133435
  0
LINE
  5
342
100
AcDbEntity
  8
0
  6
ByLayer
 62
    1
370
   -1
100
AcDbLine
 10
54.1224055193185
 20
94.16817691334353
 11
54.12240551931874
 21
94.98097691334351
  0
LINE
  5
343
100
AcDbEntity
  8
0
  6
ByLayer
 62
    1
370
   -1
100
AcDbLine
 10
54.1224055193185
 20
75.12071691334357
 11
54.12240551931874
 21
75.93351691334355
  0
LINE
  5
344
100
AcDbEntity
  8
0
  6
ByLayer
 62
    1
370
   -1
100
AcDbLine
 10
54.12240551931874
 20
133.0758969133434
 11
55.10284551931866
 21
133.0758969133434
  0
LINE
  5
345
100
AcDbEntity
  8
0
  6
ByLayer
 62
    1
370
   -1
100
AcDbLine
 10
54.12240551931874
 20
114.0284369133435
 11
55.10284551931866
 21
114.0284369133435
  0
LINE
  5
346
100
AcDbEntity
  8
0
  6
ByLayer
 62
    1
370
   -1
100
AcDbLine
 10
54.12240551931874
 20
94.98097691334351
 11
55.10284551931866
 21
94.98097691334351
  0
LINE
  5
347
100
AcDbEntity
  8
0
  6
ByLayer
 62
    1
370
   -1
100
AcDbLine
 10
54.12240551931874
 20
75.93351691334355
 11
55.10284551931866
 21
75.93351691334355
  0
LINE
  5
348
100
AcDbEntity
  8
0
  6
ByLayer
 62
    1
370
   -1
100
AcDbLine
 10
55.10284551931866
 20
133.0758969133434
 11
55.10284551931866
 21
147.0458969133433
  0
LINE
  5
349
100
AcDbEntity
  8
0
  6
ByLayer
 62
    1
370
   -1
100
AcDbLine
 10
55.10284551931866
 20
114.0284369133435
 11
55.10284551931866
 21
127.9984369133434
  0
LINE
  5
34A
100
AcDbEntity
  8
0
  6
ByLayer
 62
    1
370
   -1
100
AcDbLine
 10
55.10284551931866
 20
94.98097691334351
 11
55.10284551931866
 21
108.9509769133434
  0
LINE
  5
34B
100
AcDbEntity
  8
0
  6
ByLayer
 62
    1
370
   -1
100
AcDbLine
 10
55.10284551931866
 20
75.93351691334355
 11
55.10284551931866
 21
89.90351691334347
  0
LINE
  5
34C
100
AcDbEntity
  8
0
  6
ByLayer
 62
    1
370
   -1
100
AcDbLine
 10
55.10284551931866
 20
147.0458969133433
 11
54.12240551931862
 21
147.0458969133435
  0
LINE
  5
34D
100
AcDbEntity
  8
0
  6
ByLayer
 62
    1
370
   -1
100
AcDbLine
 10
55.10284551931866
 20
127.9984369133434
 11
54.12240551931862
 21
127.9984369133435
  0
LINE
  5
34E
100
AcDbEntity
  8
0
  6
ByLayer
 62
    1
370
   -1
100
AcDbLine
 10
55.10284551931866
 20
108.9509769133434
 11
54.12240551931862
 21
108.9509769133435
  0
LINE
  5
34F
100
AcDbEntity
  8
0
  6
ByLayer
 62
    1
370
   -1
100
AcDbLine
 10
55.10284551931866
 20
89.90351691334347
 11
54.12240551931862
 21
89.90351691334358
  0
LINE
  5
350
100
AcDbEntity
  8
0
  6
ByLayer
 62
    1
370
   -1
100
AcDbLine
 10
54.12240551931862
 20
147.0458969133435
 11
54.12240551931863
 21
147.8586969133434
  0
LINE
  5
351
100
AcDbEntity
  8
0
  6
ByLayer
 62
    1
370
   -1
100
AcDbLine
 10
54.12240551931862
 20
127.9984369133435
 11
54.12240551931863
 21
128.8112369133434
  0
LINE
  5
352
100
AcDbEntity
  8
0
  6
ByLayer
 62
    1
370
   -1
100
AcDbLine
 10
54.12240551931862
 20
108.9509769133435
 11
54.12240551931863
 21
109.7637769133435
  0
LINE
  5
353
100
AcDbEntity
  8
0
  6
ByLayer
 62
    1
370
   -1
100
AcDbLine
 10
54.12240551931862
 20
89.90351691334358
 11
54.12240551931863
 21
90.7163169133435
  0
LINE
  5
354
100
AcDbEntity
  8
0
  6
ByLayer
 62
    1
370
   -1
100
AcDbLine
 10
54.12240551931863
 20
147.8586969133434
 11
50.62228551931869
 21
147.8586969133434
  0
LINE
  5
355
100
AcDbEntity
  8
0
  6
ByLayer
 62
    1
370
   -1
100
AcDbLine
 10
54.12240551931863
 20
128.8112369133434
 11
50.62228551931869
 21
128.8112369133434
  0
LINE
  5
356
100
AcDbEntity
  8
0
  6
ByLayer
 62
    1
370
   -1
100
AcDbLine
 10
54.12240551931863
 20
109.7637769133435
 11
50.62228551931869
 21
109.7637769133435
  0
LINE
  5
357
100
AcDbEntity
  8
0
  6
ByLayer
 62
    1
370
   -1
100
AcDbLine
 10
54.12240551931863
 20
90.7163169133435
 11
50.62228551931869
 21
90.7163169133435
  0
LINE
  5
358
100
AcDbEntity
  8
0
  6
ByLayer
 62
    1
370
   -1
100
AcDbLine
 10
50.62228551931869
 20
147.8586969133434
 11
50.62228551931858
 21
147.0458969133435
  0
LINE
  5
359
100
AcDbEntity
  8
0
  6
ByLayer
 62
    1
370
   -1
100
AcDbLine
 10
50.62228551931869
 20
128.8112369133434
 11
50.62228551931858
 21
127.9984369133435
  0
LINE
  5
35A
100
AcDbEntity
  8
0
  6
ByLayer
 62
    1
370
   -1
100
AcDbLine
 10
50.62228551931869
 20
109.7637769133435
 11
50.62228551931858
 21
108.9509769133435
  0
LINE
  5
35B
100
AcDbEntity
  8
0
  6
ByLayer
 62
    1
370
   -1
100
AcDbLine
 10
50.62228551931869
 20
90.7163169133435
 11
50.62228551931858
 21
89.90351691334358
  0
LINE
  5
35C
100
AcDbEntity
  8
0
  6
ByLayer
 62
    1
370
   -1
100
AcDbLine
 10
50.62228551931858
 20
147.0458969133435
 11
45.6134055193186
 21
147.0458969133434
  0
LINE
  5
35D
100
AcDbEntity
  8
0
  6
ByLayer
 62
    1
370
   -1
100
AcDbLine
 10
50.62228551931858
 20
127.9984369133435
 11
45.6134055193186
 21
127.9984369133434
  0
LINE
  5
35E
100
AcDbEntity
  8
0
  6
ByLayer
 62
    1
370
   -1
100
AcDbLine
 10
50.62228551931858
 20
108.9509769133435
 11
45.6134055193186
 21
108.9509769133435
  0
LINE
  5
35F
100
AcDbEntity
  8
0
  6
ByLayer
 62
    1
370
   -1
100
AcDbLine
 10
50.62228551931858
 20
89.90351691334358
 11
45.6134055193186
 21
89.90351691334352
  0
LINE
  5
360
100
AcDbEntity
  8
0
  6
ByLayer
 62
    1
370
   -1
100
AcDbLine
 10
45.6134055193186
 20
147.0458969133434
 11
45.6134055193186
 21
147.8586969133434
  0
LINE
  5
361
100
AcDbEntity
  8
0
  6
ByLayer
 62
    1
370
   -1
100
AcDbLine
 10
45.6134055193186
 20
127.9984369133434
 11
45.6134055193186
 21
128.8112369133434
  0
LINE
  5
362
100
AcDbEntity
  8
0
  6
ByLayer
 62
    1
370
   -1
100
AcDbLine
 10
45.6134055193186
 20
108.9509769133435
 11
45.6134055193186
 21
109.7637769133435
  0
LINE
  5
363
100
AcDbEntity
  8
0
  6
ByLayer
 62
    1
370
   -1
100
AcDbLine
 10
45.6134055193186
 20
89.90351691334352
 11
45.6134055193186
 21
90.7163169133435
  0
LINE
  5
364
100
AcDbEntity
  8
0
  6
ByLayer
 62
    1
370
   -1
100
AcDbLine
 10
45.6134055193186
 20
147.8586969133434
 11
42.11328551931851
 21
147.8586969133434
  0
LINE
  5
365
100
AcDbEntity
  8
0
  6
ByLayer
 62
    1
370
   -1
100
AcDbLine
 10
45.6134055193186
 20
128.8112369133434
 11
42.11328551931851
 21
128.8112369133435
  0
LINE
  5
366
100
AcDbEntity
  8
0
  6
ByLayer
 62
    1
370
   -1
100
AcDbLine
 10
45.6134055193186
 20
109.7637769133435
 11
42.11328551931851
 21
109.7637769133435
  0
LINE
  5
367
100
AcDbEntity
  8
0
  6
ByLayer
 62
    1
370
   -1
100
AcDbLine
 10
45.6134055193186
 20
90.7163169133435
 11
42.11328551931851
 21
90.71631691334356
  0
LINE
  5
368
100
AcDbEntity
  8
0
  6
ByLayer
 62
    1
370
   -1
100
AcDbLine
 10
42.11328551931851
 20
147.8586969133434
 11
42.11328551931862
 21
147.0458969133435
  0
LINE
  5
369
100
AcDbEntity
  8
0
  6
ByLayer
 62
    1
370
   -1
100
AcDbLine
 10
42.11328551931851
 20
128.8112369133435
 11
42.11328551931862
 21
127.9984369133435
  0
LINE
  5
36A
100
AcDbEntity
  8
0
  6
ByLayer
 62
    1
370
   -1
100
AcDbLine
 10
42.11328551931851
 20
109.7637769133435
 11
42.11328551931862
 21
108.9509769133435
  0
LINE
  5
36B
100
AcDbEntity
  8
0
  6
ByLayer
 62
    1
370
   -1
100
AcDbLine
 10
42.11328551931851
 20
90.71631691334356
 11
42.11328551931862
 21
89.90351691334358
  0
LINE
  5
36C
100
AcDbEntity
  8
0
  6
ByLayer
 62
    1
370
   -1
100
AcDbLine
 10
42.11328551931862
 20
147.0458969133435
 11
41.13284551931858
 21
147.0458969133434
  0
LINE
  5
36D
100
AcDbEntity
  8
0
  6
ByLayer
 62
    1
370
   -1
100
AcDbLine
 10
42.11328551931862
 20
127.9984369133435
 11
41.13284551931858
 21
127.9984369133434
  0
LINE
  5
36E
100
AcDbEntity
  8
0
  6
ByLayer
 62
    1
370
   -1
100
AcDbLine
 10
42.11328551931862
 20
108.9509769133435
 11
41.13284551931858
 21
108.9509769133435
  0
LINE
  5
36F
100
AcDbEntity
  8
0
  6
ByLayer
 62
    1
370
   -1
100
AcDbLine
 10
42.11328551931862
 20
89.90351691334358
 11
41.13284551931858
 21
89.90351691334352
  0
LINE
  5
370
100
AcDbEntity
  8
0
  6
ByLayer
 62
    1
370
   -1
100
AcDbLine
 10
104.132792436554
 20
45.26809691334359
 11
27.00000043094377
 21
45.26800022018535
  0
LINE
  5
371
100
AcDbEntity
  8
0
  6
ByLayer
 62
    1
370
   -1
100
AcDbLine
 10
20.00000043094323
 20
52.26800022018534
 11
20.00000043094323
 21
176.6980002201838
  0
LINE
  5
372
100
AcDbEntity
  8
0
  6
ByLayer
 62
    1
370
   -1
100
AcDbLine
 10
165.9738455193185
 20
183.6980969133434
 11
174.086800430943
 21
183.6980002201841
  0
LINE
  5
373
100
AcDbEntity
  8
0
  6
ByLayer
 62
    1
370
   -1
100
AcDbLine
 10
186.6585894256686
 20
7.517007113577685
 11
107.0906111975882
 21
44.61239208835914
  0
CIRCLE
  5
374
100
AcDbEntity
  8
0
  6
ByLayer
 62
    1
370
   -1
100
AcDbCircle
 10
180.9090455193185
 20
41.22949691334454
 40
1.524
  0
CIRCLE
  5
375
100
AcDbEntity
  8
0
  6
ByLayer
 62
    1
370
   -1
100
AcDbCircle
 10
175.1432455193185
 20
85.40009691334345
 40
1.524
  0
CIRCLE
  5
376
100
AcDbEntity
  8
0
  6
ByLayer
 62
    1
370
   -1
100
AcDbCircle
 10
129.3724455193185
 20
49.3066969133431
 40
1.524
  0
CIRCLE
  5
377
100
AcDbEntity
  8
0
  6
ByLayer
 62
    1
370
   -1
100
AcDbCircle
 10
33.03024551931856
 20
67.01049691334345
 40
1.524
  0
CIRCLE
  5
378
100
AcDbEntity
  8
0
  6
ByLayer
 62
    1
370
   -1
100
AcDbCircle
 10
95.76824551931855
 20
115.4736969133435
 40
1.524
  0
CIRCLE
  5
379
100
AcDbEntity
  8
0
  6
ByLayer
 62
    1
370
   -1
100
AcDbCircle
 10
33.66524551931855
 20
169.9312969133434
 40
1.524
  0
CIRCLE
  5
37A
100
AcDbEntity
  8
0
  6
ByLayer
 62
    1
370
   -1
100
AcDbCircle
 10
116.5962455193186
 20
169.9312969133435
 40
1.524
  0
CIRCLE
  5
37B
100
AcDbEntity
  8
0
  6
ByLayer
 62
    1
370
   -1
100
AcDbCircle
 10
167.3962455193185
 20
169.9312969133435
 40
1.524
  0
LINE
  5
37C
100
AcDbEntity
  8
0
  6
ByLayer
 62
    1
370
   -1
100
AcDbLine
 10
155.0370906076938
 20
163.584200220184
 11
142.2662906076938
 21
163.5842002201839
  0
LINE
  5
37D
100
AcDbEntity
  8
0
  6
ByLayer
 62
    1
370
   -1
100
AcDbLine
 10
144.7507455193185
 20
178.5850769133435
 11
130.8710455193185
 21
183.6980969133434
  0
CIRCLE
  5
37E
100
AcDbEntity
  8
0
  6
ByLayer
 62
    1
370
   -1
100
AcDbCircle
 10
121.3333455193185
 20
179.2530969133435
 40
1.5
  0
CIRCLE
  5
37F
100
AcDbEntity
  8
0
  6
ByLayer
 62
    1
370
   -1
100
AcDbCircle
 10
174.8165741650961
 20
177.4341239543369
 40
1.5
  0
LINE
  5
380
100
AcDbEntity
  8
0
  6
ByLayer
 62
    1
370
   -1
100
AcDbLine
 10
181.0868004309432
 20
176.6980002201841
 11
181.0868004309432
 21
97.80930251308011
  0
ARC
  5
381
100
AcDbEntity
  8
0
  6
ByLayer
 62
    1
370
   -1
100
AcDbCircle
 10
174.0868004309432
 20
176.6980002201841
 40
7
100
AcDbArc
 50
0
 51
90.0000000000021
  0
ARC
  5
382
100
AcDbEntity
  8
0
  6
ByLayer
 62
    1
370
   -1
100
AcDbCircle
 10
27.00000043094323
 20
52.26800022018534
 40
7
100
AcDbArc
 50
180
 51
270.0000000000044
  0
ARC
  5
383
100
AcDbEntity
  8
0
  6
ByLayer
 62
    1
370
   -1
100
AcDbCircle
 10
189.6164081867026
 20
13.8613989817456
 40
7
100
AcDbArc
 50
245.0045974735851
 51
335.0001875548369
  0
ARC
  5
384
100
AcDbEntity
  8
0
  6
ByLayer
 62
    1
370
   -1
100
AcDbCircle
 10
215.5807945925393
 20
69.54268118793243
 40
7
100
AcDbArc
 50
335.0001875548369
 51
65.00187288033814
  0
ARC
  5
385
100
AcDbEntity
  8
0
  6
ByLayer
 62
    1
370
   -1
100
AcDbCircle
 10
188.0868004309432
 20
97.80930251308011
 40
7
100
AcDbArc
 50
180
 51
245.0018728803381
  0
LINE
  5
386
100
AcDbEntity
  8
0
  6
ByLayer
 62
    1
370
   -1
100
AcDbLine
 10
27.00000043094323
 20
183.6980002201838
 11
130.8710004309432
 21
183.6980002201838
  0
ARC
  5
387
100
AcDbEntity
  8
0
  6
ByLayer
 62
    1
370
   -1
100
AcDbCircle
 10
104.1327924365542
 20
38.26800022019123
 40
7
100
AcDbArc
 50
65.00459747358512
 51
90.00000000000443
  0
CIRCLE
  5
388
100
AcDbEntity
  8
0
  6
ByLayer
 62
    1
370
   -1
100
AcDbCircle
 10
216.558535159808
 20
69.8984853426268
 40
1.5
  0
CIRCLE
  5
389
100
AcDbEntity
  8
0
  6
ByLayer
 62
    1
370
   -1
100
AcDbCircle
 10
189.9720971458492
 20
12.88240541745413
 40
1.5
  0
LINE
  5
38A
100
AcDbEntity
  8
0
  6
ByLayer
 62
    1
370
   -1
100
AcDbLine
 10
185.1286799776071
 20
91.46505130560462
 11
218.5389150458755
 21
75.88693239540794
  0
CIRCLE
  5
38B
100
AcDbEntity
  8
0
  6
ByLayer
 62
    1
370
   -1
100
AcDbCircle
 10
106.6698804309432
 20
49.71300022018277
 40
1.5
  0
LINE
  5
38C
100
AcDbEntity
  8
0
  6
ByLayer
 62
    1
370
   -1
100
AcDbLine
 10
221.9249587856984
 20
66.58437412303238
 11
195.9605723798616
 21
10.90309191684558
  0
CIRCLE
  5
38D
100
AcDbEntity
  8
0
  6
ByLayer
 62
    1
370
   -1
100
AcDbCircle
 10
26.26387643094321
 20
53.11937648603151
 40
1.5
  0
LINE
  5
38E
100
AcDbEntity
  8
0
  6
ByLayer
 62
    1
370
   -1
100
AcDbLine
 10
155.0370455193185
 20
174.5842969133434
 11
155.0370455193185
 21
177.0842969133434
  0
LINE
  5
38F
100
AcDbEntity
  8
0
  6
ByLayer
 62
    1
370
   -1
100
AcDbLine
 10
142.2662455193185
 20
177.0842969133434
 11
142.2662455193185
 21
173.541483335517
  0
LINE
  5
390
100
AcDbEntity
  8
0
  6
ByLayer
 62
    1
370
   -1
100
AcDbLine
 10
155.0370455193185
 20
163.5842969133433
 11
155.0370455193185
 21
166.6271104911697
  0
LINE
  5
391
100
AcDbEntity
  8
0
  6
ByLayer
 62
    1
370
   -1
100
AcDbLine
 10
165.9738455193185
 20
183.6980969133434
 11
152.0941455193185
 21
178.5850769133434
  0
LINE
  5
392
100
AcDbEntity
  8
0
  6
ByLayer
 62
    1
370
   -1
100
AcDbLine
 10
142.2662455193185
 20
173.541483335517
 11
139.2699035193185
 21
173.541483335517
  0
LINE
  5
393
100
AcDbEntity
  8
0
  6
ByLayer
 62
    1
370
   -1
100
AcDbLine
 10
142.2662455193185
 20
165.5842969133435
 11
142.2662455193185
 21
163.5842969133435
  0
LINE
  5
394
100
AcDbEntity
  8
0
  6
ByLayer
 62
    1
370
   -1
100
AcDbLine
 10
139.2706935606992
 20
165.5823704263719
 11
139.2699035193185
 21
173.541483335517
  0
LINE
  5
395
100
AcDbEntity
  8
0
  6
ByLayer
 62
    1
370
   -1
100
AcDbLine
 10
155.0370455193185
 20
174.5842969133434
 11
158.0333875193185
 21
174.5842969133434
  0
LINE
  5
396
100
AcDbEntity
  8
0
  6
ByLayer
 62
    1
370
   -1
100
AcDbLine
 10
142.2662455193185
 20
165.5842969133435
 11
139.2706935606992
 21
165.5823704263719
  0
LINE
  5
397
100
AcDbEntity
  8
0
  6
ByLayer
 62
    1
370
   -1
100
AcDbLine
 10
158.0325974779378
 20
166.6251840041985
 11
158.0333875193185
 21
174.5842969133434
  0
LINE
  5
398
100
AcDbEntity
  8
0
  6
ByLayer
 62
    1
370
   -1
100
AcDbLine
 10
155.0370455193185
 20
166.6271104911697
 11
158.0325974779378
 21
166.6251840041985
  0
LINE
  5
399
100
AcDbEntity
  8
0
  6
ByLayer
 62
    1
370
   -1
100
AcDbLine
 10
151.5370455193185
 20
178.5850769133434
 11
152.0941455193185
 21
178.5850769133434
  0
LINE
  5
39A
100
AcDbEntity
  8
0
  6
ByLayer
 62
    1
370
   -1
100
AcDbLine
 10
144.7507455193185
 20
178.5850769133434
 11
145.5370455193185
 21
178.5850769133434
  0
LINE
  5
39B
100
AcDbEntity
  8
0
  6
ByLayer
 62
    1
370
   -1
100
AcDbLine
 10
151.5370455193185
 20
177.0842969133435
 11
155.0370455193185
 21
177.0842969133434
  0
LINE
  5
39C
100
AcDbEntity
  8
0
  6
ByLayer
 62
    1
370
   -1
100
AcDbLine
 10
142.2662455193185
 20
177.0842969133434
 11
145.5370455193185
 21
177.0842969133434
  0
LINE
  5
39D
100
AcDbEntity
  8
0
  6
ByLayer
 62
    1
370
   -1
100
AcDbLine
 10
151.5370455193185
 20
178.5850769133434
 11
151.5370455193185
 21
177.0842969133434
  0
LINE
  5
39E
100
AcDbEntity
  8
0
  6
ByLayer
 62
    1
370
   -1
100
AcDbLine
 10
145.5370455193185
 20
177.0842969133434
 11
145.5370455193185
 21
178.5850769133434
  0
LINE
  5
39F
100
AcDbEntity
  8
0
  6
ByLayer
 62
    1
370
   -1
100
AcDbLine
 10
38.30784551931856
 20
170.435326900729
 11
40.80784551931856
 21
170.435326900729
  0
LINE
  5
3A0
100
AcDbEntity
  8
0
  6
ByLayer
 62
    1
370
   -1
100
AcDbLine
 10
52.80784551931859
 20
170.435326900729
 11
52.80784551931859
 21
172.435326900729
  0
LINE
  5
3A1
100
AcDbEntity
  8
0
  6
ByLayer
 62
    1
370
   -1
100
AcDbLine
 10
40.80784551931856
 20
170.435326900729
 11
40.80784551931856
 21
172.435326900729
  0
LINE
  5
3A2
100
AcDbEntity
  8
0
  6
ByLayer
 62
    1
370
   -1
100
AcDbLine
 10
40.80784551931856
 20
172.435326900729
 11
52.80784551931859
 21
172.435326900729
  0
ARC
  5
3A3
100
AcDbEntity
  8
0
  6
ByLayer
 62
    1
370
   -1
100
AcDbCircle
 10
27.00000043094323
 20
176.6980002201838
 40
7
100
AcDbArc
 50
90.00000000000004
 51
180
  0
LINE
  5
3A4
100
AcDbEntity
  8
0
  6
ByLayer
 62
    1
370
   -1
100
AcDbLine
 10
38.30784551931856
 20
160.233266900729
 11
40.80784551931856
 21
160.233266900729
  0
LINE
  5
3A5
100
AcDbEntity
  8
0
  6
ByLayer
 62
    1
370
   -1
100
AcDbLine
 10
40.80784551931856
 20
158.233266900729
 11
40.80784551931856
 21
160.233266900729
  0
LINE
  5
3A6
100
AcDbEntity
  8
0
  6
ByLayer
 62
    1
370
   -1
100
AcDbLine
 10
52.80784551931859
 20
158.233266900729
 11
52.80784551931859
 21
160.233266900729
  0
LINE
  5
3A7
100
AcDbEntity
  8
0
  6
ByLayer
 62
    1
370
   -1
100
AcDbLine
 10
40.80784551931856
 20
158.233266900729
 11
52.80784551931859
 21
158.233266900729
  0
LINE
  5
3A8
100
AcDbEntity
  8
0
  6
ByLayer
 62
    1
370
   -1
100
AcDbLine
 10
52.80784551931859
 20
160.233266900729
 11
74.99999999999991
 21
160.233266900729
  0
LINE
  5
3A9
100
AcDbEntity
  8
0
  6
ByLayer
 62
    1
370
   -1
100
AcDbLine
 10
38.30784551931856
 20
160.233266900729
 11
38.30784551931856
 21
170.435326900729
  0
LINE
  5
3AA
100
AcDbEntity
  8
0
  6
ByLayer
 62
    1
370
   -1
100
AcDbLine
 10
52.80784551931859
 20
170.435326900729
 11
75.00000000000003
 21
170.435326900729
  0
LINE
  5
3AB
100
AcDbEntity
  8
0
  6
ByLayer
 62
    1
370
   -1
100
AcDbLine
 10
75.00000000000003
 20
170.435326900729
 11
74.99999999999991
 21
160.233266900729
  0
CIRCLE
  5
3AC
100
AcDbEntity
  8
0
  6
ByLayer
 62
    1
370
   -1
100
AcDbCircle
 10
26.26387669679033
 20
177.4341239543367
 40
1.5
  0
ENDSEC
  0
SECTION
  2
OBJECTS
  0
DICTIONARY
  5
C
330
0
100
AcDbDictionary
281
    1
  3
ACAD_GROUP
350
D
  0
DICTIONARY
  5
D
330
C
100
AcDbDictionary
281
    1
  0
ENDSEC
  0
EOF
