999
dxflib 3.17.0.0
  0
SECTION
  2
HEADER
  9
$ACADVER
  1
AC1015
  9
$HANDSEED
  5
FFFF
  9
$ANGBASE
 50
0.0
  9
$ANGDIR
 70
0
  9
$ATTMODE
 70
1
  9
$AUNITS
 70
0
  9
$AUPREC
 70
0
  9
$CECOLOR
 62
18
  9
$CELTSCALE
 40
1.0
  9
$CHAMFERA
 40
0.5
  9
$CHAMFERB
 40
0.5
  9
$CHAMFERC
 40
1.0
  9
$CHAMFERD
 40
0.0
  9
$CMLJUST
 70
0
  9
$CMLSCALE
 40
1.0
  9
$DIMADEC
 70
0
  9
$DIMALT
 70
0
  9
$DIMALTD
 70
2
  9
$DIMALTF
 40
25.3999999999999986
  9
$DIMALTRND
 40
0.0
  9
$DIMALTTD
 70
2
  9
$DIMALTTZ
 70
0
  9
$DIMALTU
 70
2
  9
$DIMALTZ
 70
0
  9
$DIMAPOST
  1

  9
$DIMASZ
 40
2.5
  9
$DIMATFIT
 70
3
  9
$DIMAUNIT
 70
0
  9
$DIMAZIN
 70
2
  9
$DIMBLK
  1

  9
$DIMBLK1
  1

  9
$DIMBLK2
  1

  9
$DIMCEN
 40
0.09
  9
$DIMCLRD
 70
18
  9
$DIMCLRE
 70
18
  9
$DIMCLRT
 70
18
  9
$DIMDEC
 70
4
  9
$DIMDLE
 40
0.0
  9
$DIMDLI
 40
0.38
  9
$DIMDSEP
 70
46
  9
$DIMEXE
 40
1.25
  9
$DIMEXO
 40
0.625
  9
$DIMFRAC
 70
0
  9
$DIMGAP
 40
0.625
  9
$DIMJUST
 70
0
  9
$DIMLDRBLK
  1

  9
$DIMLFAC
 40
1.0
  9
$DIMLIM
 70
0
  9
$DIMLUNIT
 70
2
  9
$DIMLWD
 70
-2
  9
$DIMLWE
 70
-2
  9
$DIMPOST
  1

  9
$DIMRND
 40
0.0
  9
$DIMSAH
 70
0
  9
$DIMSCALE
 40
1.0
  9
$DIMSD1
 70
0
  9
$DIMSD2
 70
0
  9
$DIMSE1
 70
0
  9
$DIMSE2
 70
0
  9
$DIMSOXD
 70
0
  9
$DIMTAD
 70
0
  9
$DIMTDEC
 70
4
  9
$DIMTFAC
 40
1.0
  9
$DIMTIH
 70
1
  9
$DIMTIX
 70
0
  9
$DIMTM
 40
0.0
  9
$DIMTOFL
 70
0
  9
$DIMTOH
 70
1
  9
$DIMTOL
 70
0
  9
$DIMTOLJ
 70
1
  9
$DIMTP
 40
0.0
  9
$DIMTSZ
 40
0.0
  9
$DIMTVP
 40
0.0
  9
$DIMTXSTY
  7
Standard
  9
$DIMTXT
 40
2.5
  9
$DIMTZIN
 70
0
  9
$DIMUPT
 70
0
  9
$DIMZIN
 70
8
  9
$DISPSILH
 70
0
  9
$DWGCODEPAGE
  3
ANSI_1252
  9
$ELEVATION
 40
0.0
  9
$EXTMAX
 10
-100000000000000000000.0
 20
-100000000000000000000.0
 30
-100000000000000000000.0
  9
$EXTMIN
 10
100000000000000000000.0
 20
100000000000000000000.0
 30
100000000000000000000.0
  9
$FILLETRAD
 40
0.5
  9
$FILLMODE
 70
1
  9
$INSBASE
 10
0.0
 20
0.0
 30
0.0
  9
$INSUNITS
 70
4
  9
$LIMCHECK
 70
0
  9
$LIMMAX
 10
12.0
 20
9.0
  9
$LIMMIN
 10
0.0
 20
0.0
  9
$LTSCALE
 40
1.0
  9
$LUNITS
 70
2
  9
$LUPREC
 70
4
  9
$MAXACTVP
 70
64
  9
$MEASUREMENT
 70
1
  9
$MIRRTEXT
 70
1
  9
$ORTHOMODE
 70
0
  9
$PDMODE
 70
0
  9
$PDSIZE
 40
0.0
  9
$PELEVATION
 40
0.0
  9
$PEXTMAX
 10
-100000000000000000000.0
 20
-100000000000000000000.0
 30
-100000000000000000000.0
  9
$PEXTMIN
 10
100000000000000000000.0
 20
100000000000000000000.0
 30
100000000000000000000.0
  9
$PINSBASE
 10
0.0
 20
0.0
 30
0.0
  9
$PLIMCHECK
 70
0
  9
$PLIMMAX
 10
12.0
 20
9.0
  9
$PLIMMIN
 10
0.0
 20
0.0
  9
$PLINEGEN
 70
0
  9
$PLINEWID
 40
0.0
  9
$PROXYGRAPHICS
 70
1
  9
$PSLTSCALE
 70
1
  9
$PUCSNAME
  2

  9
$PUCSORG
 10
0.0
 20
0.0
 30
0.0
  9
$PUCSXDIR
 10
1.0
 20
0.0
 30
0.0
  9
$PUCSYDIR
 10
0.0
 20
1.0
 30
0.0
  9
$QTEXTMODE
 70
0
  9
$REGENMODE
 70
1
  9
$SHADEDGE
 70
3
  9
$SHADEDIF
 70
70
  9
$SKETCHINC
 40
0.1
  9
$SKPOLY
 70
0
  9
$SPLFRAME
 70
0
  9
$SPLINESEGS
 70
8
  9
$SPLINETYPE
 70
6
  9
$SURFTAB1
 70
6
  9
$SURFTAB2
 70
6
  9
$SURFTYPE
 70
6
  9
$SURFU
 70
6
  9
$SURFV
 70
6
  9
$TEXTSIZE
 40
0.2
  9
$TEXTSTYLE
  7
Standard
  9
$THICKNESS
 40
0.0
  9
$TILEMODE
 70
1
  9
$TRACEWID
 40
0.05
  9
$TREEDEPTH
 70
3020
  9
$UCSNAME
  2

  9
$UCSORG
 10
0.0
 20
0.0
 30
0.0
  9
$UCSXDIR
 10
1.0
 20
0.0
 30
0.0
  9
$UCSYDIR
 10
0.0
 20
1.0
 30
0.0
  9
$UNITMODE
 70
0
  9
$USERI1
 70
0
  9
$USERI2
 70
0
  9
$USERI3
 70
0
  9
$USERI4
 70
0
  9
$USERI5
 70
0
  9
$USERR1
 40
0.0
  9
$USERR2
 40
0.0
  9
$USERR3
 40
0.0
  9
$USERR4
 40
0.0
  9
$USERR5
 40
0.0
  9
$USRTIMER
 70
1
  9
$VISRETAIN
 70
1
  0
ENDSEC
  0
SECTION
  2
TABLES
  0
TABLE
  2
VPORT
  5
8
100
AcDbSymbolTable
 70
1
  0
VPORT
  5
30
100
AcDbSymbolTableRecord
100
AcDbViewportTableRecord
  2
*Active
 70
0
 10
0.0
 20
0.0
 11
1.0
 21
1.0
 12
286.3055555555554861
 22
148.5
 13
0.0
 23
0.0
 14
10.0
 24
10.0
 15
10.0
 25
10.0
 16
0.0
 26
0.0
 36
1.0
 17
0.0
 27
0.0
 37
0.0
 40
297.0
 41
1.92798353909465
 42
50.0
 43
0.0
 44
0.0
 50
0.0
 51
0.0
 71
0
 72
100
 73
1
 74
3
 75
1
 76
1
 77
0
 78
0
281
0
 65
1
110
0.0
120
0.0
130
0.0
111
1.0
121
0.0
131
0.0
112
0.0
122
1.0
132
0.0
 79
0
146
0.0
  0
ENDTAB
  0
TABLE
  2
LTYPE
  5
5
100
AcDbSymbolTable
 70
41
  0
LTYPE
  5
16
100
AcDbSymbolTableRecord
100
AcDbLinetypeTableRecord
  2
Continuous
 70
0
  3
Solid line
 72
65
 73
0
 40
0.0
  0
LTYPE
  5
31
100
AcDbSymbolTableRecord
100
AcDbLinetypeTableRecord
  2
DASHDOT
 70
0
  3

 72
65
 73
4
 40
24.0
 49
12.0
 74
0
 49
-5.9500000000000002
 74
0
 49
0.1
 74
0
 49
-5.9500000000000002
 74
0
  0
LTYPE
  5
32
100
AcDbSymbolTableRecord
100
AcDbLinetypeTableRecord
  2
ACAD_ISO05W100
 70
0
  3
ISO long-dash double-dot ____ .. ____ .. ____ . 
 72
65
 73
6
 40
33.0
 49
24.0
 74
0
 49
-3.0
 74
0
 49
0.0
 74
0
 49
-3.0
 74
0
 49
0.0
 74
0
 49
-3.0
 74
0
  0
LTYPE
  5
33
100
AcDbSymbolTableRecord
100
AcDbLinetypeTableRecord
  2
ACAD_ISO14W100
 70
0
  3
ISO dash triple-dot __ . . . __ . . . __ . . . _
 72
65
 73
8
 40
24.0
 49
12.0
 74
0
 49
-3.0
 74
0
 49
0.0
 74
0
 49
-3.0
 74
0
 49
0.0
 74
0
 49
-3.0
 74
0
 49
0.0
 74
0
 49
-3.0
 74
0
  0
LTYPE
  5
34
100
AcDbSymbolTableRecord
100
AcDbLinetypeTableRecord
  2
CENTERX2
 70
0
  3

 72
65
 73
4
 40
100.0
 49
64.0
 74
0
 49
-12.0
 74
0
 49
12.0
 74
0
 49
-12.0
 74
0
  0
LTYPE
  5
35
100
AcDbSymbolTableRecord
100
AcDbLinetypeTableRecord
  2
ACAD_ISO13W100
 70
0
  3
ISO double-dash double-dot __ __ . . __ __ . . _
 72
65
 73
8
 40
36.0
 49
12.0
 74
0
 49
-3.0
 74
0
 49
12.0
 74
0
 49
-3.0
 74
0
 49
0.0
 74
0
 49
-3.0
 74
0
 49
0.0
 74
0
 49
-3.0
 74
0
  0
LTYPE
  5
36
100
AcDbSymbolTableRecord
100
AcDbLinetypeTableRecord
  2
HIDDENX2
 70
0
  3
Hidden (2x) ____ ____ ____ ____ ____ ____ ____ 
 72
65
 73
2
 40
19.0499999999999972
 49
12.6999999999999993
 74
0
 49
-6.3499999999999996
 74
0
  0
LTYPE
  5
37
100
AcDbSymbolTableRecord
100
AcDbLinetypeTableRecord
  2
DOT
 70
0
  3

 72
65
 73
2
 40
6.2999999999999998
 49
0.1
 74
0
 49
-6.2000000000000002
 74
0
  0
LTYPE
  5
38
100
AcDbSymbolTableRecord
100
AcDbLinetypeTableRecord
  2
BORDER2
 70
0
  3

 72
65
 73
6
 40
21.0
 49
6.0
 74
0
 49
-3.0
 74
0
 49
6.0
 74
0
 49
-2.9500000000000002
 74
0
 49
0.1
 74
0
 49
-2.9500000000000002
 74
0
  0
LTYPE
  5
39
100
AcDbSymbolTableRecord
100
AcDbLinetypeTableRecord
  2
PHANTOM
 70
0
  3
Phantom ______  __  __  ______  __  __  ______ 
 72
65
 73
6
 40
63.5000000000000071
 49
31.75
 74
0
 49
-6.3499999999999996
 74
0
 49
6.3499999999999996
 74
0
 49
-6.3499999999999996
 74
0
 49
6.3499999999999996
 74
0
 49
-6.3499999999999996
 74
0
  0
LTYPE
  5
3A
100
AcDbSymbolTableRecord
100
AcDbLinetypeTableRecord
  2
PHANTOM2
 70
0
  3
Phantom (.5x) ___ _ _ ___ _ _ ___ _ _ ___ _ _
 72
65
 73
6
 40
31.7500000000000036
 49
15.875
 74
0
 49
-3.1749999999999998
 74
0
 49
3.1749999999999998
 74
0
 49
-3.1749999999999998
 74
0
 49
3.1749999999999998
 74
0
 49
-3.1749999999999998
 74
0
  0
LTYPE
  5
3B
100
AcDbSymbolTableRecord
100
AcDbLinetypeTableRecord
  2
ACAD_ISO02W100
 70
0
  3
ISO dash __ __ __ __ __ __ __ __ __ __ __ __ __
 72
65
 73
2
 40
15.0
 49
12.0
 74
0
 49
-3.0
 74
0
  0
LTYPE
  5
3C
100
AcDbSymbolTableRecord
100
AcDbLinetypeTableRecord
  2
ACAD_ISO03W100
 70
0
  3
ISO dash space __    __    __    __    __    __
 72
65
 73
2
 40
30.0
 49
12.0
 74
0
 49
-18.0
 74
0
  0
LTYPE
  5
3D
100
AcDbSymbolTableRecord
100
AcDbLinetypeTableRecord
  2
DIVIDE
 70
0
  3

 72
65
 73
6
 40
29.9999999999999929
 49
12.0
 74
0
 49
-5.9000000000000004
 74
0
 49
0.15
 74
0
 49
-5.9000000000000004
 74
0
 49
0.15
 74
0
 49
-5.9000000000000004
 74
0
  0
LTYPE
  5
3E
100
AcDbSymbolTableRecord
100
AcDbLinetypeTableRecord
  2
ACAD_ISO07W100
 70
0
  3
ISO dot . . . . . . . . . . . . . . . . . . . . 
 72
65
 73
2
 40
3.0
 49
0.0
 74
0
 49
-3.0
 74
0
  0
LTYPE
  5
14
100
AcDbSymbolTableRecord
100
AcDbLinetypeTableRecord
  2
ByBlock
 70
0
  3

 72
65
 73
0
 40
0.0
  0
LTYPE
  5
3F
100
AcDbSymbolTableRecord
100
AcDbLinetypeTableRecord
  2
DASHEDX2
 70
0
  3

 72
65
 73
2
 40
36.0
 49
24.0
 74
0
 49
-12.0
 74
0
  0
LTYPE
  5
40
100
AcDbSymbolTableRecord
100
AcDbLinetypeTableRecord
  2
HIDDEN2
 70
0
  3
Hidden (.5x) _ _ _ _ _ _ _ _ _ _ _ _ _ _ _ _ _ 
 72
65
 73
2
 40
4.7624999999999993
 49
3.1749999999999998
 74
0
 49
-1.5874999999999999
 74
0
  0
LTYPE
  5
41
100
AcDbSymbolTableRecord
100
AcDbLinetypeTableRecord
  2
BORDER
 70
0
  3

 72
65
 73
6
 40
42.0000000000000071
 49
12.0
 74
0
 49
-6.0
 74
0
 49
12.0
 74
0
 49
-5.9500000000000002
 74
0
 49
0.1
 74
0
 49
-5.9500000000000002
 74
0
  0
LTYPE
  5
42
100
AcDbSymbolTableRecord
100
AcDbLinetypeTableRecord
  2
DASHED2
 70
0
  3

 72
65
 73
2
 40
9.0
 49
6.0
 74
0
 49
-3.0
 74
0
  0
LTYPE
  5
15
100
AcDbSymbolTableRecord
100
AcDbLinetypeTableRecord
  2
ByLayer
 70
0
  3

 72
65
 73
0
 40
0.0
  0
LTYPE
  5
43
100
AcDbSymbolTableRecord
100
AcDbLinetypeTableRecord
  2
ACAD_ISO10W100
 70
0
  3
ISO dash dot __ . __ . __ . __ . __ . __ . __ . 
 72
65
 73
4
 40
18.0
 49
12.0
 74
0
 49
-3.0
 74
0
 49
0.0
 74
0
 49
-3.0
 74
0
  0
LTYPE
  5
44
100
AcDbSymbolTableRecord
100
AcDbLinetypeTableRecord
  2
CENTER2
 70
0
  3

 72
65
 73
4
 40
25.0
 49
16.0
 74
0
 49
-3.0
 74
0
 49
3.0
 74
0
 49
-3.0
 74
0
  0
LTYPE
  5
45
100
AcDbSymbolTableRecord
100
AcDbLinetypeTableRecord
  2
HIDDEN
 70
0
  3
Hidden __ __ __ __ __ __ __ __ __ __ __ __ __ __
 72
65
 73
2
 40
9.5249999999999986
 49
6.3499999999999996
 74
0
 49
-3.1749999999999998
 74
0
  0
LTYPE
  5
46
100
AcDbSymbolTableRecord
100
AcDbLinetypeTableRecord
  2
ACAD_ISO12W100
 70
0
  3
ISO dash double-dot __ . . __ . . __ . . __ . . 
 72
65
 73
6
 40
21.0
 49
12.0
 74
0
 49
-3.0
 74
0
 49
0.0
 74
0
 49
-3.0
 74
0
 49
0.0
 74
0
 49
-3.0
 74
0
  0
LTYPE
  5
47
100
AcDbSymbolTableRecord
100
AcDbLinetypeTableRecord
  2
DASHED
 70
0
  3

 72
65
 73
2
 40
18.0
 49
12.0
 74
0
 49
-6.0
 74
0
  0
LTYPE
  5
48
100
AcDbSymbolTableRecord
100
AcDbLinetypeTableRecord
  2
ACAD_ISO08W100
 70
0
  3
ISO long-dash short-dash ____ __ ____ __ ____ _
 72
65
 73
4
 40
36.0
 49
24.0
 74
0
 49
-3.0
 74
0
 49
6.0
 74
0
 49
-3.0
 74
0
  0
LTYPE
  5
49
100
AcDbSymbolTableRecord
100
AcDbLinetypeTableRecord
  2
ACAD_ISO15W100
 70
0
  3
ISO double-dash triple-dot __ __ . . . __ __ . .
 72
65
 73
10
 40
39.0
 49
12.0
 74
0
 49
-3.0
 74
0
 49
12.0
 74
0
 49
-3.0
 74
0
 49
0.0
 74
0
 49
-3.0
 74
0
 49
0.0
 74
0
 49
-3.0
 74
0
 49
0.0
 74
0
 49
-3.0
 74
0
  0
LTYPE
  5
4A
100
AcDbSymbolTableRecord
100
AcDbLinetypeTableRecord
  2
ACAD_ISO06W100
 70
0
  3
ISO long-dash triple-dot ____ ... ____ ... ____
 72
65
 73
8
 40
36.0
 49
24.0
 74
0
 49
-3.0
 74
0
 49
0.0
 74
0
 49
-3.0
 74
0
 49
0.0
 74
0
 49
-3.0
 74
0
 49
0.0
 74
0
 49
-3.0
 74
0
  0
LTYPE
  5
4B
100
AcDbSymbolTableRecord
100
AcDbLinetypeTableRecord
  2
DOT2
 70
0
  3

 72
65
 73
2
 40
3.2000000000000002
 49
0.1
 74
0
 49
-3.1000000000000001
 74
0
  0
LTYPE
  5
4C
100
AcDbSymbolTableRecord
100
AcDbLinetypeTableRecord
  2
BORDERX2
 70
0
  3

 72
65
 73
6
 40
84.0
 49
24.0
 74
0
 49
-12.0
 74
0
 49
24.0
 74
0
 49
-11.9499999999999993
 74
0
 49
0.1
 74
0
 49
-11.9499999999999993
 74
0
  0
LTYPE
  5
4D
100
AcDbSymbolTableRecord
100
AcDbLinetypeTableRecord
  2
PHANTOMX2
 70
0
  3
Phantom (2x) ____________    ____    ____   _
 72
65
 73
6
 40
127.0000000000000142
 49
63.5
 74
0
 49
-12.6999999999999993
 74
0
 49
12.6999999999999993
 74
0
 49
-12.6999999999999993
 74
0
 49
12.6999999999999993
 74
0
 49
-12.6999999999999993
 74
0
  0
LTYPE
  5
4E
100
AcDbSymbolTableRecord
100
AcDbLinetypeTableRecord
  2
DASHDOTX2
 70
0
  3

 72
65
 73
4
 40
48.0
 49
24.0
 74
0
 49
-11.9499999999999993
 74
0
 49
0.1
 74
0
 49
-11.9499999999999993
 74
0
  0
LTYPE
  5
4F
100
AcDbSymbolTableRecord
100
AcDbLinetypeTableRecord
  2
DIVIDEX2
 70
0
  3

 72
65
 73
6
 40
59.9999999999999929
 49
24.0
 74
0
 49
-11.9000000000000004
 74
0
 49
0.15
 74
0
 49
-11.9000000000000004
 74
0
 49
0.15
 74
0
 49
-11.9000000000000004
 74
0
  0
LTYPE
  5
50
100
AcDbSymbolTableRecord
100
AcDbLinetypeTableRecord
  2
ACAD_ISO04W100
 70
0
  3
ISO long-dash dot ____ . ____ . ____ . ____ . _
 72
65
 73
4
 40
30.0
 49
24.0
 74
0
 49
-3.0
 74
0
 49
0.0
 74
0
 49
-3.0
 74
0
  0
LTYPE
  5
51
100
AcDbSymbolTableRecord
100
AcDbLinetypeTableRecord
  2
CENTER
 70
0
  3

 72
65
 73
4
 40
50.0
 49
32.0
 74
0
 49
-6.0
 74
0
 49
6.0
 74
0
 49
-6.0
 74
0
  0
LTYPE
  5
52
100
AcDbSymbolTableRecord
100
AcDbLinetypeTableRecord
  2
DOTX2
 70
0
  3

 72
65
 73
2
 40
12.5
 49
0.1
 74
0
 49
-12.4000000000000004
 74
0
  0
LTYPE
  5
53
100
AcDbSymbolTableRecord
100
AcDbLinetypeTableRecord
  2
ACAD_ISO09W100
 70
0
  3
ISO long-dash double-short-dash ____ __ __ ____
 72
65
 73
6
 40
45.0
 49
24.0
 74
0
 49
-3.0
 74
0
 49
6.0
 74
0
 49
-3.0
 74
0
 49
6.0
 74
0
 49
-3.0
 74
0
  0
LTYPE
  5
54
100
AcDbSymbolTableRecord
100
AcDbLinetypeTableRecord
  2
DIVIDE2
 70
0
  3

 72
65
 73
6
 40
15.0000000000000018
 49
6.0
 74
0
 49
-2.8999999999999999
 74
0
 49
0.15
 74
0
 49
-2.8999999999999999
 74
0
 49
0.15
 74
0
 49
-2.8999999999999999
 74
0
  0
LTYPE
  5
55
100
AcDbSymbolTableRecord
100
AcDbLinetypeTableRecord
  2
DASHDOT2
 70
0
  3

 72
65
 73
4
 40
12.0
 49
6.0
 74
0
 49
-2.9500000000000002
 74
0
 49
0.1
 74
0
 49
-2.9500000000000002
 74
0
  0
LTYPE
  5
56
100
AcDbSymbolTableRecord
100
AcDbLinetypeTableRecord
  2
ACAD_ISO11W100
 70
0
  3
ISO double-dash dot __ __ . __ __ . __ __ . __ _
 72
65
 73
6
 40
33.0
 49
12.0
 74
0
 49
-3.0
 74
0
 49
12.0
 74
0
 49
-3.0
 74
0
 49
0.0
 74
0
 49
-3.0
 74
0
  0
ENDTAB
  0
TABLE
  2
LAYER
  5
2
100
AcDbSymbolTable
 70
3
  0
LAYER
  5
10
100
AcDbSymbolTableRecord
100
AcDbLayerTableRecord
  2
0
 70
0
 62
7
420
16777215
  6
Continuous
370
25
390
F
  0
LAYER
  5
57
100
AcDbSymbolTableRecord
100
AcDbLayerTableRecord
  2
BLACK
 70
0
 62
1
420
16711680
  6
Continuous
370
-3
390
F
  0
LAYER
  5
58
100
AcDbSymbolTableRecord
100
AcDbLayerTableRecord
  2
WHITE
 70
0
 62
14
420
8323072
  6
Continuous
370
-3
390
F
  0
ENDTAB
  0
TABLE
  2
STYLE
  5
3
100
AcDbSymbolTable
 70
1
  0
STYLE
  5
59
100
AcDbSymbolTableRecord
100
AcDbTextStyleTableRecord
  2
Standard
 70
0
 40
0.0
 41
1.0
 50
0.0
 71
0
 42
2.5
  3

  4

1001
ACAD
1000
txt
1071
0
  0
ENDTAB
  0
TABLE
  2
VIEW
  5
6
100
AcDbSymbolTable
 70
0
  0
ENDTAB
  0
TABLE
  2
UCS
  5
7
100
AcDbSymbolTable
 70
0
  0
ENDTAB
  0
TABLE
  2
APPID
  5
9
100
AcDbSymbolTable
 70
1
  0
APPID
  5
12
100
AcDbSymbolTableRecord
100
AcDbRegAppTableRecord
  2
ACAD
 70
0
  0
APPID
  5
5A
100
AcDbSymbolTableRecord
100
AcDbRegAppTableRecord
  2
QCAD
 70
0
  0
ENDTAB
  0
TABLE
  2
DIMSTYLE
  5
A
100
AcDbSymbolTable
 70
1
100
AcDbDimStyleTable
 71
0
  0
DIMSTYLE
105
27
100
AcDbSymbolTableRecord
100
AcDbDimStyleTableRecord
  2
Standard
 41
2.5
 42
0.625
 43
3.75
 44
1.25
 70
0
 73
0
 74
0
 77
1
 78
8
140
2.5
141
2.5
143
0.03937007874016
147
0.625
171
3
172
1
271
2
272
2
274
3
278
44
283
0
284
8
340
59
  0
ENDTAB
  0
TABLE
  2
BLOCK_RECORD
  5
1
100
AcDbSymbolTable
 70
1
  0
BLOCK_RECORD
  5
1F
100
AcDbSymbolTableRecord
100
AcDbBlockTableRecord
  2
*Model_Space
340
22
  0
BLOCK_RECORD
  5
1B
100
AcDbSymbolTableRecord
100
AcDbBlockTableRecord
  2
*Paper_Space
340
1E
  0
BLOCK_RECORD
  5
23
100
AcDbSymbolTableRecord
100
AcDbBlockTableRecord
  2
*Paper_Space0
340
26
  0
ENDTAB
  0
ENDSEC
  0
SECTION
  2
BLOCKS
  0
BLOCK
  5
20
100
AcDbEntity
  8
0
100
AcDbBlockBegin
  2
*Model_Space
 70
0
 10
0.0
 20
0.0
 30
0.0
  3
*Model_Space
  1

  0
ENDBLK
  5
21
100
AcDbEntity
  8
0
100
AcDbBlockEnd
  0
BLOCK
  5
1C
100
AcDbEntity
 67
1
  8
0
100
AcDbBlockBegin
  2
*Paper_Space
 70
0
 10
0.0
 20
0.0
 30
0.0
  3
*Paper_Space
  1

  0
ENDBLK
  5
1D
100
AcDbEntity
 67
1
  8
0
100
AcDbBlockEnd
  0
BLOCK
  5
24
100
AcDbEntity
  8
0
100
AcDbBlockBegin
  2
*Paper_Space0
 70
0
 10
0.0
 20
0.0
 30
0.0
  3
*Paper_Space0
  1

  0
ENDBLK
  5
25
100
AcDbEntity
  8
0
100
AcDbBlockEnd
  0
ENDSEC
  0
SECTION
  2
ENTITIES
  0
ARC
  5
5B
100
AcDbEntity
  8
0
 62
1
420
16711680
370
0
 48
1.0
  6
Continuous
100
AcDbCircle
 10
188.0868000000000109
 20
97.8093022928964047
 30
0.0
 40
7.0
100
AcDbArc
 50
180.0
 51
245.0018728803383112
  0
ARC
  5
5C
100
AcDbEntity
  8
0
 62
1
420
16711680
370
0
 48
1.0
  6
Continuous
100
AcDbCircle
 10
39.3261409999999998
 20
148.8271909999999991
 30
0.0
 40
1.0
100
AcDbArc
 50
90.0
 51
180.0
  0
LINE
  5
5D
100
AcDbEntity
  8
0
 62
1
420
16711680
370
0
 48
1.0
  6
Continuous
100
AcDbLine
 10
221.9249583547552049
 20
66.5843739028486823
 30
0.0
 11
195.9605719489184139
 21
10.9030916966620204
 31
0.0
  0
LINE
  5
5E
100
AcDbEntity
  8
0
 62
1
420
16711680
370
0
 48
1.0
  6
Continuous
100
AcDbLine
 10
186.6585889947253065
 20
7.5170068933925549
 30
0.0
 11
107.0906107666449003
 21
44.612391868175628
 31
0.0
  0
CIRCLE
  5
5F
100
AcDbEntity
  8
0
 62
1
420
16711680
370
0
 48
1.0
  6
Continuous
100
AcDbCircle
 10
121.3332999999998947
 20
179.2530000000002985
 30
0.0
 40
1.5
  0
LINE
  5
60
100
AcDbEntity
  8
0
 62
1
420
16711680
370
0
 48
1.0
  6
Continuous
100
AcDbLine
 10
104.1327920056102982
 20
45.2680000000897778
 30
0.0
 11
27.0000000000004512
 21
45.2680000000048466
 31
0.0
  0
CIRCLE
  5
61
100
AcDbEntity
  8
0
 62
1
420
16711680
370
0
 48
1.0
  6
Continuous
100
AcDbCircle
 10
174.8165737341527972
 20
177.4341237341531894
 30
0.0
 40
1.5
  0
ARC
  5
62
100
AcDbEntity
  8
0
 62
1
420
16711680
370
0
 48
1.0
  6
Continuous
100
AcDbCircle
 10
26.9999999999999112
 20
176.6980000000000928
 30
0.0
 40
7.0
100
AcDbArc
 50
90.0000000000000426
 51
180.0
  0
ARC
  5
63
100
AcDbEntity
  8
0
 62
1
420
16711680
370
0
 48
1.0
  6
Continuous
100
AcDbCircle
 10
174.0868000000000109
 20
176.6980000000002917
 30
0.0
 40
7.0
100
AcDbArc
 50
0.0
 51
90.0000000000021032
  0
ARC
  5
64
100
AcDbEntity
  8
0
 62
1
420
16711680
370
0
 48
1.0
  6
Continuous
100
AcDbCircle
 10
26.9999999999998899
 20
52.2680000000016278
 30
0.0
 40
7.0
100
AcDbArc
 50
180.0
 51
270.0000000000043769
  0
ARC
  5
65
100
AcDbEntity
  8
0
 62
1
420
16711680
370
0
 48
1.0
  6
Continuous
100
AcDbCircle
 10
189.6164077557592975
 20
13.8613987615616505
 30
0.0
 40
7.0
100
AcDbArc
 50
245.004597473585136
 51
335.0001875548368844
  0
ARC
  5
66
100
AcDbEntity
  8
0
 62
1
420
16711680
370
0
 48
1.0
  6
Continuous
100
AcDbCircle
 10
215.5807941615960885
 20
69.5426809677486517
 30
0.0
 40
7.0
100
AcDbArc
 50
335.0001875548368844
 51
65.0018728803380981
  0
CIRCLE
  5
67
100
AcDbEntity
  8
0
 62
1
420
16711680
370
0
 48
1.0
  6
Continuous
100
AcDbCircle
 10
216.5585347288646858
 20
69.898485122443077
 30
0.0
 40
1.5
  0
ARC
  5
68
100
AcDbEntity
  8
0
 62
1
420
16711680
370
0
 48
1.0
  6
Continuous
100
AcDbCircle
 10
104.1327920056108951
 20
38.2680000000076532
 30
0.0
 40
7.0
100
AcDbArc
 50
65.0045974735850933
 51
90.0000000000044196
  0
CIRCLE
  5
69
100
AcDbEntity
  8
0
 62
1
420
16711680
370
0
 48
1.0
  6
Continuous
100
AcDbCircle
 10
189.9720967149058879
 20
12.8824051972698292
 30
0.0
 40
1.5
  0
CIRCLE
  5
6A
100
AcDbEntity
  8
0
 62
1
420
16711680
370
0
 48
1.0
  6
Continuous
100
AcDbCircle
 10
106.6698799999999068
 20
49.7129999999990986
 30
0.0
 40
1.5
  0
CIRCLE
  5
6B
100
AcDbEntity
  8
0
 62
1
420
16711680
370
0
 48
1.0
  6
Continuous
100
AcDbCircle
 10
26.2638759999998683
 20
53.1193762658477624
 30
0.0
 40
1.5
  0
LINE
  5
6C
100
AcDbEntity
  8
0
 62
1
420
16711680
370
0
 48
1.0
  6
Continuous
100
AcDbLine
 10
181.0868000000000109
 20
176.6980000000002065
 30
0.0
 11
181.0867999999998972
 21
97.8093022928964899
 31
0.0
  0
LINE
  5
6D
100
AcDbEntity
  8
0
 62
1
420
16711680
370
0
 48
1.0
  6
Continuous
100
AcDbLine
 10
20.0
 20
52.268000000001642
 30
0.0
 11
20.0000000000000284
 21
176.6980000000000928
 31
0.0
  0
LINE
  5
6E
100
AcDbEntity
  8
0
 62
1
420
16711680
370
0
 48
1.0
  6
Continuous
100
AcDbLine
 10
26.9999999999998899
 20
183.6980000000002065
 30
0.0
 11
174.0867999999996982
 21
183.6980000000002917
 31
0.0
  0
LINE
  5
6F
100
AcDbEntity
  8
0
 62
1
420
16711680
370
0
 48
1.0
  6
Continuous
100
AcDbLine
 10
185.1286795466637898
 20
91.4650510854209813
 30
0.0
 11
218.5389146149321959
 21
75.8869321752242172
 31
0.0
  0
LINE
  5
70
100
AcDbEntity
  8
0
 62
1
420
16711680
370
0
 48
1.0
  6
Continuous
100
AcDbLine
 10
172.1841412741551096
 20
150.7161913820183941
 30
0.0
 11
172.1967999999997971
 21
85.4000000000003752
 31
0.0
  0
CIRCLE
  5
71
100
AcDbEntity
  8
0
 62
1
420
16711680
370
0
 48
1.0
  6
Continuous
100
AcDbCircle
 10
26.2638762658470206
 20
177.4341237341531041
 30
0.0
 40
1.5
  0
ARC
  5
72
100
AcDbEntity
  8
0
 62
1
420
16711680
370
0
 48
1.0
  6
Continuous
100
AcDbCircle
 10
158.6087410716951069
 20
74.0081913820183672
 30
0.0
 40
1.0159999999999949
100
AcDbArc
 50
90.0
 51
244.9999999999000408
  0
LINE
  5
73
100
AcDbEntity
  8
0
 62
1
420
16711680
370
0
 48
1.0
  6
Continuous
100
AcDbLine
 10
158.1793609195349859
 20
73.0873826699183553
 30
0.0
 11
168.6412344102749898
 21
68.2089309409383588
 31
0.0
  0
ARC
  5
74
100
AcDbEntity
  8
0
 62
1
420
16711680
370
0
 48
1.0
  6
Continuous
100
AcDbCircle
 10
169.2853046410550917
 20
69.5901440103582161
 30
0.0
 40
1.523999999999982
100
AcDbArc
 50
244.9999999999000408
 51
334.9999999999001261
  0
LINE
  5
75
100
AcDbEntity
  8
0
 62
1
420
16711680
370
0
 48
1.0
  6
Continuous
100
AcDbLine
 10
170.666517707934986
 20
68.9460737795784269
 30
0.0
 11
177.6439452084750883
 21
83.9092153416784186
 31
0.0
  0
ARC
  5
76
100
AcDbEntity
  8
0
 62
1
420
16711680
370
0
 48
1.0
  6
Continuous
100
AcDbCircle
 10
178.5647539205751002
 20
83.4798351895183828
 30
0.0
 40
1.0160000000000129
100
AcDbArc
 50
64.9999999999000124
 51
154.9999999999000124
  0
LINE
  5
77
100
AcDbEntity
  8
0
 62
1
420
16711680
370
0
 48
1.0
  6
Continuous
100
AcDbLine
 10
178.9941340752750136
 20
84.4006438990783181
 30
0.0
 11
212.1432476930951054
 21
68.9429583578185827
 31
0.0
  0
ARC
  5
78
100
AcDbEntity
  8
0
 62
1
420
16711680
370
0
 48
1.0
  6
Continuous
100
AcDbCircle
 10
211.7138675383951067
 20
68.0221496482583348
 30
0.0
 40
1.0159999999999949
100
AcDbArc
 50
334.9999999999001261
 51
64.9999999999000124
  0
LINE
  5
79
100
AcDbEntity
  8
0
 62
1
420
16711680
370
0
 48
1.0
  6
Continuous
100
AcDbLine
 10
212.6346762500236025
 20
67.5927694943281381
 30
0.0
 11
189.1261128227436075
 21
17.1784925328881215
 31
0.0
  0
ARC
  5
7A
100
AcDbEntity
  8
0
 62
1
420
16711680
370
0
 48
1.0
  6
Continuous
100
AcDbCircle
 10
188.2053041111151117
 20
17.6078726842784299
 30
0.0
 40
1.0159999999999541
100
AcDbArc
 50
244.9999999999000408
 51
334.9999999999001261
  0
LINE
  5
7B
100
AcDbEntity
  8
0
 62
1
420
16711680
370
0
 48
1.0
  6
Continuous
100
AcDbLine
 10
187.775923956415113
 20
16.687063974718459
 30
0.0
 11
137.3616469949749899
 21
40.1956274019984718
 31
0.0
  0
ARC
  5
7C
100
AcDbEntity
  8
0
 62
1
420
16711680
370
0
 48
1.0
  6
Continuous
100
AcDbCircle
 10
137.7910271496751022
 20
41.1164361140984624
 30
0.0
 40
1.0159999999999949
100
AcDbArc
 50
154.9999999999000124
 51
244.9999999999000408
  0
LINE
  5
7D
100
AcDbEntity
  8
0
 62
1
420
16711680
370
0
 48
1.0
  6
Continuous
100
AcDbLine
 10
136.8702184375750051
 20
41.5458162662586687
 30
0.0
 11
151.4704533848749861
 21
72.8561211512383125
 31
0.0
  0
ARC
  5
7E
100
AcDbEntity
  8
0
 62
1
420
16711680
370
0
 48
1.0
  6
Continuous
100
AcDbCircle
 10
150.0892403179950918
 20
73.5001913820184427
 30
0.0
 40
1.5240000000000611
100
AcDbArc
 50
334.9999999999001261
 51
90.0
  0
LINE
  5
7F
100
AcDbEntity
  8
0
 62
1
420
16711680
370
0
 48
1.0
  6
Continuous
100
AcDbLine
 10
150.0892403179950918
 20
75.0241913820183868
 30
0.0
 11
135.6081412741550878
 21
75.0241913820183584
 31
0.0
  0
ARC
  5
80
100
AcDbEntity
  8
0
 62
1
420
16711680
370
0
 48
1.0
  6
Continuous
100
AcDbCircle
 10
135.6081412741550878
 20
73.5001913820184427
 30
0.0
 40
1.5239999999999669
100
AcDbArc
 50
90.0
 51
180.0
  0
LINE
  5
81
100
AcDbEntity
  8
0
 62
1
420
16711680
370
0
 48
1.0
  6
Continuous
100
AcDbLine
 10
134.0841412741550869
 20
73.500191382018329
 30
0.0
 11
134.0841412741550869
 21
58.2601913820181565
 31
0.0
  0
ARC
  5
82
100
AcDbEntity
  8
0
 62
1
420
16711680
370
0
 48
1.0
  6
Continuous
100
AcDbCircle
 10
133.0681412741550957
 20
58.2601913820184976
 30
0.0
 40
1.0159999999999769
100
AcDbArc
 50
270.0
 51
0.0
  0
LINE
  5
83
100
AcDbEntity
  8
0
 62
1
420
16711680
370
0
 48
1.0
  6
Continuous
100
AcDbLine
 10
133.0681412741550957
 20
57.2441913820186414
 30
0.0
 11
115.3567842915551012
 21
57.2441913820185491
 31
0.0
  0
ARC
  5
84
100
AcDbEntity
  8
0
 62
1
420
16711680
370
0
 48
1.0
  6
Continuous
100
AcDbCircle
 10
115.3567842915551012
 20
58.2601913820184691
 30
0.0
 40
1.0160000000000251
100
AcDbArc
 50
202.0243128370001102
 51
270.0
  0
ARC
  5
85
100
AcDbEntity
  8
0
 62
1
420
16711680
370
0
 48
1.0
  6
Continuous
100
AcDbCircle
 10
113.0021412741550932
 20
57.3076913820183265
 30
0.0
 40
1.5239999999999669
100
AcDbArc
 50
22.0243128369999894
 51
90.0
  0
LINE
  5
86
100
AcDbEntity
  8
0
 62
1
420
16711680
370
0
 48
1.0
  6
Continuous
100
AcDbLine
 10
113.0021412741550932
 20
58.8316913820183416
 30
0.0
 11
97.5081412741550935
 21
58.8316913820183487
 31
0.0
  0
ARC
  5
87
100
AcDbEntity
  8
0
 62
1
420
16711680
370
0
 48
1.0
  6
Continuous
100
AcDbCircle
 10
97.5081412741550935
 20
57.3076913820182767
 30
0.0
 40
1.523999999999982
100
AcDbArc
 50
90.0
 51
157.9756871630000035
  0
ARC
  5
88
100
AcDbEntity
  8
0
 62
1
420
16711680
370
0
 48
1.0
  6
Continuous
100
AcDbCircle
 10
95.1534982542150942
 20
58.2601913820184123
 30
0.0
 40
1.015999999999982
100
AcDbArc
 50
270.0
 51
337.975687162999975
  0
LINE
  5
89
100
AcDbEntity
  8
0
 62
1
420
16711680
370
0
 48
1.0
  6
Continuous
100
AcDbLine
 10
95.1534982542150942
 20
57.2441913820184922
 30
0.0
 11
78.4581412741550821
 21
57.2441913820184425
 31
0.0
  0
ARC
  5
8A
100
AcDbEntity
  8
0
 62
1
420
16711680
370
0
 48
1.0
  6
Continuous
100
AcDbCircle
 10
78.4581412741550821
 20
55.7201913820183421
 30
0.0
 40
1.524000000000058
100
AcDbArc
 50
90.0
 51
180.0
  0
LINE
  5
8B
100
AcDbEntity
  8
0
 62
1
420
16711680
370
0
 48
1.0
  6
Continuous
100
AcDbLine
 10
76.9341412741550812
 20
55.7201913820184203
 30
0.0
 11
76.9341412741550812
 21
55.0851913820184578
 31
0.0
  0
ARC
  5
8C
100
AcDbEntity
  8
0
 62
1
420
16711680
370
0
 48
1.0
  6
Continuous
100
AcDbCircle
 10
75.9181412741551185
 20
55.0851913820183725
 30
0.0
 40
1.0160000000000231
100
AcDbArc
 50
270.0
 51
0.0
  0
LINE
  5
8D
100
AcDbEntity
  8
0
 62
1
420
16711680
370
0
 48
1.0
  6
Continuous
100
AcDbLine
 10
75.9181412741551185
 20
54.0691913820182677
 30
0.0
 11
39.3421412741550967
 21
54.0691913820184027
 31
0.0
  0
ARC
  5
8E
100
AcDbEntity
  8
0
 62
1
420
16711680
370
0
 48
1.0
  6
Continuous
100
AcDbCircle
 10
39.3421412741550967
 20
55.0851913820183867
 30
0.0
 40
1.0160000000000691
100
AcDbArc
 50
180.0
 51
270.0
  0
LINE
  5
8F
100
AcDbEntity
  8
0
 62
1
420
16711680
370
0
 48
1.0
  6
Continuous
100
AcDbLine
 10
38.3261412741550203
 20
55.0851913820183867
 30
0.0
 11
38.3261412741550203
 21
148.8271909999999991
 31
0.0
  0
LINE
  5
90
100
AcDbEntity
  8
0
 62
1
420
16711680
370
0
 48
1.0
  6
Continuous
100
AcDbLine
 10
39.3261409999999998
 20
149.8271913820184977
 30
0.0
 11
74.9021412741550989
 21
149.8271913820184977
 31
0.0
  0
ARC
  5
91
100
AcDbEntity
  8
0
 62
1
420
16711680
370
0
 48
1.0
  6
Continuous
100
AcDbCircle
 10
74.9021412741550989
 20
151.3511913820184134
 30
0.0
 40
1.524000000000012
100
AcDbArc
 50
270.0
 51
0.0
  0
LINE
  5
92
100
AcDbEntity
  8
0
 62
1
420
16711680
370
0
 48
1.0
  6
Continuous
100
AcDbLine
 10
76.4261412741551567
 20
151.3511913820182997
 30
0.0
 11
76.4261412741550998
 21
151.9861913820184043
 31
0.0
  0
ARC
  5
93
100
AcDbEntity
  8
0
 62
1
420
16711680
370
0
 48
1.0
  6
Continuous
100
AcDbCircle
 10
77.4421412741551194
 20
151.9861913820184895
 30
0.0
 40
1.0160000000000691
100
AcDbArc
 50
90.0
 51
180.0
  0
LINE
  5
94
100
AcDbEntity
  8
0
 62
1
420
16711680
370
0
 48
1.0
  6
Continuous
100
AcDbLine
 10
77.4421412741551194
 20
153.0021913820183954
 30
0.0
 11
93.9521412741551245
 21
153.0021913820183954
 31
0.0
  0
ARC
  5
95
100
AcDbEntity
  8
0
 62
1
420
16711680
370
0
 48
1.0
  6
Continuous
100
AcDbCircle
 10
93.9521412741551529
 20
154.5261913820183111
 30
0.0
 40
1.5240000000000511
100
AcDbArc
 50
270.0
 51
337.975687162999975
  0
ARC
  5
96
100
AcDbEntity
  8
0
 62
1
420
16711680
370
0
 48
1.0
  6
Continuous
100
AcDbCircle
 10
96.3067842915551466
 20
153.57369138201841
 30
0.0
 40
1.01599999999999
100
AcDbArc
 50
90.0
 51
157.9756871630000035
  0
LINE
  5
97
100
AcDbEntity
  8
0
 62
1
420
16711680
370
0
 48
1.0
  6
Continuous
100
AcDbLine
 10
96.3067842915551608
 20
154.5896913820182874
 30
0.0
 11
114.2034982542151056
 21
154.5896913820182874
 31
0.0
  0
ARC
  5
98
100
AcDbEntity
  8
0
 62
1
420
16711680
370
0
 48
1.0
  6
Continuous
100
AcDbCircle
 10
114.2034982542151056
 20
153.57369138201841
 30
0.0
 40
1.01599999999999
100
AcDbArc
 50
22.0243128369999894
 51
90.0
  0
ARC
  5
99
100
AcDbEntity
  8
0
 62
1
420
16711680
370
0
 48
1.0
  6
Continuous
100
AcDbCircle
 10
116.5581412741551048
 20
154.5261913820183111
 30
0.0
 40
1.524000000000008
100
AcDbArc
 50
202.0243128370001102
 51
270.0
  0
LINE
  5
9A
100
AcDbEntity
  8
0
 62
1
420
16711680
370
0
 48
1.0
  6
Continuous
100
AcDbLine
 10
116.5581412741551048
 20
153.0021913820183954
 30
0.0
 11
133.408436747995097
 21
153.0021913820183954
 31
0.0
  0
ARC
  5
9B
100
AcDbEntity
  8
0
 62
1
420
16711680
370
0
 48
1.0
  6
Continuous
100
AcDbCircle
 10
133.408436747995097
 20
151.9861913820184043
 30
0.0
 40
1.0160000000000691
100
AcDbArc
 50
29.9999999999999929
 51
90.0
  0
ARC
  5
9C
100
AcDbEntity
  8
0
 62
1
420
16711680
370
0
 48
1.0
  6
Continuous
100
AcDbCircle
 10
135.6081412741550878
 20
153.2561913820183008
 30
0.0
 40
1.524000000000058
100
AcDbArc
 50
210.0
 51
270.0
  0
LINE
  5
9D
100
AcDbEntity
  8
0
 62
1
420
16711680
370
0
 48
1.0
  6
Continuous
100
AcDbLine
 10
135.6081412741550878
 20
151.7321913820184136
 30
0.0
 11
171.1681412741550901
 21
151.7321913820184136
 31
0.0
  0
ARC
  5
9E
100
AcDbEntity
  8
0
 62
1
420
16711680
370
0
 48
1.0
  6
Continuous
100
AcDbCircle
 10
171.1681412741550901
 20
150.7161913820183941
 30
0.0
 40
1.0160000000000691
100
AcDbArc
 50
0.0
 51
90.0
  0
LINE
  5
9F
100
AcDbEntity
  8
0
 62
1
420
16711680
370
0
 48
1.0
  6
Continuous
100
AcDbLine
 10
172.1841412741551096
 20
150.7161913820183941
 30
0.0
 11
172.1841412741551096
 21
76.0401913820182926
 31
0.0
  0
ARC
  5
A0
100
AcDbEntity
  8
0
 62
1
420
16711680
370
0
 48
1.0
  6
Continuous
100
AcDbCircle
 10
171.1681412741550901
 20
76.0401913820183779
 30
0.0
 40
1.0160000000000691
100
AcDbArc
 50
270.0
 51
0.0
  0
LINE
  5
A1
100
AcDbEntity
  8
0
 62
1
420
16711680
370
0
 48
1.0
  6
Continuous
100
AcDbLine
 10
171.1681412741550901
 20
75.0241913820184436
 30
0.0
 11
158.6087410716951069
 21
75.0241913820183015
 31
0.0
  0
ENDSEC
  0
SECTION
  2
OBJECTS
  0
DICTIONARY
  5
C
100
AcDbDictionary
280
0
281
1
  3
ACAD_GROUP
350
D
  3
ACAD_LAYOUT
350
1A
  3
ACAD_MLINESTYLE
350
17
  3
ACAD_PLOTSETTINGS
350
19
  3
ACAD_PLOTSTYLENAME
350
E
  3
AcDbVariableDictionary
350
A2
  3
QCAD_OBJECTS
350
A3
  0
DICTIONARY
  5
D
100
AcDbDictionary
280
0
281
1
  0
ACDBDICTIONARYWDFLT
  5
E
100
AcDbDictionary
281
1
  3
Normal
350
F
100
AcDbDictionaryWithDefault
340
F
  0
ACDBPLACEHOLDER
  5
F
  0
DICTIONARY
  5
17
100
AcDbDictionary
280
0
281
1
  3
Standard
350
18
  0
MLINESTYLE
  5
18
100
AcDbMlineStyle
  2
STANDARD
 70
0
  3

 62
256
 51
90.0
 52
90.0
 71
2
 49
0.5
 62
256
  6
BYLAYER
 49
-0.5
 62
256
  6
BYLAYER
  0
DICTIONARY
  5
19
100
AcDbDictionary
280
0
281
1
  0
DICTIONARY
  5
1A
100
AcDbDictionary
281
1
  3
Layout1
350
1E
  3
Layout2
350
26
  3
Model
350
22
  0
LAYOUT
  5
1E
100
AcDbPlotSettings
  1

  2
none_device
  4

  6

 40
0.0
 41
0.0
 42
0.0
 43
0.0
 44
0.0
 45
0.0
 46
0.0
 47
0.0
 48
0.0
 49
0.0
140
0.0
141
0.0
142
1.0
143
1.0
 70
688
 72
0
 73
0
 74
5
  7

 75
16
147
1.0
148
0.0
149
0.0
100
AcDbLayout
  1
Layout1
 70
1
 71
1
 10
0.0
 20
0.0
 11
420.0
 21
297.0
 12
0.0
 22
0.0
 32
0.0
 14
100000000000000000000.0
 24
100000000000000000000.0
 34
100000000000000000000.0
 15
-100000000000000000000.0
 25
-100000000000000000000.0
 35
-100000000000000000000.0
146
0.0
 13
0.0
 23
0.0
 33
0.0
 16
1.0
 26
0.0
 36
0.0
 17
0.0
 27
1.0
 37
0.0
 76
0
330
1B
  0
LAYOUT
  5
22
100
AcDbPlotSettings
  1

  2
none_device
  4

  6

 40
0.0
 41
0.0
 42
0.0
 43
0.0
 44
0.0
 45
0.0
 46
0.0
 47
0.0
 48
0.0
 49
0.0
140
0.0
141
0.0
142
1.0
143
1.0
 70
1712
 72
0
 73
0
 74
0
  7

 75
0
147
1.0
148
0.0
149
0.0
100
AcDbLayout
  1
Model
 70
1
 71
0
 10
0.0
 20
0.0
 11
12.0
 21
9.0
 12
0.0
 22
0.0
 32
0.0
 14
0.0
 24
0.0
 34
0.0
 15
0.0
 25
0.0
 35
0.0
146
0.0
 13
0.0
 23
0.0
 33
0.0
 16
1.0
 26
0.0
 36
0.0
 17
0.0
 27
1.0
 37
0.0
 76
0
330
1F
  0
LAYOUT
  5
26
100
AcDbPlotSettings
  1

  2
none_device
  4

  6

 40
0.0
 41
0.0
 42
0.0
 43
0.0
 44
0.0
 45
0.0
 46
0.0
 47
0.0
 48
0.0
 49
0.0
140
0.0
141
0.0
142
1.0
143
1.0
 70
688
 72
0
 73
0
 74
5
  7

 75
16
147
1.0
148
0.0
149
0.0
100
AcDbLayout
  1
Layout2
 70
1
 71
2
 10
0.0
 20
0.0
 11
12.0
 21
9.0
 12
0.0
 22
0.0
 32
0.0
 14
0.0
 24
0.0
 34
0.0
 15
0.0
 25
0.0
 35
0.0
146
0.0
 13
0.0
 23
0.0
 33
0.0
 16
1.0
 26
0.0
 36
0.0
 17
0.0
 27
1.0
 37
0.0
 76
0
330
23
  0
DICTIONARY
  5
A2
100
AcDbDictionary
281
1
  3
DIMASSOC
350
A5
  3
HIDETEXT
350
A4
  0
DICTIONARYVAR
  5
A4
100
DictionaryVariables
280
0
  1
2
  0
DICTIONARYVAR
  5
A5
100
DictionaryVariables
280
0
  1
1
  0
DICTIONARY
  5
A3
100
AcDbDictionary
281
1
  3
ColorSettings/BackgroundColor
350
A6
  3
ColorSettings/ColorMode
350
A7
  3
Grid/DisplayGrid
350
A8
  3
Grid/DisplayGrid00
350
A9
  3
Grid/DisplayGrid01
350
AA
  3
Grid/DisplayGrid02
350
AB
  3
Grid/DisplayGrid03
350
AC
  3
Grid/GridSpacingX
350
AD
  3
Grid/GridSpacingX00
350
AE
  3
Grid/GridSpacingX01
350
AF
  3
Grid/GridSpacingX02
350
B0
  3
Grid/GridSpacingX03
350
B1
  3
Grid/GridSpacingY
350
B2
  3
Grid/GridSpacingY00
350
B3
  3
Grid/GridSpacingY01
350
B4
  3
Grid/GridSpacingY02
350
B5
  3
Grid/GridSpacingY03
350
B6
  3
Grid/IsometricGrid00
350
B7
  3
Grid/IsometricGrid01
350
B8
  3
Grid/IsometricGrid02
350
B9
  3
Grid/IsometricGrid03
350
BA
  3
Grid/IsometricProjection00
350
BB
  3
Grid/IsometricProjection01
350
BC
  3
Grid/IsometricProjection02
350
BD
  3
Grid/IsometricProjection03
350
BE
  3
Grid/MetaGridSpacingX
350
BF
  3
Grid/MetaGridSpacingX00
350
C0
  3
Grid/MetaGridSpacingX01
350
C1
  3
Grid/MetaGridSpacingX02
350
C2
  3
Grid/MetaGridSpacingX03
350
C3
  3
Grid/MetaGridSpacingY
350
C4
  3
Grid/MetaGridSpacingY00
350
C5
  3
Grid/MetaGridSpacingY01
350
C6
  3
Grid/MetaGridSpacingY02
350
C7
  3
Grid/MetaGridSpacingY03
350
C8
  3
MultiPageSettings/Columns
350
C9
  3
MultiPageSettings/GlueMarginsBottom
350
CA
  3
MultiPageSettings/GlueMarginsLeft
350
CB
  3
MultiPageSettings/GlueMarginsRight
350
CC
  3
MultiPageSettings/GlueMarginsTop
350
CD
  3
MultiPageSettings/PrintCropMarks
350
CE
  3
MultiPageSettings/Rows
350
CF
  3
PageSettings/OffsetX
350
D0
  3
PageSettings/OffsetY
350
D1
  3
PageSettings/PageOrientation
350
D2
  3
PageSettings/PaperHeight
350
D3
  3
PageSettings/PaperWidth
350
D4
  3
PageSettings/Scale
350
D5
  3
PageSettings/ShowPaperBorders
350
D6
  3
QCADVersion
350
D7
  3
UnitSettings/PaperUnit
350
D8
  3
ViewportCenter
350
D9
  3
ViewportHeight
350
DA
  3
ViewportWidth
350
DB
  0
XRECORD
  5
A6
330
A3
100
AcDbXrecord
280
1
1000
Blanc
  0
XRECORD
  5
A7
330
A3
100
AcDbXrecord
280
1
1000
FullColor
  0
XRECORD
  5
A8
330
A3
100
AcDbXrecord
280
1
290
1
  0
XRECORD
  5
A9
330
A3
100
AcDbXrecord
280
1
290
1
  0
XRECORD
  5
AA
330
A3
100
AcDbXrecord
280
1
290
1
  0
XRECORD
  5
AB
330
A3
100
AcDbXrecord
280
1
290
1
  0
XRECORD
  5
AC
330
A3
100
AcDbXrecord
280
1
290
1
  0
XRECORD
  5
AD
330
A3
100
AcDbXrecord
280
1
1000
auto
  0
XRECORD
  5
AE
330
A3
100
AcDbXrecord
280
1
1000
auto
  0
XRECORD
  5
AF
330
A3
100
AcDbXrecord
280
1
1000
auto
  0
XRECORD
  5
B0
330
A3
100
AcDbXrecord
280
1
1000
auto
  0
XRECORD
  5
B1
330
A3
100
AcDbXrecord
280
1
1000
auto
  0
XRECORD
  5
B2
330
A3
100
AcDbXrecord
280
1
1000
auto
  0
XRECORD
  5
B3
330
A3
100
AcDbXrecord
280
1
1000
auto
  0
XRECORD
  5
B4
330
A3
100
AcDbXrecord
280
1
1000
auto
  0
XRECORD
  5
B5
330
A3
100
AcDbXrecord
280
1
1000
auto
  0
XRECORD
  5
B6
330
A3
100
AcDbXrecord
280
1
1000
auto
  0
XRECORD
  5
B7
330
A3
100
AcDbXrecord
280
1
290
0
  0
XRECORD
  5
B8
330
A3
100
AcDbXrecord
280
1
290
0
  0
XRECORD
  5
B9
330
A3
100
AcDbXrecord
280
1
290
0
  0
XRECORD
  5
BA
330
A3
100
AcDbXrecord
280
1
290
0
  0
XRECORD
  5
BB
330
A3
100
AcDbXrecord
280
1
 90
65537
  0
XRECORD
  5
BC
330
A3
100
AcDbXrecord
280
1
 90
65537
  0
XRECORD
  5
BD
330
A3
100
AcDbXrecord
280
1
 90
65537
  0
XRECORD
  5
BE
330
A3
100
AcDbXrecord
280
1
 90
65537
  0
XRECORD
  5
BF
330
A3
100
AcDbXrecord
280
1
1000
auto
  0
XRECORD
  5
C0
330
A3
100
AcDbXrecord
280
1
1000
auto
  0
XRECORD
  5
C1
330
A3
100
AcDbXrecord
280
1
1000
auto
  0
XRECORD
  5
C2
330
A3
100
AcDbXrecord
280
1
1000
auto
  0
XRECORD
  5
C3
330
A3
100
AcDbXrecord
280
1
1000
auto
  0
XRECORD
  5
C4
330
A3
100
AcDbXrecord
280
1
1000
auto
  0
XRECORD
  5
C5
330
A3
100
AcDbXrecord
280
1
1000
auto
  0
XRECORD
  5
C6
330
A3
100
AcDbXrecord
280
1
1000
auto
  0
XRECORD
  5
C7
330
A3
100
AcDbXrecord
280
1
1000
auto
  0
XRECORD
  5
C8
330
A3
100
AcDbXrecord
280
1
1000
auto
  0
XRECORD
  5
C9
330
A3
100
AcDbXrecord
280
1
 90
1
  0
XRECORD
  5
CA
330
A3
100
AcDbXrecord
280
1
 40
10.0
  0
XRECORD
  5
CB
330
A3
100
AcDbXrecord
280
1
 40
10.0
  0
XRECORD
  5
CC
330
A3
100
AcDbXrecord
280
1
 40
10.0
  0
XRECORD
  5
CD
330
A3
100
AcDbXrecord
280
1
 40
10.0
  0
XRECORD
  5
CE
330
A3
100
AcDbXrecord
280
1
290
0
  0
XRECORD
  5
CF
330
A3
100
AcDbXrecord
280
1
 90
1
  0
XRECORD
  5
D0
330
A3
100
AcDbXrecord
280
1
 40
0.0
  0
XRECORD
  5
D1
330
A3
100
AcDbXrecord
280
1
 40
0.0
  0
XRECORD
  5
D2
330
A3
100
AcDbXrecord
280
1
1000
Portrait
  0
XRECORD
  5
D3
330
A3
100
AcDbXrecord
280
1
 40
297.0
  0
XRECORD
  5
D4
330
A3
100
AcDbXrecord
280
1
 40
210.0
  0
XRECORD
  5
D5
330
A3
100
AcDbXrecord
280
1
1000
1:1
  0
XRECORD
  5
D6
330
A3
100
AcDbXrecord
280
1
290
1
  0
XRECORD
  5
D7
330
A3
100
AcDbXrecord
280
1
1000
3.22.0
  0
XRECORD
  5
D8
330
A3
100
AcDbXrecord
280
1
 90
4
  0
XRECORD
  5
DA
330
A3
100
AcDbXrecord
280
1
 40
14.5365811297030518
  0
XRECORD
  5
DB
330
A3
100
AcDbXrecord
280
1
 40
29.7290287157019009
  0
ENDSEC
  0
EOF
